<!--?xml version="1.0" encoding="utf-8"?-->
<!-- Generator: Adobe Illustrator 16.0.0, SVG Export Plug-In . SVG Version: 6.00 Build 0)  -->

<svg version="1.1" id="Calque_1" xmlns="http://www.w3.org/2000/svg" xmlns:xlink="http://www.w3.org/1999/xlink" x="0px" y="0px" width="110.677px" height="517px" viewBox="0 0 110.677 517" enable-background="new 0 0 110.677 517" xml:space="preserve" style="">
<g>
	<path fill="none" stroke="#FFFFFF" stroke-width="2.8346" d="M74.535,423.41c0.936-0.373,1.646-0.79,2.133-1.248
		c0.486-0.459,0.805-0.971,0.958-1.537c0.153-0.565,0.157-1.204,0.012-1.915c-0.146-0.712-0.396-1.515-0.751-2.407
		c-0.573-1.438-1.236-2.673-1.991-3.711c-0.754-1.035-1.484-1.917-2.19-2.646c-0.706-0.727-1.331-1.329-1.875-1.808
		c-0.544-0.477-0.881-0.877-1.011-1.205c-0.165-0.412-0.164-0.792,0.001-1.135c0.166-0.344,0.499-0.617,1-0.815
		c0.871-0.349,1.531-0.511,1.981-0.487c0.451,0.021,0.883,0.267,1.296,0.732c1.486,1.703,2.893,3.729,4.22,6.076
		c1.327,2.346,2.616,5.088,3.866,8.223c0.93,2.328,1.585,4.275,1.969,5.838c0.384,1.564,0.483,2.873,0.3,3.93
		c-0.184,1.059-0.665,1.926-1.442,2.6c-0.777,0.677-1.873,1.297-3.289,1.861l-37.096,14.795c-0.479,0.189-0.838,0.396-1.078,0.618
		c-0.239,0.223-0.402,0.463-0.487,0.724c-0.086,0.262-0.101,0.539-0.047,0.833c0.055,0.294,0.146,0.604,0.277,0.931
		c0.191,0.479,0.504,1.041,0.938,1.688c0.435,0.646,0.961,1.302,1.578,1.965c0.619,0.662,1.309,1.301,2.071,1.918
		c0.764,0.617,1.552,1.121,2.365,1.517c0.814,0.395,1.647,0.649,2.5,0.763c0.854,0.113,1.683,0.011,2.488-0.311
		c0.697-0.277,1.215-0.592,1.555-0.941s0.565-0.686,0.677-1.008c0.111-0.321,0.145-0.619,0.099-0.892
		c-0.045-0.271-0.09-0.462-0.133-0.571c-0.217-0.543-0.488-0.953-0.812-1.229c-0.324-0.273-0.646-0.511-0.966-0.712
		c-0.318-0.2-0.622-0.39-0.907-0.565c-0.284-0.177-0.492-0.428-0.622-0.754c-0.104-0.262-0.154-0.564-0.152-0.905
		c0.003-0.342,0.085-0.688,0.246-1.044c0.161-0.354,0.419-0.703,0.774-1.047c0.354-0.344,0.838-0.639,1.446-0.88
		c0.872-0.348,1.689-0.479,2.455-0.393c0.767,0.087,1.468,0.312,2.105,0.675c0.638,0.364,1.196,0.848,1.676,1.451
		c0.48,0.603,0.855,1.242,1.125,1.917c0.416,1.045,0.612,2.06,0.587,3.04c-0.024,0.98-0.235,1.891-0.633,2.73
		c-0.396,0.84-0.959,1.582-1.686,2.225c-0.728,0.645-1.57,1.156-2.529,1.539c-1.502,0.598-2.986,0.875-4.456,0.83
		c-1.469-0.045-2.893-0.342-4.272-0.889c-1.379-0.549-2.698-1.31-3.957-2.283c-1.259-0.975-2.434-2.102-3.525-3.382
		c-1.091-1.28-2.083-2.677-2.976-4.188c-0.893-1.512-1.661-3.07-2.303-4.682c-0.712-1.786-1.097-3.24-1.154-4.365
		c-0.058-1.127,0.06-2.019,0.352-2.678c0.292-0.658,0.683-1.135,1.17-1.432c0.487-0.295,0.906-0.512,1.253-0.651L74.535,423.41z" class="bxLvKFXT_0"></path>
	<path fill="none" stroke="#FFFFFF" stroke-width="2.8346" d="M44.112,420.507c-1.394-1.069-2.705-1.687-3.936-1.857
		c-1.23-0.171-2.324-0.098-3.28,0.222c-1.022,0.34-1.834,0.925-2.435,1.756c-0.6,0.829-1.075,1.686-1.424,2.566
		c-0.222,0.445-0.533,0.734-0.934,0.867c-0.467,0.156-0.996,0.16-1.59,0.012c-0.592-0.148-1.186-0.408-1.778-0.779
		c-0.592-0.369-1.135-0.85-1.629-1.439c-0.493-0.59-0.861-1.251-1.105-1.984c-0.229-0.689-0.247-1.338-0.055-1.945
		c0.193-0.608,0.497-1.143,0.912-1.601c0.416-0.46,0.884-0.851,1.407-1.173c0.522-0.323,1.006-0.557,1.451-0.707
		c1.313-0.437,2.635-0.617,3.969-0.543s2.657,0.338,3.969,0.79s2.583,1.062,3.813,1.824c1.23,0.764,2.387,1.62,3.468,2.569
		L44.112,420.507z" class="bxLvKFXT_1"></path>
	<path fill="none" stroke="#FFFFFF" stroke-width="2.8346" d="M51.155,370.027l3.151,12.873c3.24,0.22,6.099,0.611,8.577,1.176
		c2.479,0.563,4.611,1.338,6.396,2.324c1.786,0.986,3.229,2.194,4.327,3.627c1.098,1.432,1.891,3.139,2.375,5.119
		c0.269,1.094,0.429,2.171,0.483,3.23c0.055,1.061,0.006,2.019-0.146,2.876c-0.152,0.858-0.404,1.577-0.757,2.159
		c-0.353,0.58-0.802,0.938-1.348,1.072c-0.41,0.1-0.84,0.139-1.293,0.117c-0.451-0.023-0.882-0.105-1.29-0.246
		c-0.409-0.141-0.762-0.35-1.059-0.627s-0.496-0.621-0.597-1.03c-0.09-0.364,0.084-0.745,0.518-1.141
		c0.435-0.396,0.901-0.878,1.401-1.446c0.499-0.568,0.92-1.244,1.258-2.027c0.339-0.783,0.367-1.755,0.083-2.916
		c-0.29-1.184-0.851-2.24-1.682-3.172c-0.83-0.931-1.977-1.742-3.438-2.435c-1.46-0.692-3.246-1.262-5.359-1.709
		c-2.112-0.447-4.606-0.778-7.481-0.991l1.974,8.059l-3.005,0.735l-2.191-8.946c-2.733-0.127-5.486-0.23-8.256-0.313
		c-2.771-0.081-5.43-0.147-7.977-0.199c-2.546-0.052-4.922-0.073-7.127-0.063c-2.206,0.008-4.124,0.031-5.756,0.069
		c-1.163,0.767-1.864,1.597-2.105,2.487c-0.24,0.893-0.199,1.998,0.125,3.318c0.301,1.229,0.8,2.453,1.496,3.668
		c0.696,1.219,1.523,2.276,2.479,3.176c0.957,0.901,2.026,1.574,3.209,2.02c1.183,0.446,2.401,0.516,3.653,0.211
		c0.729-0.179,1.285-0.418,1.67-0.719c0.386-0.297,0.654-0.605,0.806-0.92c0.153-0.314,0.226-0.605,0.222-0.869
		s-0.023-0.465-0.057-0.602c-0.134-0.546-0.343-0.982-0.629-1.312c-0.285-0.328-0.571-0.608-0.857-0.841
		c-0.285-0.23-0.559-0.459-0.819-0.686c-0.26-0.225-0.432-0.51-0.516-0.85c-0.062-0.25-0.066-0.546-0.017-0.883
		c0.05-0.339,0.18-0.672,0.389-1c0.209-0.328,0.514-0.639,0.913-0.93c0.399-0.29,0.918-0.515,1.555-0.67
		c0.911-0.225,1.74-0.239,2.486-0.049c0.747,0.193,1.41,0.512,1.99,0.961c0.581,0.449,1.067,1.006,1.459,1.67
		s0.674,1.349,0.847,2.055c0.267,1.093,0.309,2.127,0.125,3.1c-0.184,0.975-0.542,1.853-1.074,2.635
		c-0.532,0.781-1.215,1.443-2.048,1.984c-0.832,0.543-1.749,0.936-2.751,1.182c-1.503,0.368-2.947,0.455-4.333,0.264
		c-1.386-0.191-2.705-0.604-3.959-1.238c-1.253-0.633-2.42-1.458-3.501-2.473c-1.08-1.014-2.06-2.156-2.938-3.425
		c-0.877-1.27-1.64-2.632-2.287-4.091c-0.646-1.458-1.159-2.961-1.538-4.51c-0.536-2.186-0.812-4.078-0.83-5.68
		c-0.017-1.598,0.196-2.996,0.639-4.191c0.444-1.193,1.118-2.233,2.023-3.119c0.905-0.885,2.002-1.703,3.29-2.452l23.437-13.522
		l-1.814-7.409l3.004-0.735l1.614,6.59l8.294-4.854c0.319-0.174,0.616-0.343,0.889-0.507c0.274-0.164,0.504-0.334,0.689-0.513
		c0.186-0.177,0.322-0.38,0.412-0.607c0.089-0.226,0.098-0.487,0.025-0.784c-0.156-0.638-0.409-1.203-0.76-1.695
		c-0.35-0.494-0.688-0.918-1.017-1.271l1.121-0.891c0.396,0.338,0.859,0.773,1.388,1.307c0.529,0.535,1.063,1.164,1.603,1.889
		s1.043,1.549,1.511,2.472c0.466,0.923,0.837,1.942,1.109,3.057c0.38,1.55,0.491,2.844,0.336,3.882
		c-0.155,1.039-0.452,1.896-0.891,2.571c-0.438,0.674-0.946,1.209-1.525,1.604c-0.579,0.396-1.091,0.72-1.535,0.974L51.155,370.027z
		 M29.693,382.304c4.031,0.002,7.827,0.032,11.387,0.089c3.561,0.057,6.893,0.164,9.996,0.322l-2.726-11.133L29.693,382.304z" class="bxLvKFXT_2"></path>
	<path fill="none" stroke="#FFFFFF" stroke-width="2.8346" d="M8.759,327.555c0.082,0.628,0.304,1.344,0.669,2.148
		c0.365,0.803,0.957,1.594,1.779,2.374c0.822,0.779,1.926,1.505,3.313,2.175c1.387,0.672,3.14,1.206,5.26,1.604
		c2.12,0.399,4.659,0.613,7.617,0.644c2.958,0.03,6.413-0.212,10.363-0.726c3.766-0.488,7.005-1.115,9.718-1.881
		c2.714-0.766,4.996-1.617,6.847-2.555c1.853-0.938,3.337-1.928,4.454-2.971s1.956-2.098,2.515-3.162s0.902-2.104,1.031-3.111
		c0.129-1.01,0.138-1.945,0.026-2.805c-0.117-0.906-0.354-1.81-0.706-2.709s-0.809-1.768-1.366-2.605s-1.204-1.628-1.938-2.372
		c-0.734-0.743-1.554-1.411-2.458-2.003l1.365-1.772c0.95,0.585,1.937,1.308,2.959,2.169c1.021,0.859,1.981,1.887,2.881,3.082
		s1.686,2.564,2.359,4.107c0.672,1.543,1.136,3.292,1.389,5.244c0.396,3.045,0.182,5.949-0.642,8.715
		c-0.823,2.767-2.334,5.277-4.534,7.537s-5.146,4.189-8.838,5.791c-3.692,1.602-8.211,2.75-13.557,3.443
		c-5.02,0.651-9.5,0.643-13.439-0.028c-3.939-0.671-7.311-1.841-10.116-3.509c-2.804-1.668-5.026-3.767-6.667-6.297
		c-1.64-2.527-2.657-5.314-3.052-8.359c-0.263-2.022-0.31-3.889-0.142-5.601c0.168-1.711,0.54-3.22,1.115-4.522
		c0.575-1.305,1.36-2.357,2.354-3.16s2.178-1.293,3.549-1.471c0.628-0.082,1.298-0.063,2.011,0.058
		c0.713,0.121,1.381,0.358,2.007,0.715s1.159,0.825,1.601,1.405c0.442,0.58,0.716,1.289,0.825,2.126
		c0.097,0.743,0.009,1.342-0.264,1.79c-0.272,0.447-0.663,0.807-1.173,1.074c-0.509,0.266-1.102,0.474-1.78,0.62
		c-0.678,0.147-1.375,0.28-2.093,0.396s-1.415,0.259-2.089,0.431c-0.674,0.17-1.263,0.412-1.767,0.725
		c-0.503,0.314-0.887,0.725-1.152,1.231C8.729,326.047,8.65,326.719,8.759,327.555z" class="bxLvKFXT_3"></path>
	<path fill="none" stroke="#FFFFFF" stroke-width="2.8346" d="M60.947,294.811c-0.033-0.937-0.235-1.855-0.606-2.758
		c-0.372-0.902-0.963-1.695-1.772-2.383s-1.854-1.23-3.135-1.633c-1.279-0.4-2.833-0.568-4.661-0.506
		c-1.967,0.068-3.859,0.622-5.676,1.658c-1.816,1.037-3.596,2.318-5.336,3.844c-1.741,1.527-3.465,3.17-5.175,4.93
		c-1.709,1.76-3.458,3.404-5.246,4.932c-1.787,1.528-3.642,2.813-5.564,3.853c-1.921,1.04-3.948,1.598-6.08,1.673
		c-2.132,0.072-4.072-0.252-5.821-0.977c-1.749-0.726-3.249-1.739-4.502-3.045c-1.253-1.304-2.239-2.842-2.958-4.609
		c-0.718-1.77-1.113-3.674-1.184-5.711c-0.076-2.179,0.085-4.125,0.482-5.84c0.397-1.713,0.968-3.176,1.711-4.386
		c0.744-1.21,1.638-2.138,2.683-2.784c1.044-0.646,2.164-0.99,3.358-1.032c0.563-0.019,1.145,0.043,1.748,0.186
		c0.603,0.144,1.157,0.382,1.661,0.716c0.504,0.334,0.93,0.766,1.276,1.293s0.533,1.154,0.558,1.88
		c0.03,0.866-0.211,1.515-0.724,1.942c-0.512,0.429-1.152,0.756-1.918,0.98c-0.765,0.227-1.608,0.426-2.529,0.6
		c-0.919,0.172-1.762,0.424-2.523,0.756c-0.763,0.332-1.396,0.811-1.902,1.438s-0.738,1.526-0.697,2.698
		c0.022,0.631,0.184,1.254,0.487,1.864c0.302,0.611,0.75,1.158,1.34,1.642c0.592,0.484,1.338,0.863,2.238,1.137
		c0.901,0.273,1.96,0.388,3.178,0.346c1.405-0.049,2.766-0.389,4.08-1.021c1.314-0.632,2.605-1.451,3.872-2.457
		c1.267-1.006,2.529-2.146,3.786-3.421c1.257-1.274,2.526-2.573,3.804-3.896c1.28-1.324,2.594-2.623,3.945-3.902
		c1.351-1.278,2.759-2.424,4.225-3.437c1.466-1.012,3.008-1.84,4.628-2.483c1.619-0.641,3.33-0.995,5.134-1.057
		c2.647-0.093,5.024,0.334,7.133,1.282c2.108,0.945,3.9,2.268,5.379,3.963c1.479,1.696,2.632,3.702,3.464,6.018
		c0.831,2.316,1.293,4.798,1.385,7.445c0.083,2.389-0.142,4.514-0.675,6.373s-1.27,3.438-2.209,4.738
		c-0.94,1.299-2.025,2.293-3.256,2.98c-1.231,0.688-2.514,1.055-3.849,1.102c-0.563,0.02-1.168-0.047-1.818-0.201
		s-1.251-0.39-1.802-0.711c-0.55-0.32-1.016-0.732-1.397-1.236c-0.381-0.502-0.583-1.092-0.607-1.771
		c-0.024-0.703,0.132-1.277,0.468-1.723s0.793-0.807,1.369-1.086c0.577-0.277,1.238-0.512,1.981-0.703
		c0.744-0.189,1.499-0.391,2.265-0.605c0.767-0.214,1.52-0.475,2.26-0.782c0.739-0.308,1.394-0.718,1.962-1.229
		s1.015-1.16,1.34-1.945C60.846,296.961,60.988,295.982,60.947,294.811z" class="bxLvKFXT_4"></path>
	<path fill="none" stroke="#FFFFFF" stroke-width="2.8346" d="M47.019,218.891c-2.078-1.071-4.4-2.215-6.969-3.433
		c-2.568-1.217-5.18-2.363-7.835-3.437s-5.248-2.005-7.78-2.795c-2.532-0.789-4.812-1.292-6.839-1.51
		c-1.538-0.164-2.831-0.197-3.878-0.097c-1.048,0.1-1.93,0.248-2.646,0.442c-0.716,0.195-1.307,0.373-1.772,0.536
		c-0.465,0.162-0.885,0.223-1.257,0.183c-0.49-0.052-0.889-0.23-1.198-0.535c-0.309-0.303-0.56-0.666-0.75-1.088
		c-0.19-0.421-0.313-0.87-0.368-1.347c-0.055-0.478-0.06-0.926-0.016-1.346c0.1-0.931,0.324-1.703,0.672-2.314
		c0.349-0.611,0.875-1.008,1.577-1.192c0.362-0.079,0.739-0.133,1.132-0.162c0.392-0.029,0.77-0.042,1.135-0.038
		s0.705,0.022,1.019,0.056c0.314,0.033,0.565,0.06,0.751,0.08c0.979,0.105,2.302,0.412,3.968,0.92
		c1.666,0.508,3.542,1.151,5.628,1.928c2.086,0.778,4.313,1.658,6.683,2.642c2.369,0.984,4.754,1.993,7.154,3.028
		c2.4,1.035,4.746,2.076,7.038,3.122c2.292,1.047,4.409,2.027,6.35,2.942c1.941,0.915,3.641,1.727,5.097,2.437
		c1.456,0.71,2.541,1.256,3.254,1.639c0.514,0.267,0.917,0.575,1.209,0.925c0.293,0.349,0.505,0.732,0.638,1.147
		s0.202,0.864,0.209,1.348c0.008,0.484-0.016,0.982-0.071,1.495c-0.1,0.932-0.273,1.68-0.522,2.242
		c-0.25,0.563-0.532,1.01-0.851,1.341c-0.318,0.332-0.648,0.562-0.993,0.689c-0.344,0.128-0.648,0.226-0.915,0.291l-43.016,8.798
		c-0.82,0.172-1.518,0.363-2.094,0.572c-0.576,0.209-1.06,0.487-1.45,0.834s-0.696,0.78-0.917,1.299
		c-0.22,0.519-0.373,1.175-0.458,1.967c-0.07,0.652,0.006,1.427,0.228,2.322c0.223,0.896,0.601,1.768,1.135,2.614
		c0.534,0.847,1.233,1.588,2.096,2.222c0.863,0.635,1.901,1.017,3.112,1.146c0.747,0.08,1.352,0.044,1.815-0.106
		c0.464-0.15,0.82-0.342,1.069-0.575s0.417-0.48,0.503-0.742c0.087-0.261,0.137-0.451,0.15-0.567
		c0.062-0.583,0.014-1.071-0.144-1.465s-0.331-0.754-0.521-1.082c-0.189-0.326-0.368-0.634-0.538-0.923
		c-0.168-0.289-0.235-0.608-0.197-0.958c0.03-0.279,0.125-0.57,0.288-0.871c0.162-0.3,0.396-0.57,0.705-0.808
		c0.308-0.238,0.699-0.426,1.174-0.564c0.474-0.138,1.038-0.172,1.69-0.102c0.933,0.1,1.717,0.367,2.354,0.8
		c0.638,0.434,1.152,0.96,1.546,1.579c0.394,0.62,0.662,1.309,0.804,2.066c0.144,0.758,0.176,1.499,0.098,2.221
		c-0.119,1.118-0.424,2.093-0.914,2.925c-0.489,0.832-1.104,1.508-1.844,2.03c-0.739,0.522-1.574,0.893-2.505,1.11
		c-0.93,0.219-1.909,0.274-2.935,0.164c-2.424-0.259-4.488-0.952-6.195-2.077c-1.706-1.125-3.083-2.521-4.13-4.189
		s-1.763-3.512-2.148-5.533c-0.385-2.021-0.467-4.068-0.245-6.143c0.25-2.33,0.81-4.203,1.68-5.619
		c0.871-1.415,1.914-2.523,3.131-3.325c1.217-0.8,2.548-1.395,3.992-1.783c1.444-0.388,2.864-0.719,4.261-0.994L47.019,218.891z" class="bxLvKFXT_5"></path>
	<path fill="none" stroke="#FFFFFF" stroke-width="2.8346" d="M47.654,192.082c0.734,0.155,1.553,0.214,2.459,0.178
		c0.906-0.037,1.838-0.169,2.796-0.398c0.959-0.229,1.898-0.563,2.817-1.004c0.919-0.44,1.772-0.992,2.559-1.651
		c0.786-0.661,1.464-1.434,2.034-2.32s0.977-1.901,1.219-3.048c0.169-0.802,0.235-1.567,0.196-2.294
		c-0.038-0.727-0.154-1.422-0.351-2.086c-0.194-0.664-0.446-1.315-0.755-1.955c-0.308-0.641-0.645-1.287-1.011-1.938l1.008-0.686
		c0.6,0.678,1.236,1.518,1.91,2.523c0.675,1.005,1.262,2.17,1.76,3.497s0.829,2.822,0.993,4.485
		c0.164,1.664,0.036,3.493-0.386,5.488c-0.421,1.996-1.191,3.863-2.313,5.602c-1.122,1.74-2.561,3.191-4.314,4.354
		c-1.755,1.163-3.803,1.958-6.145,2.385c-2.342,0.428-4.958,0.337-7.847-0.272c-2.087-0.44-3.946-1.107-5.578-2.003
		c-1.631-0.895-3.051-1.943-4.259-3.145c-1.207-1.201-2.212-2.515-3.013-3.941s-1.41-2.878-1.829-4.356
		c-0.419-1.477-0.659-2.947-0.722-4.41c-0.063-1.463,0.042-2.836,0.313-4.12c0.358-1.697,0.854-3.138,1.486-4.321
		c0.633-1.184,1.348-2.129,2.144-2.836c0.796-0.706,1.646-1.18,2.545-1.42c0.902-0.241,1.799-0.267,2.693-0.079
		c1.079,0.228,1.981,0.742,2.711,1.542c0.729,0.8,1.307,1.785,1.73,2.952L47.654,192.082z M42.13,183.694
		c-0.121-0.336-0.246-0.621-0.377-0.852c-0.131-0.231-0.305-0.43-0.521-0.595c-0.216-0.165-0.496-0.314-0.84-0.447
		c-0.343-0.132-0.778-0.254-1.306-0.365c-0.573-0.121-1.222-0.192-1.949-0.214c-0.726-0.021-1.431,0.052-2.112,0.219
		c-0.682,0.167-1.278,0.438-1.788,0.809c-0.509,0.372-0.833,0.878-0.968,1.521c-0.174,0.826-0.077,1.583,0.293,2.271
		c0.371,0.689,0.905,1.305,1.604,1.848c0.701,0.543,1.526,1.029,2.478,1.457c0.951,0.429,1.919,0.807,2.904,1.134
		c0.986,0.328,1.939,0.601,2.863,0.819c0.924,0.219,1.708,0.396,2.349,0.532L42.13,183.694z" class="bxLvKFXT_6"></path>
	<path fill="none" stroke="#FFFFFF" stroke-width="2.8346" d="M39.404,152.555c-0.149,0.518-0.224,1.027-0.222,1.527
		c0.002,0.501,0.103,0.975,0.303,1.423c0.2,0.448,0.502,0.84,0.904,1.176c0.404,0.336,0.92,0.595,1.551,0.777
		c0.878,0.254,1.844,0.185,2.895-0.207c1.053-0.392,2.184-0.931,3.395-1.618c1.21-0.688,2.478-1.443,3.802-2.269
		c1.324-0.825,2.681-1.555,4.071-2.191c1.391-0.635,2.81-1.091,4.257-1.37c1.446-0.277,2.89-0.208,4.33,0.208
		c1.622,0.469,2.983,1.16,4.085,2.076c1.102,0.917,1.943,2.013,2.526,3.291c0.582,1.278,0.895,2.71,0.937,4.296
		c0.042,1.585-0.193,3.268-0.706,5.046c-0.449,1.554-1.075,2.898-1.879,4.032c-0.803,1.135-1.666,2.098-2.591,2.893
		s-1.848,1.437-2.77,1.926c-0.922,0.49-1.731,0.843-2.428,1.056l-0.503-1.426c0.422-0.195,0.896-0.461,1.42-0.797
		c0.523-0.337,1.034-0.732,1.531-1.186s0.943-0.966,1.34-1.535c0.396-0.569,0.688-1.179,0.877-1.832
		c0.468-1.622,0.463-3.062-0.016-4.323c-0.478-1.26-1.481-2.111-3.013-2.553c-0.855-0.247-1.821-0.22-2.896,0.079
		c-1.075,0.3-2.22,0.738-3.435,1.314c-1.216,0.577-2.484,1.21-3.806,1.902c-1.322,0.692-2.659,1.306-4.009,1.843
		c-1.35,0.538-2.692,0.919-4.026,1.144c-1.333,0.226-2.63,0.156-3.892-0.209c-1.418-0.41-2.573-1.054-3.466-1.934
		c-0.893-0.88-1.55-1.898-1.971-3.058c-0.421-1.158-0.63-2.401-0.625-3.73c0.005-1.327,0.196-2.645,0.573-3.951
		c0.436-1.508,0.968-2.843,1.595-4.004c0.628-1.16,1.346-2.105,2.154-2.836c0.809-0.729,1.7-1.217,2.672-1.46
		s2.011-0.207,3.114,0.112c0.856,0.247,1.518,0.743,1.985,1.488c0.468,0.745,0.556,1.624,0.263,2.637
		c-0.28,0.968-0.7,1.646-1.264,2.032c-0.563,0.386-1.204,0.475-1.925,0.267c-0.473-0.136-0.811-0.362-1.012-0.676
		c-0.202-0.314-0.346-0.642-0.429-0.984c-0.085-0.341-0.155-0.649-0.21-0.92c-0.055-0.272-0.185-0.438-0.387-0.496
		c-0.63-0.182-1.229,0.011-1.795,0.579C40.146,150.683,39.71,151.497,39.404,152.555z" class="bxLvKFXT_7"></path>
	<path fill="none" stroke="#FFFFFF" stroke-width="2.8346" d="M58.367,143.375c-2.875-1.077-5.237-2.437-7.087-4.08
		c-1.849-1.644-3.238-3.434-4.164-5.37c-0.927-1.937-1.407-3.963-1.441-6.077c-0.034-2.115,0.327-4.182,1.083-6.202
		c0.756-2.019,1.814-3.825,3.174-5.418c1.36-1.593,2.992-2.827,4.896-3.703c1.905-0.876,4.073-1.334,6.503-1.375
		c2.431-0.041,5.095,0.481,7.992,1.566c2.875,1.077,5.266,2.448,7.17,4.111c1.904,1.665,3.353,3.477,4.345,5.438
		c0.993,1.961,1.534,4.009,1.623,6.144c0.088,2.136-0.245,4.213-1.002,6.232c-0.755,2.02-1.847,3.813-3.272,5.381
		c-1.425,1.569-3.124,2.779-5.094,3.63c-1.971,0.852-4.199,1.287-6.685,1.308C63.923,144.981,61.243,144.453,58.367,143.375z
		 M65.62,123.004c-1.756-0.658-3.474-1.232-5.154-1.724c-1.68-0.491-3.223-0.8-4.627-0.926c-1.405-0.125-2.609,0-3.613,0.375
		c-1.003,0.375-1.707,1.1-2.109,2.175c-0.403,1.076-0.327,2.093,0.228,3.051c0.555,0.959,1.419,1.858,2.594,2.698
		c1.174,0.84,2.576,1.628,4.202,2.362c1.627,0.735,3.319,1.431,5.074,2.088c1.757,0.658,3.494,1.246,5.215,1.764
		c1.72,0.52,3.304,0.85,4.753,0.992c1.448,0.142,2.696,0.033,3.744-0.325c1.048-0.358,1.772-1.076,2.176-2.151
		c0.402-1.075,0.311-2.099-0.277-3.07c-0.587-0.97-1.496-1.886-2.726-2.747c-1.229-0.86-2.678-1.672-4.344-2.434
		C69.088,124.372,67.377,123.662,65.62,123.004z" class="bxLvKFXT_8"></path>
	<path fill="none" stroke="#FFFFFF" stroke-width="2.8346" d="M96.639,83.996c0.189,0.092,0.4,0.181,0.633,0.267
		c0.231,0.086,0.468,0.135,0.709,0.147c0.241,0.013,0.466-0.035,0.674-0.142c0.208-0.107,0.39-0.319,0.542-0.637
		c0.194-0.4,0.226-0.828,0.094-1.282c-0.132-0.455-0.279-0.89-0.441-1.308l1.032-0.438c0.29,0.531,0.588,1.164,0.897,1.898
		c0.308,0.735,0.541,1.558,0.7,2.467c0.159,0.911,0.192,1.876,0.101,2.9s-0.402,2.083-0.934,3.181
		c-0.448,0.928-0.961,1.677-1.534,2.245c-0.575,0.568-1.183,0.99-1.823,1.266c-0.642,0.275-1.298,0.395-1.969,0.355
		c-0.672-0.038-1.324-0.21-1.957-0.517l-1.424-0.688c0.629,1.606,1.096,3.199,1.399,4.777c0.134,0.69,0.243,1.407,0.326,2.15
		c0.084,0.743,0.119,1.49,0.107,2.239c-0.011,0.75-0.09,1.492-0.237,2.228c-0.147,0.736-0.38,1.431-0.696,2.084
		c-0.612,1.266-1.362,2.238-2.25,2.916c-0.888,0.677-1.832,1.111-2.837,1.303c-1.003,0.191-2.03,0.189-3.081-0.007
		c-1.051-0.195-2.04-0.518-2.97-0.967l-19.59-9.477c-0.188-0.091-0.4-0.18-0.632-0.267s-0.469-0.135-0.709-0.147
		c-0.242-0.013-0.467,0.035-0.675,0.142c-0.208,0.108-0.389,0.319-0.542,0.637c-0.184,0.379-0.212,0.802-0.086,1.267
		c0.127,0.465,0.277,0.896,0.449,1.292l-1.047,0.47c-0.29-0.531-0.589-1.164-0.897-1.899c-0.309-0.735-0.542-1.557-0.7-2.467
		c-0.159-0.91-0.19-1.881-0.094-2.916c0.097-1.033,0.405-2.088,0.926-3.164c0.449-0.928,0.964-1.682,1.543-2.261
		c0.58-0.579,1.187-1,1.823-1.266c0.636-0.265,1.289-0.378,1.961-0.34c0.671,0.039,1.323,0.21,1.956,0.517l21.141,10.227
		c0.296,0.143,0.62,0.241,0.972,0.294c0.352,0.053,0.697,0.051,1.037-0.006s0.655-0.184,0.946-0.382s0.528-0.487,0.712-0.867
		c0.296-0.611,0.434-1.299,0.413-2.065c-0.021-0.765-0.124-1.505-0.313-2.221c-0.187-0.715-0.402-1.36-0.646-1.934
		c-0.244-0.573-0.43-0.995-0.56-1.266l-18.481-8.941c-0.19-0.092-0.401-0.181-0.633-0.267c-0.232-0.086-0.468-0.135-0.71-0.148
		c-0.241-0.012-0.466,0.035-0.674,0.143c-0.208,0.108-0.389,0.319-0.542,0.636c-0.184,0.38-0.212,0.802-0.086,1.268
		c0.127,0.465,0.277,0.895,0.449,1.291l-1.047,0.469c-0.29-0.53-0.589-1.164-0.898-1.898c-0.308-0.735-0.541-1.557-0.7-2.467
		c-0.158-0.909-0.189-1.881-0.093-2.916c0.097-1.033,0.405-2.089,0.926-3.165c0.449-0.928,0.964-1.682,1.542-2.261
		c0.58-0.579,1.188-1.001,1.823-1.267c0.637-0.264,1.291-0.377,1.961-0.34c0.672,0.039,1.324,0.211,1.957,0.517L96.639,83.996z" class="bxLvKFXT_9"></path>
	<path fill="none" stroke="#FFFFFF" stroke-width="2.8346" d="M109.045,68.561c0.264,0.153,0.553,0.379,0.866,0.681
		c0.313,0.302,0.535,0.714,0.668,1.236c0.132,0.522,0.131,1.171-0.004,1.945c-0.135,0.774-0.511,1.7-1.13,2.776
		c-0.62,1.077-1.232,1.847-1.836,2.311c-0.604,0.463-1.165,0.744-1.68,0.839s-0.976,0.074-1.382-0.065
		c-0.407-0.139-0.722-0.273-0.944-0.402L64.29,55.27c-0.589-0.339-1.181-0.497-1.775-0.474c-0.595,0.023-1.079,0.36-1.453,1.01
		c-0.199,0.346-0.314,0.677-0.35,0.995c-0.034,0.318-0.021,0.684,0.039,1.097l-1.082,0.188c-0.117-0.688-0.2-1.425-0.249-2.211
		c-0.049-0.785-0.02-1.6,0.088-2.444c0.106-0.844,0.291-1.705,0.553-2.583c0.261-0.877,0.637-1.742,1.127-2.595
		c0.76-1.321,1.528-2.244,2.305-2.771c0.776-0.527,1.522-0.814,2.239-0.861s1.385,0.06,2.005,0.322
		c0.619,0.262,1.153,0.521,1.6,0.778L109.045,68.561z" class="bxLvKFXT_10"></path>
</g>
<style>.bxLvKFXT_0{stroke-dasharray:234 236;stroke-dashoffset:235;animation:bxLvKFXT_draw 2000ms linear 0ms forwards;}.bxLvKFXT_1{stroke-dasharray:49 51;stroke-dashoffset:50;animation:bxLvKFXT_draw 2000ms linear 100ms forwards;}.bxLvKFXT_2{stroke-dasharray:386 388;stroke-dashoffset:387;animation:bxLvKFXT_draw 2000ms linear 200ms forwards;}.bxLvKFXT_3{stroke-dasharray:225 227;stroke-dashoffset:226;animation:bxLvKFXT_draw 2000ms linear 300ms forwards;}.bxLvKFXT_4{stroke-dasharray:243 245;stroke-dashoffset:244;animation:bxLvKFXT_draw 2000ms linear 400ms forwards;}.bxLvKFXT_5{stroke-dasharray:289 291;stroke-dashoffset:290;animation:bxLvKFXT_draw 2000ms linear 500ms forwards;}.bxLvKFXT_6{stroke-dasharray:175 177;stroke-dashoffset:176;animation:bxLvKFXT_draw 2000ms linear 600ms forwards;}.bxLvKFXT_7{stroke-dasharray:153 155;stroke-dashoffset:154;animation:bxLvKFXT_draw 2000ms linear 700ms forwards;}.bxLvKFXT_8{stroke-dasharray:181 183;stroke-dashoffset:182;animation:bxLvKFXT_draw 2000ms linear 800ms forwards;}.bxLvKFXT_9{stroke-dasharray:212 214;stroke-dashoffset:213;animation:bxLvKFXT_draw 2000ms linear 900ms forwards;}.bxLvKFXT_10{stroke-dasharray:133 135;stroke-dashoffset:134;animation:bxLvKFXT_draw 2000ms linear 1000ms forwards;}@keyframes bxLvKFXT_draw{100%{stroke-dashoffset:0;}}@keyframes bxLvKFXT_fade{0%{stroke-opacity:1;}94.44444444444444%{stroke-opacity:1;}100%{stroke-opacity:0;}}</style></svg>
