<!--?xml version="1.0" encoding="utf-8"?-->
<!-- Generator: Adobe Illustrator 16.0.0, SVG Export Plug-In . SVG Version: 6.00 Build 0)  -->

<svg version="1.1" id="Calque_1" xmlns="http://www.w3.org/2000/svg" xmlns:xlink="http://www.w3.org/1999/xlink" x="0px" y="0px" width="148px" height="532px" viewBox="0 0 148 532" enable-background="new 0 0 148 532" xml:space="preserve" style="">
<g>
	<path fill="none" stroke="#000000" stroke-width="2.8346" d="M17.756,59.995c2.258-0.612,4.743-1.336,7.46-2.172
		c2.716-0.836,5.416-1.754,8.1-2.754c2.684-1,5.226-2.064,7.626-3.191s4.422-2.295,6.064-3.504c1.246-0.917,2.222-1.766,2.927-2.548
		c0.706-0.781,1.257-1.485,1.653-2.112c0.397-0.626,0.713-1.157,0.945-1.591c0.234-0.434,0.502-0.762,0.804-0.984
		c0.397-0.292,0.812-0.43,1.245-0.415s0.862,0.114,1.288,0.296c0.425,0.182,0.819,0.43,1.182,0.745
		c0.362,0.314,0.669,0.642,0.92,0.982c0.555,0.754,0.911,1.476,1.066,2.161s0.036,1.333-0.358,1.944
		c-0.213,0.303-0.455,0.598-0.725,0.883c-0.27,0.286-0.541,0.552-0.813,0.795s-0.535,0.459-0.79,0.646s-0.458,0.337-0.608,0.448
		c-0.793,0.583-1.976,1.251-3.548,2c-1.572,0.75-3.391,1.542-5.452,2.377c-2.064,0.835-4.301,1.688-6.714,2.563
		s-4.854,1.739-7.321,2.597c-2.471,0.856-4.902,1.673-7.301,2.449c-2.397,0.775-4.621,1.481-6.67,2.117
		c-2.049,0.636-3.851,1.184-5.404,1.644c-1.555,0.459-2.724,0.788-3.508,0.988c-0.559,0.149-1.064,0.194-1.516,0.134
		c-0.453-0.06-0.867-0.199-1.245-0.416c-0.377-0.217-0.732-0.501-1.064-0.853c-0.332-0.353-0.65-0.736-0.956-1.151
		c-0.557-0.755-0.933-1.424-1.129-2.007c-0.195-0.583-0.289-1.104-0.277-1.563c0.01-0.46,0.1-0.853,0.267-1.179
		c0.167-0.326,0.326-0.604,0.479-0.832l25.791-35.533c0.489-0.68,0.876-1.292,1.159-1.835c0.282-0.543,0.452-1.076,0.506-1.595
		c0.055-0.52-0.013-1.046-0.2-1.577c-0.188-0.531-0.518-1.118-0.99-1.76c-0.389-0.528-0.968-1.048-1.736-1.559
		c-0.769-0.511-1.637-0.898-2.602-1.162c-0.967-0.264-1.98-0.339-3.046-0.225c-1.065,0.115-2.09,0.534-3.069,1.256
		c-0.605,0.445-1.028,0.879-1.268,1.304c-0.241,0.425-0.374,0.807-0.4,1.146c-0.027,0.339,0.016,0.635,0.128,0.887
		c0.112,0.252,0.204,0.425,0.274,0.52c0.348,0.472,0.711,0.8,1.094,0.983c0.383,0.184,0.754,0.333,1.115,0.446
		c0.36,0.113,0.699,0.22,1.021,0.318c0.319,0.099,0.584,0.29,0.794,0.573c0.165,0.227,0.29,0.505,0.375,0.836
		c0.084,0.331,0.092,0.688,0.025,1.073c-0.067,0.384-0.229,0.786-0.485,1.208s-0.65,0.828-1.179,1.217
		c-0.754,0.556-1.514,0.889-2.275,1c-0.764,0.11-1.499,0.07-2.208-0.122c-0.708-0.192-1.371-0.519-1.987-0.981
		c-0.618-0.462-1.143-0.986-1.573-1.571c-0.667-0.906-1.1-1.831-1.3-2.775c-0.2-0.944-0.205-1.857-0.012-2.742
		c0.193-0.885,0.56-1.722,1.099-2.512s1.225-1.49,2.055-2.102c1.963-1.445,3.954-2.329,5.974-2.65
		c2.017-0.322,3.977-0.222,5.875,0.302s3.671,1.4,5.32,2.631c1.648,1.231,3.091,2.687,4.327,4.367
		c1.39,1.887,2.241,3.646,2.556,5.278c0.313,1.633,0.291,3.154-0.065,4.567c-0.358,1.413-0.938,2.749-1.741,4.01
		c-0.804,1.261-1.629,2.464-2.472,3.61L17.756,59.995z" class="soINmxUK_0"></path>
	<path fill="none" stroke="#000000" stroke-width="2.8346" d="M31.298,69.495c2.652-1.546,5.201-2.515,7.645-2.907
		c2.442-0.393,4.708-0.335,6.794,0.171c2.085,0.508,3.958,1.417,5.617,2.729c1.658,1.312,3.031,2.898,4.117,4.762
		c1.085,1.863,1.814,3.825,2.188,5.886c0.372,2.062,0.296,4.106-0.23,6.135c-0.527,2.029-1.544,3.998-3.049,5.906
		c-1.507,1.908-3.596,3.641-6.27,5.198c-2.653,1.546-5.226,2.529-7.72,2.952c-2.494,0.421-4.814,0.396-6.96-0.075
		c-2.146-0.473-4.075-1.349-5.786-2.631c-1.708-1.283-3.106-2.855-4.192-4.719c-1.085-1.863-1.783-3.843-2.097-5.939
		c-0.313-2.096-0.175-4.177,0.412-6.241c0.587-2.065,1.66-4.066,3.217-6.003C26.539,72.781,28.646,71.04,31.298,69.495z
		 M42.485,87.999c1.62-0.943,3.151-1.91,4.597-2.9c1.442-0.991,2.657-1.99,3.645-2.999c0.984-1.008,1.65-2.019,1.995-3.034
		c0.345-1.014,0.229-2.018-0.351-3.01c-0.577-0.992-1.413-1.577-2.506-1.754c-1.094-0.177-2.337-0.077-3.73,0.302
		c-1.395,0.378-2.89,0.965-4.488,1.76c-1.598,0.796-3.208,1.666-4.826,2.608c-1.622,0.944-3.176,1.918-4.666,2.922
		s-2.749,2.021-3.775,3.054c-1.025,1.031-1.732,2.067-2.117,3.104c-0.386,1.039-0.289,2.054,0.289,3.047
		c0.578,0.991,1.429,1.567,2.553,1.727c1.123,0.159,2.407,0.035,3.852-0.372c1.444-0.408,2.988-1.016,4.634-1.825
		C39.233,89.819,40.866,88.943,42.485,87.999z" class="soINmxUK_1"></path>
	<path fill="none" stroke="#000000" stroke-width="2.8346" d="M53.029,136.711c-0.191,0.088-0.394,0.195-0.606,0.32
		c-0.214,0.124-0.402,0.276-0.564,0.455c-0.163,0.179-0.269,0.383-0.317,0.612c-0.048,0.229,0.002,0.503,0.15,0.822
		c0.186,0.403,0.497,0.699,0.932,0.885c0.436,0.186,0.865,0.348,1.291,0.487l-0.314,1.076c-0.594-0.112-1.273-0.281-2.037-0.509
		c-0.765-0.227-1.549-0.567-2.354-1.021s-1.573-1.041-2.307-1.759c-0.734-0.72-1.357-1.632-1.869-2.737
		c-0.435-0.937-0.688-1.807-0.765-2.61c-0.077-0.805-0.017-1.542,0.176-2.213c0.193-0.671,0.517-1.253,0.973-1.749
		c0.453-0.495,1.001-0.89,1.638-1.186l1.437-0.665c-1.641-0.531-3.169-1.18-4.582-1.945c-0.619-0.333-1.243-0.703-1.87-1.109
		c-0.628-0.407-1.229-0.853-1.801-1.336c-0.574-0.484-1.098-1.016-1.572-1.596c-0.477-0.581-0.867-1.201-1.173-1.859
		c-0.591-1.276-0.868-2.472-0.83-3.587c0.038-1.116,0.302-2.122,0.79-3.02s1.141-1.691,1.959-2.38
		c0.816-0.689,1.693-1.25,2.629-1.684l19.744-9.151c0.191-0.089,0.394-0.196,0.607-0.321c0.214-0.124,0.401-0.276,0.564-0.455
		c0.161-0.179,0.268-0.383,0.316-0.612c0.049-0.229-0.001-0.503-0.148-0.822c-0.177-0.383-0.486-0.673-0.926-0.869
		c-0.44-0.197-0.868-0.354-1.283-0.471l0.3-1.108c0.594,0.113,1.273,0.282,2.037,0.509c0.765,0.228,1.548,0.568,2.353,1.022
		c0.805,0.453,1.576,1.045,2.315,1.775c0.738,0.729,1.359,1.637,1.861,2.722c0.434,0.936,0.69,1.812,0.771,2.626
		c0.081,0.815,0.021,1.553-0.176,2.212s-0.524,1.238-0.979,1.733c-0.455,0.495-1.002,0.891-1.64,1.186l-21.307,9.875
		c-0.298,0.138-0.579,0.327-0.843,0.565c-0.265,0.239-0.482,0.508-0.653,0.807c-0.172,0.298-0.272,0.624-0.304,0.974
		c-0.031,0.351,0.042,0.717,0.219,1.1c0.285,0.616,0.73,1.159,1.336,1.627c0.604,0.469,1.243,0.858,1.916,1.167
		c0.673,0.308,1.307,0.549,1.905,0.725c0.598,0.175,1.042,0.298,1.334,0.37l18.628-8.633c0.19-0.089,0.395-0.196,0.607-0.32
		c0.213-0.125,0.4-0.277,0.563-0.455c0.162-0.179,0.269-0.383,0.316-0.612c0.049-0.229-0.001-0.503-0.148-0.822
		c-0.177-0.383-0.486-0.673-0.925-0.87c-0.439-0.196-0.868-0.353-1.284-0.47l0.3-1.108c0.594,0.112,1.273,0.282,2.037,0.509
		c0.765,0.227,1.549,0.567,2.354,1.021s1.576,1.046,2.314,1.775s1.359,1.637,1.861,2.722c0.435,0.935,0.69,1.811,0.772,2.626
		c0.08,0.815,0.021,1.552-0.175,2.212c-0.199,0.66-0.525,1.238-0.98,1.733c-0.456,0.495-1.001,0.89-1.64,1.185L53.029,136.711z" class="soINmxUK_2"></path>
	<path fill="none" stroke="#000000" stroke-width="2.8346" d="M85.878,145.844c-0.187-0.506-0.429-0.96-0.727-1.362
		c-0.298-0.403-0.661-0.725-1.087-0.968s-0.901-0.38-1.425-0.412c-0.524-0.031-1.095,0.066-1.709,0.292
		c-0.857,0.316-1.596,0.942-2.212,1.881c-0.615,0.938-1.209,2.043-1.777,3.313s-1.142,2.631-1.72,4.08
		c-0.577,1.449-1.239,2.841-1.984,4.177c-0.745,1.335-1.616,2.543-2.618,3.623s-2.206,1.88-3.613,2.398
		c-1.584,0.583-3.09,0.831-4.521,0.746s-2.758-0.471-3.984-1.156c-1.226-0.685-2.326-1.653-3.299-2.906
		c-0.972-1.253-1.779-2.748-2.419-4.485c-0.559-1.518-0.851-2.972-0.874-4.361c-0.024-1.39,0.1-2.678,0.375-3.865
		c0.275-1.188,0.638-2.252,1.092-3.193c0.453-0.94,0.896-1.703,1.331-2.287l1.25,0.851c-0.225,0.407-0.45,0.902-0.672,1.483
		c-0.224,0.582-0.401,1.202-0.533,1.863c-0.13,0.66-0.188,1.337-0.17,2.03c0.018,0.692,0.145,1.358,0.379,1.996
		c0.583,1.583,1.439,2.741,2.571,3.475c1.131,0.732,2.444,0.823,3.94,0.272c0.836-0.308,1.598-0.9,2.286-1.777
		c0.688-0.878,1.352-1.909,1.99-3.093c0.637-1.184,1.284-2.446,1.94-3.786c0.654-1.341,1.368-2.627,2.139-3.859
		c0.77-1.232,1.625-2.334,2.566-3.305s2.027-1.683,3.26-2.137c1.386-0.51,2.699-0.675,3.938-0.494c1.241,0.18,2.374,0.612,3.4,1.296
		c1.025,0.684,1.93,1.563,2.711,2.636c0.782,1.072,1.408,2.247,1.878,3.523c0.542,1.473,0.904,2.863,1.086,4.17
		c0.181,1.307,0.161,2.494-0.057,3.562c-0.221,1.067-0.65,1.986-1.289,2.759c-0.64,0.773-1.499,1.357-2.577,1.754
		c-0.835,0.307-1.662,0.299-2.48-0.024c-0.817-0.323-1.408-0.979-1.773-1.969c-0.349-0.946-0.411-1.741-0.186-2.387
		c0.225-0.644,0.689-1.095,1.394-1.355c0.462-0.169,0.868-0.188,1.216-0.054c0.35,0.134,0.659,0.313,0.93,0.539
		c0.269,0.225,0.508,0.431,0.714,0.617c0.206,0.187,0.408,0.244,0.605,0.17c0.615-0.227,0.984-0.736,1.104-1.53
		C86.388,147.791,86.258,146.877,85.878,145.844z" class="soINmxUK_3"></path>
	<path fill="none" stroke="#000000" stroke-width="2.8346" d="M61.443,198.392c0.22,0.911,0.604,1.771,1.147,2.58
		c0.545,0.808,1.283,1.467,2.215,1.979c0.931,0.509,2.063,0.833,3.398,0.969c1.335,0.135,2.892-0.012,4.667-0.442
		c1.914-0.463,3.656-1.385,5.228-2.765c1.571-1.381,3.057-2.993,4.454-4.839c1.398-1.846,2.758-3.802,4.079-5.869
		c1.319-2.067,2.703-4.029,4.147-5.885c1.443-1.856,3.002-3.487,4.676-4.892s3.547-2.358,5.62-2.86
		c2.073-0.501,4.038-0.573,5.898-0.214c1.858,0.357,3.532,1.05,5.023,2.076c1.49,1.026,2.764,2.334,3.823,3.922
		c1.059,1.589,1.828,3.375,2.308,5.356c0.514,2.119,0.746,4.057,0.702,5.817c-0.046,1.759-0.311,3.305-0.795,4.641
		c-0.486,1.335-1.175,2.424-2.068,3.267c-0.894,0.844-1.92,1.405-3.082,1.686c-0.547,0.133-1.13,0.188-1.75,0.17
		c-0.619-0.019-1.209-0.142-1.771-0.368c-0.561-0.226-1.064-0.563-1.51-1.01c-0.446-0.446-0.753-1.023-0.926-1.729
		c-0.202-0.844-0.098-1.526,0.319-2.049c0.416-0.523,0.977-0.972,1.682-1.347c0.705-0.375,1.49-0.74,2.357-1.095
		s1.641-0.77,2.321-1.249c0.68-0.478,1.204-1.075,1.573-1.791c0.37-0.716,0.417-1.644,0.142-2.783
		c-0.149-0.615-0.433-1.191-0.853-1.729c-0.419-0.538-0.967-0.983-1.644-1.339c-0.677-0.354-1.484-0.575-2.421-0.662
		c-0.937-0.087-1.998,0.013-3.183,0.299c-1.367,0.331-2.631,0.938-3.791,1.821c-1.161,0.883-2.261,1.944-3.3,3.185
		c-1.038,1.239-2.045,2.61-3.021,4.111c-0.975,1.502-1.957,3.029-2.943,4.582c-0.987,1.554-2.014,3.092-3.079,4.615
		c-1.066,1.523-2.216,2.929-3.448,4.216c-1.231,1.285-2.576,2.407-4.033,3.362c-1.457,0.954-3.063,1.645-4.816,2.068
		c-2.575,0.622-4.989,0.683-7.245,0.179s-4.277-1.438-6.066-2.801c-1.789-1.364-3.322-3.098-4.603-5.198
		c-1.279-2.103-2.231-4.441-2.853-7.015c-0.563-2.324-0.77-4.451-0.621-6.379c0.148-1.929,0.553-3.624,1.211-5.086
		c0.66-1.461,1.523-2.652,2.591-3.573c1.067-0.922,2.25-1.539,3.55-1.854c0.547-0.132,1.152-0.188,1.82-0.169
		c0.667,0.02,1.304,0.131,1.907,0.335c0.604,0.203,1.144,0.513,1.618,0.929c0.474,0.416,0.79,0.954,0.95,1.615
		c0.165,0.683,0.128,1.276-0.111,1.78s-0.614,0.95-1.122,1.339c-0.51,0.389-1.11,0.75-1.8,1.086c-0.691,0.336-1.39,0.686-2.098,1.05
		c-0.708,0.364-1.393,0.771-2.056,1.221c-0.663,0.45-1.221,0.982-1.676,1.599c-0.453,0.616-0.76,1.342-0.92,2.176
		C61.109,196.266,61.168,197.253,61.443,198.392z" class="soINmxUK_4"></path>
	<path fill="none" stroke="#000000" stroke-width="2.8346" d="M89.385,216.546c3.035-0.454,5.761-0.413,8.176,0.126
		s4.498,1.43,6.248,2.673c1.75,1.242,3.153,2.781,4.209,4.612c1.058,1.832,1.745,3.814,2.065,5.948
		c0.318,2.132,0.271,4.225-0.144,6.278c-0.416,2.052-1.243,3.924-2.484,5.614c-1.239,1.691-2.911,3.144-5.016,4.36
		c-2.104,1.215-4.688,2.053-7.746,2.511c-3.037,0.455-5.793,0.418-8.266-0.113c-2.473-0.53-4.618-1.411-6.438-2.644
		c-1.819-1.232-3.288-2.76-4.401-4.584c-1.113-1.823-1.831-3.803-2.15-5.934c-0.32-2.133-0.236-4.23,0.247-6.295
		c0.485-2.063,1.383-3.945,2.691-5.646c1.31-1.702,3.046-3.165,5.208-4.389C83.746,217.841,86.347,217.002,89.385,216.546z
		 M92.934,237.877c1.854-0.278,3.635-0.61,5.343-0.996c1.708-0.387,3.207-0.865,4.495-1.438c1.289-0.571,2.281-1.265,2.977-2.08
		s0.959-1.791,0.789-2.927c-0.172-1.136-0.731-1.988-1.682-2.557s-2.143-0.936-3.576-1.1c-1.436-0.164-3.042-0.172-4.82-0.023
		c-1.781,0.146-3.597,0.361-5.45,0.639c-1.855,0.277-3.661,0.605-5.415,0.988c-1.756,0.381-3.302,0.862-4.637,1.441
		c-1.336,0.579-2.374,1.279-3.116,2.102s-1.028,1.801-0.856,2.937c0.169,1.135,0.746,1.985,1.731,2.55
		c0.985,0.563,2.224,0.922,3.717,1.078c1.493,0.155,3.151,0.162,4.979,0.018C89.238,238.365,91.08,238.154,92.934,237.877z" class="soINmxUK_5"></path>
	<path fill="none" stroke="#000000" stroke-width="2.8346" d="M84.732,287.032c-0.211,0.013-0.438,0.036-0.684,0.073
		s-0.475,0.109-0.692,0.215c-0.218,0.106-0.39,0.256-0.52,0.451c-0.131,0.195-0.186,0.468-0.167,0.819
		c0.024,0.444,0.205,0.834,0.541,1.167c0.336,0.334,0.675,0.643,1.02,0.93l-0.689,0.884c-0.512-0.325-1.08-0.733-1.707-1.226
		c-0.625-0.494-1.229-1.101-1.808-1.818c-0.58-0.72-1.079-1.549-1.494-2.488c-0.416-0.939-0.657-2.018-0.726-3.234
		c-0.057-1.029,0.027-1.932,0.255-2.707c0.226-0.776,0.553-1.439,0.98-1.992c0.427-0.551,0.943-0.974,1.548-1.266
		c0.606-0.291,1.261-0.457,1.963-0.495l1.58-0.089c-1.329-1.1-2.509-2.267-3.54-3.5c-0.452-0.538-0.895-1.112-1.327-1.722
		c-0.434-0.609-0.827-1.245-1.181-1.906c-0.354-0.661-0.645-1.35-0.872-2.064s-0.361-1.436-0.402-2.16
		c-0.077-1.405,0.108-2.618,0.556-3.64c0.447-1.023,1.063-1.861,1.849-2.516c0.786-0.654,1.686-1.149,2.699-1.487
		c1.015-0.338,2.036-0.536,3.066-0.593l21.728-1.209c0.21-0.012,0.438-0.037,0.683-0.073c0.244-0.037,0.475-0.108,0.691-0.214
		c0.217-0.106,0.391-0.257,0.521-0.453c0.129-0.194,0.186-0.467,0.166-0.818c-0.023-0.421-0.204-0.805-0.541-1.148
		c-0.336-0.346-0.675-0.649-1.019-0.912l0.688-0.919c0.512,0.324,1.08,0.732,1.707,1.226c0.625,0.494,1.228,1.099,1.808,1.818
		c0.58,0.719,1.078,1.555,1.495,2.505c0.416,0.951,0.659,2.023,0.725,3.216c0.058,1.031-0.027,1.939-0.253,2.727
		c-0.227,0.787-0.554,1.45-0.98,1.99c-0.429,0.541-0.945,0.957-1.55,1.249c-0.606,0.292-1.261,0.457-1.963,0.496l-23.448,1.304
		c-0.328,0.018-0.658,0.09-0.991,0.214s-0.636,0.293-0.904,0.508c-0.27,0.214-0.485,0.479-0.644,0.793s-0.226,0.682-0.202,1.103
		c0.037,0.679,0.251,1.348,0.64,2.007c0.389,0.658,0.838,1.256,1.35,1.792c0.511,0.534,1.011,0.994,1.502,1.377
		c0.49,0.383,0.858,0.662,1.103,0.837l20.5-1.14c0.211-0.012,0.438-0.037,0.683-0.074c0.245-0.037,0.475-0.108,0.692-0.215
		c0.217-0.105,0.391-0.256,0.52-0.45c0.131-0.196,0.186-0.468,0.167-0.82c-0.023-0.421-0.204-0.804-0.54-1.149
		c-0.335-0.345-0.676-0.648-1.019-0.911l0.688-0.918c0.511,0.323,1.079,0.731,1.705,1.226c0.627,0.493,1.229,1.098,1.809,1.817
		s1.078,1.554,1.496,2.506c0.416,0.95,0.658,2.022,0.724,3.216c0.058,1.03-0.027,1.938-0.253,2.725
		c-0.228,0.788-0.553,1.452-0.98,1.991c-0.428,0.541-0.945,0.956-1.55,1.249c-0.607,0.291-1.261,0.457-1.962,0.497L84.732,287.032z" class="soINmxUK_6"></path>
	<path fill="none" stroke="#000000" stroke-width="2.8346" d="M108.026,307.362c1.206,0.915,2.28,1.943,3.22,3.084
		c0.404,0.462,0.793,0.976,1.17,1.542c0.376,0.566,0.709,1.166,1.001,1.799c0.291,0.633,0.517,1.299,0.678,1.998
		c0.159,0.698,0.224,1.41,0.195,2.137c-0.063,1.568-0.424,2.961-1.081,4.179c-0.659,1.217-1.719,2.219-3.182,3.005
		c-1.461,0.785-3.379,1.354-5.75,1.705c-2.371,0.351-5.302,0.457-8.791,0.317c-3.396-0.135-6.335-0.558-8.816-1.267
		c-2.48-0.709-4.581-1.59-6.298-2.644s-3.106-2.224-4.17-3.509c-1.063-1.286-1.886-2.574-2.468-3.863
		c-0.581-1.29-0.972-2.525-1.171-3.706s-0.293-2.192-0.283-3.037l1.455-0.294c0.216,1.064,0.657,2.021,1.327,2.868
		c0.669,0.848,1.797,1.585,3.378,2.211s3.724,1.139,6.43,1.54c2.705,0.401,6.2,0.688,10.486,0.858
		c2.95,0.118,5.315,0.077,7.094-0.121c1.779-0.199,3.14-0.497,4.082-0.893c0.942-0.396,1.57-0.864,1.886-1.403
		c0.314-0.538,0.482-1.088,0.506-1.65c0.027-0.68-0.131-1.284-0.474-1.814c-0.343-0.529-0.74-0.996-1.192-1.401
		c-0.454-0.405-0.908-0.752-1.367-1.039c-0.458-0.289-0.8-0.53-1.025-0.728L81.399,306.3c-0.306-0.013-0.672-0.073-1.101-0.185
		c-0.432-0.111-0.831-0.355-1.203-0.734c-0.372-0.378-0.678-0.931-0.918-1.654c-0.24-0.726-0.338-1.709-0.288-2.95
		s0.235-2.219,0.558-2.933c0.32-0.715,0.688-1.246,1.102-1.592c0.411-0.348,0.832-0.561,1.257-0.637
		c0.425-0.077,0.766-0.109,1.023-0.1l45.316,1.809c0.679,0.027,1.275-0.107,1.792-0.404c0.518-0.296,0.789-0.818,0.82-1.568
		c0.016-0.398-0.036-0.746-0.152-1.043c-0.117-0.299-0.299-0.616-0.543-0.954l0.871-0.669c0.424,0.556,0.839,1.17,1.246,1.844
		c0.406,0.673,0.759,1.408,1.056,2.206c0.296,0.798,0.532,1.646,0.708,2.544c0.174,0.897,0.242,1.84,0.204,2.822
		c-0.062,1.522-0.313,2.697-0.757,3.523c-0.444,0.827-0.972,1.428-1.586,1.802c-0.612,0.374-1.254,0.589-1.925,0.645
		c-0.67,0.056-1.263,0.073-1.778,0.053L108.026,307.362z" class="soINmxUK_7"></path>
	<path fill="none" stroke="#000000" stroke-width="2.8346" d="M108.782,346.949c0.104-0.791,0.106-1.535,0.009-2.232
		c-0.098-0.699-0.253-1.311-0.469-1.835c-0.215-0.524-0.472-0.948-0.772-1.271s-0.603-0.505-0.903-0.544
		c-0.35-0.047-0.623,0.101-0.82,0.441c-0.199,0.34-0.426,0.719-0.681,1.135c-0.256,0.415-0.588,0.779-0.995,1.093
		c-0.407,0.313-0.981,0.421-1.727,0.323c-0.486-0.064-0.922-0.223-1.303-0.473c-0.381-0.251-0.706-0.565-0.976-0.943
		c-0.271-0.378-0.462-0.805-0.576-1.281c-0.115-0.477-0.14-0.957-0.076-1.446c0.171-1.302,0.749-2.294,1.738-2.979
		c0.987-0.688,2.214-0.934,3.679-0.742c1.416,0.187,2.582,0.717,3.496,1.593c0.913,0.877,1.615,1.956,2.109,3.238
		c0.494,1.281,0.799,2.698,0.915,4.25c0.115,1.552,0.075,3.082-0.124,4.593c-0.236,1.813-0.661,3.519-1.272,5.117
		c-0.612,1.598-1.431,2.974-2.456,4.128c-1.026,1.152-2.252,2.021-3.676,2.604c-1.423,0.581-3.075,0.747-4.958,0.501l-19.694-2.582
		c-0.209-0.027-0.443-0.046-0.701-0.057c-0.26-0.01-0.499,0.018-0.721,0.084c-0.222,0.064-0.414,0.181-0.578,0.35
		c-0.164,0.166-0.268,0.425-0.314,0.773c-0.055,0.418,0.052,0.828,0.318,1.229c0.266,0.401,0.543,0.763,0.833,1.085l-0.847,0.775
		c-0.442-0.414-0.922-0.901-1.439-1.466c-0.517-0.564-0.985-1.229-1.404-1.992c-0.421-0.765-0.743-1.635-0.971-2.608
		c-0.227-0.977-0.262-2.057-0.107-3.241c0.193-1.464,0.799-2.71,1.82-3.733c1.021-1.024,2.46-1.592,4.318-1.703
		c-0.902-0.875-1.639-1.757-2.206-2.646c-0.569-0.891-1.007-1.781-1.316-2.672c-0.308-0.892-0.5-1.774-0.574-2.646
		c-0.074-0.873-0.056-1.739,0.058-2.6c0.146-1.114,0.462-2.173,0.947-3.173c0.485-0.999,1.16-1.862,2.024-2.588
		c0.862-0.727,1.931-1.26,3.205-1.602c1.273-0.342,2.782-0.397,4.526-0.169c2.113,0.277,3.79,0.923,5.027,1.936
		c1.238,1.014,2.228,2.261,2.968,3.74c0.739,1.479,1.321,3.128,1.744,4.943c0.423,1.816,0.877,3.68,1.36,5.587
		c0.357,1.417,1.023,2.504,2.002,3.259c0.976,0.754,2.022,1.204,3.138,1.351c1.72,0.226,3.162-0.1,4.329-0.976
		C107.856,350,108.554,348.691,108.782,346.949z M92.788,350.488c0.581,0.077,1.047-0.051,1.397-0.383
		c0.352-0.333,0.564-0.789,0.641-1.37c0.107-0.814,0.021-1.611-0.254-2.392c-0.275-0.781-0.737-1.496-1.384-2.148
		c-0.647-0.652-1.479-1.212-2.494-1.675c-1.015-0.464-2.219-0.787-3.612-0.97c-1.35-0.178-2.477-0.225-3.387-0.143
		c-0.909,0.08-1.646,0.257-2.214,0.525c-0.566,0.268-0.983,0.609-1.251,1.023c-0.266,0.413-0.432,0.865-0.496,1.354
		c-0.079,0.604,0.004,1.193,0.247,1.77c0.243,0.575,0.583,1.092,1.02,1.552c0.437,0.459,0.94,0.844,1.515,1.155
		c0.574,0.313,1.162,0.508,1.768,0.587L92.788,350.488z" class="soINmxUK_8"></path>
	<path fill="none" stroke="#000000" stroke-width="2.8346" d="M72.612,378.595c-0.299-0.06-0.649-0.186-1.055-0.373
		c-0.404-0.188-0.757-0.512-1.061-0.967s-0.515-1.065-0.636-1.831s-0.06-1.758,0.186-2.976c0.244-1.218,0.58-2.142,1.005-2.773
		c0.427-0.632,0.868-1.081,1.329-1.347c0.46-0.268,0.905-0.398,1.335-0.395c0.43,0.002,0.771,0.028,1.023,0.08l26.608,5.348
		c0.666,0.134,1.277,0.096,1.835-0.115c0.556-0.212,0.907-0.685,1.055-1.42c0.079-0.39,0.077-0.736-0.005-1.041
		c-0.082-0.303-0.219-0.641-0.406-1.014l1.007-0.55c0.331,0.615,0.643,1.294,0.936,2.034c0.294,0.74,0.525,1.521,0.694,2.345
		s0.27,1.691,0.301,2.606s-0.05,1.854-0.244,2.82c-0.3,1.492-0.734,2.613-1.302,3.36c-0.569,0.745-1.186,1.255-1.85,1.528
		c-0.665,0.273-1.338,0.381-2.021,0.329c-0.684-0.054-1.276-0.132-1.783-0.233L72.612,378.595z M115.486,375.092
		c0.643,0.129,1.229,0.396,1.758,0.802s0.959,0.909,1.291,1.515c0.333,0.604,0.557,1.271,0.674,2
		c0.117,0.729,0.095,1.494-0.066,2.299c-0.157,0.781-0.431,1.485-0.819,2.113c-0.391,0.626-0.853,1.148-1.391,1.566
		c-0.539,0.418-1.13,0.711-1.773,0.881c-0.645,0.169-1.287,0.189-1.931,0.061c-0.667-0.134-1.258-0.403-1.774-0.805
		c-0.517-0.404-0.938-0.9-1.26-1.49c-0.325-0.592-0.544-1.252-0.661-1.98c-0.116-0.729-0.097-1.482,0.061-2.264
		c0.162-0.805,0.438-1.521,0.826-2.146c0.39-0.628,0.848-1.157,1.377-1.59c0.529-0.431,1.109-0.732,1.742-0.904
		C114.171,374.977,114.82,374.959,115.486,375.092z" class="soINmxUK_9"></path>
	<path fill="none" stroke="#000000" stroke-width="2.8346" d="M97.321,405.279l-25.159-6.482c-1.203-0.31-2.096-0.298-2.678,0.037
		c-0.582,0.334-0.976,0.897-1.18,1.692c-0.158,0.613-0.129,1.201,0.09,1.766c0.217,0.565,0.498,1.073,0.842,1.524
		c0.371,0.531,0.836,1.026,1.396,1.485l-0.748,0.933c-0.641-0.528-1.331-1.136-2.072-1.823c-0.743-0.688-1.384-1.513-1.922-2.474
		c-0.539-0.963-0.908-2.091-1.106-3.388c-0.196-1.299-0.069-2.833,0.388-4.604c0.256-0.998,0.65-1.919,1.184-2.763
		c0.531-0.842,1.207-1.539,2.027-2.091c0.818-0.551,1.762-0.92,2.825-1.104c1.064-0.187,2.266-0.107,3.604,0.238l25.228,6.499
		l0.982-3.813l2.45,0.631c-0.163,0.636-0.227,1.563-0.189,2.783s0.287,2.525,0.752,3.915c0.465,1.391,1.213,2.763,2.243,4.117
		c1.031,1.354,2.443,2.493,4.239,3.416l-0.702,2.724l-10.043-2.588l-1.429,5.549c-0.469,1.816-0.396,2.803,0.217,2.961
		c0.228,0.059,0.409-0.016,0.548-0.223c0.137-0.206,0.306-0.436,0.504-0.687c0.197-0.251,0.438-0.462,0.725-0.63
		c0.286-0.169,0.688-0.186,1.211-0.051c0.636,0.163,1.084,0.49,1.346,0.981c0.26,0.491,0.31,1.054,0.145,1.69
		c-0.105,0.407-0.282,0.743-0.531,1.006s-0.542,0.46-0.878,0.59c-0.337,0.131-0.699,0.201-1.089,0.21
		c-0.39,0.008-0.767-0.033-1.129-0.127c-1.476-0.381-2.54-1.108-3.194-2.185c-0.655-1.076-0.739-2.557-0.255-4.44L97.321,405.279z" class="soINmxUK_10"></path>
	<path fill="none" stroke="#000000" stroke-width="2.8346" d="M74.484,421.477c-0.712-0.236-1.52-0.387-2.423-0.452
		c-0.905-0.065-1.847-0.038-2.825,0.083c-0.978,0.119-1.947,0.348-2.911,0.682c-0.962,0.335-1.872,0.788-2.727,1.356
		c-0.855,0.567-1.616,1.261-2.281,2.077c-0.666,0.815-1.183,1.78-1.552,2.893c-0.258,0.778-0.409,1.531-0.452,2.258
		s-0.005,1.431,0.114,2.111c0.12,0.682,0.297,1.358,0.531,2.028c0.235,0.671,0.498,1.351,0.788,2.038l-1.078,0.57
		c-0.52-0.741-1.059-1.647-1.616-2.722s-1.01-2.298-1.357-3.672c-0.347-1.374-0.508-2.897-0.485-4.568
		c0.023-1.673,0.355-3.476,0.997-5.411s1.617-3.704,2.927-5.308c1.31-1.603,2.9-2.884,4.774-3.843
		c1.873-0.96,3.997-1.521,6.373-1.684c2.374-0.164,4.963,0.219,7.768,1.148c2.023,0.672,3.797,1.543,5.317,2.615
		c1.521,1.071,2.815,2.271,3.881,3.601c1.065,1.328,1.917,2.747,2.553,4.255c0.636,1.506,1.079,3.018,1.331,4.532
		c0.25,1.517,0.324,3.004,0.224,4.464c-0.102,1.46-0.358,2.813-0.771,4.06c-0.546,1.646-1.199,3.021-1.961,4.127
		s-1.576,1.965-2.446,2.578s-1.768,0.988-2.689,1.128c-0.923,0.138-1.818,0.063-2.686-0.225c-1.045-0.346-1.886-0.957-2.521-1.835
		c-0.635-0.878-1.098-1.919-1.389-3.128L74.484,421.477z M79.035,430.43c0.082,0.348,0.176,0.645,0.279,0.889
		c0.104,0.244,0.255,0.461,0.452,0.649c0.196,0.188,0.458,0.368,0.784,0.538c0.327,0.17,0.746,0.34,1.258,0.51
		c0.556,0.184,1.193,0.326,1.912,0.43c0.719,0.102,1.428,0.108,2.124,0.018c0.696-0.089,1.319-0.291,1.866-0.603
		c0.549-0.313,0.926-0.78,1.132-1.402c0.266-0.801,0.253-1.563-0.038-2.29c-0.29-0.727-0.752-1.398-1.387-2.016
		s-1.4-1.192-2.299-1.725c-0.896-0.532-1.816-1.017-2.759-1.452c-0.942-0.437-1.86-0.813-2.754-1.135
		c-0.893-0.321-1.651-0.585-2.274-0.792L79.035,430.43z" class="soINmxUK_11"></path>
	<path fill="none" stroke="#000000" stroke-width="2.8346" d="M68.717,484.851c2.308,0.604,4.549,0.982,6.721,1.134
		c2.173,0.15,4.166,0.041,5.978-0.33s3.402-1.016,4.774-1.934c1.371-0.919,2.408-2.119,3.113-3.6
		c0.402-0.848,0.662-1.665,0.777-2.453s0.151-1.505,0.107-2.148c-0.045-0.645-0.121-1.192-0.229-1.646
		c-0.11-0.454-0.192-0.785-0.248-0.993l1.503-0.297c0.415,0.819,0.733,1.729,0.958,2.732c0.225,1.002,0.331,2.031,0.32,3.092
		c-0.011,1.06-0.128,2.125-0.354,3.199c-0.227,1.073-0.564,2.087-1.019,3.039c-1.489,3.132-3.481,5.559-5.972,7.279
		c-2.494,1.723-5.368,2.782-8.619,3.183c-3.252,0.398-6.837,0.16-10.754-0.717c-3.919-0.878-8.036-2.344-12.354-4.396
		c-3.492-1.661-6.393-3.477-8.699-5.443c-2.31-1.969-4.045-4.032-5.21-6.195c-1.164-2.163-1.751-4.396-1.759-6.696
		c-0.009-2.302,0.545-4.626,1.663-6.975c0.774-1.631,1.854-3.147,3.236-4.554c1.382-1.405,3.055-2.479,5.016-3.221
		c1.962-0.74,4.214-1.039,6.752-0.895c2.541,0.144,5.354,0.95,8.445,2.421c2.668,1.269,4.858,2.771,6.575,4.51
		c1.717,1.737,2.988,3.582,3.813,5.53c0.824,1.95,1.215,3.939,1.171,5.969c-0.044,2.028-0.509,3.975-1.395,5.838
		c-0.342,0.72-0.708,1.338-1.097,1.854c-0.388,0.516-0.768,0.946-1.139,1.288c-0.371,0.343-0.73,0.625-1.084,0.848
		C69.359,484.494,69.027,484.687,68.717,484.851z M54.566,478.586c0.233,0.111,0.703,0.336,1.413,0.673
		c0.708,0.337,1.533,0.703,2.475,1.099c0.94,0.396,1.954,0.787,3.042,1.176c1.087,0.387,2.132,0.675,3.13,0.865
		c0.898-0.196,1.755-0.483,2.571-0.859c0.814-0.379,1.455-1.054,1.917-2.028c0.786-1.65,0.283-3.376-1.509-5.175
		c-1.791-1.8-4.952-3.777-9.481-5.932c-1.989-0.946-3.853-1.722-5.589-2.327c-1.735-0.605-3.285-1.005-4.646-1.197
		c-1.361-0.194-2.508-0.156-3.442,0.114c-0.933,0.27-1.589,0.807-1.973,1.611C40.864,469.992,44.894,473.985,54.566,478.586z" class="soINmxUK_12"></path>
	<path fill="none" stroke="#000000" stroke-width="2.8346" d="M39.312,500.932c-0.648-0.379-1.407-0.692-2.278-0.943
		c-0.87-0.251-1.798-0.418-2.779-0.504c-0.982-0.086-1.979-0.063-2.99,0.065c-1.011,0.129-1.995,0.384-2.949,0.762
		c-0.954,0.379-1.84,0.899-2.661,1.56c-0.819,0.662-1.526,1.498-2.116,2.51c-0.414,0.709-0.717,1.414-0.909,2.115
		c-0.193,0.702-0.301,1.398-0.325,2.09c-0.024,0.692,0.009,1.391,0.1,2.096c0.092,0.703,0.207,1.422,0.349,2.156l-1.172,0.334
		c-0.355-0.833-0.695-1.832-1.019-2.997c-0.322-1.167-0.513-2.457-0.567-3.873c-0.056-1.417,0.102-2.94,0.471-4.57
		c0.368-1.631,1.066-3.326,2.095-5.087c1.028-1.762,2.35-3.289,3.961-4.587c1.613-1.298,3.436-2.222,5.466-2.772
		c2.032-0.551,4.227-0.66,6.585-0.329c2.356,0.332,4.811,1.242,7.361,2.731c1.842,1.076,3.396,2.296,4.661,3.66
		c1.267,1.363,2.283,2.806,3.052,4.326c0.767,1.52,1.307,3.083,1.617,4.689s0.433,3.176,0.363,4.711
		c-0.068,1.533-0.304,3.006-0.704,4.414c-0.401,1.406-0.933,2.677-1.595,3.811c-0.875,1.498-1.799,2.709-2.773,3.633
		c-0.973,0.924-1.948,1.596-2.928,2.016c-0.978,0.42-1.932,0.602-2.862,0.546c-0.932-0.054-1.792-0.313-2.581-0.773
		c-0.952-0.556-1.648-1.328-2.088-2.318c-0.439-0.989-0.677-2.105-0.711-3.347L39.312,500.932z M41.911,510.633
		c0.009,0.356,0.038,0.666,0.089,0.928c0.052,0.26,0.154,0.504,0.309,0.729c0.153,0.225,0.371,0.455,0.655,0.689
		c0.284,0.233,0.659,0.486,1.124,0.758c0.507,0.296,1.101,0.568,1.783,0.818c0.682,0.248,1.373,0.4,2.074,0.456
		c0.699,0.057,1.35-0.012,1.951-0.204c0.6-0.192,1.066-0.57,1.396-1.138c0.425-0.728,0.571-1.478,0.438-2.247
		c-0.134-0.771-0.448-1.524-0.94-2.26c-0.493-0.736-1.123-1.458-1.892-2.163c-0.768-0.707-1.568-1.37-2.4-1.992
		c-0.83-0.621-1.649-1.181-2.457-1.68c-0.809-0.499-1.496-0.915-2.063-1.245L41.911,510.633z" class="soINmxUK_13"></path>
</g>
<style>.soINmxUK_0{stroke-dasharray:289 291;stroke-dashoffset:290;animation:soINmxUK_draw 2000ms linear 0ms forwards;}.soINmxUK_1{stroke-dasharray:181 183;stroke-dashoffset:182;animation:soINmxUK_draw 2000ms linear 76ms forwards;}.soINmxUK_2{stroke-dasharray:212 214;stroke-dashoffset:213;animation:soINmxUK_draw 2000ms linear 153ms forwards;}.soINmxUK_3{stroke-dasharray:153 155;stroke-dashoffset:154;animation:soINmxUK_draw 2000ms linear 230ms forwards;}.soINmxUK_4{stroke-dasharray:243 245;stroke-dashoffset:244;animation:soINmxUK_draw 2000ms linear 307ms forwards;}.soINmxUK_5{stroke-dasharray:181 183;stroke-dashoffset:182;animation:soINmxUK_draw 2000ms linear 384ms forwards;}.soINmxUK_6{stroke-dasharray:212 214;stroke-dashoffset:213;animation:soINmxUK_draw 2000ms linear 461ms forwards;}.soINmxUK_7{stroke-dasharray:248 250;stroke-dashoffset:249;animation:soINmxUK_draw 2000ms linear 538ms forwards;}.soINmxUK_8{stroke-dasharray:212 214;stroke-dashoffset:213;animation:soINmxUK_draw 2000ms linear 615ms forwards;}.soINmxUK_9{stroke-dasharray:130 132;stroke-dashoffset:131;animation:soINmxUK_draw 2000ms linear 692ms forwards;}.soINmxUK_10{stroke-dasharray:162 164;stroke-dashoffset:163;animation:soINmxUK_draw 2000ms linear 769ms forwards;}.soINmxUK_11{stroke-dasharray:175 177;stroke-dashoffset:176;animation:soINmxUK_draw 2000ms linear 846ms forwards;}.soINmxUK_12{stroke-dasharray:250 252;stroke-dashoffset:251;animation:soINmxUK_draw 2000ms linear 923ms forwards;}.soINmxUK_13{stroke-dasharray:175 177;stroke-dashoffset:176;animation:soINmxUK_draw 2000ms linear 1000ms forwards;}@keyframes soINmxUK_draw{100%{stroke-dashoffset:0;}}@keyframes soINmxUK_fade{0%{stroke-opacity:1;}94.44444444444444%{stroke-opacity:1;}100%{stroke-opacity:0;}}</style></svg>
