<?xml version="1.0" encoding="utf-8"?>
<!-- Generator: Adobe Illustrator 16.0.0, SVG Export Plug-In . SVG Version: 6.00 Build 0)  -->
<!DOCTYPE svg PUBLIC "-//W3C//DTD SVG 1.1//EN" "http://www.w3.org/Graphics/SVG/1.1/DTD/svg11.dtd">
<svg version="1.1" id="Calque_2" xmlns="http://www.w3.org/2000/svg" xmlns:xlink="http://www.w3.org/1999/xlink" x="0px" y="0px"
	 width="386.5px" height="1252.644px" viewBox="0 0 386.5 1252.644" enable-background="new 0 0 386.5 1252.644"
	 xml:space="preserve">
<line fill="none" x1="231.868" y1="1030.354" x2="232.848" y2="1031.849"/>
<line fill="none" x1="256.649" y1="971.495" x2="256.659" y2="971.517"/>
<path fill="none" d="M229.607,1250.362c0.011,0.01,0.011,0.029,0.021,0.039c1.205,2.613,2.244,4.107,2.507,4.467
	c0.02,0.029,0.029,0.049,0.04,0.059l0.021,0.029"/>
<path fill="none" d="M277.913,893.099"/>
<path fill="none" d="M289.564,869.778"/>
<path fill="none" d="M159.534,818.151l0.305,0.719c-0.03-0.051-0.162-0.289-0.404-0.678
	C159.465,818.181,159.505,818.171,159.534,818.151z"/>
<path fill="none" d="M335.06,220.126c0.626,0.986,1.112,2.054,1.449,3.222"/>
<path fill="none" d="M271.364,224.505c-0.457,0.382-0.905,0.755-1.343,1.118c-0.252-0.249-0.493-0.518-0.725-0.786"/>
<g>
	<path fill="#FAF3CE" d="M232.175,1254.927c-0.011-0.01-0.021-0.029-0.04-0.059l-2.507-4.467c-0.01-0.01-0.01-0.029-0.021-0.039"/>
	<path fill="#FAF3CE" d="M254.004,1064.804l1.942,3.699l6.544,12.439c26.896,37.842,0.393,66,0.393,66
		c-48.212,55.238-38.918,91.242-33.275,103.42l-18.304-32.451c0,0-18.149-73.854,43.875-111.965c0,0,9.367-20.686-1.682-40.67v-0.01
		C253.666,1065.116,253.835,1064.964,254.004,1064.804z"/>
	<path fill="#FAF3CE" d="M193.252,984.013l21.449,19.873l17.167,26.469c-56.5-45.266-66.785,15.998-66.785,15.998l7.369-0.045
		c51.214-6.305,58.67-13.598,58.67-13.598c0.589-0.273,1.167-0.568,1.726-0.861l20.206,31.15l0.95,1.805
		c-0.169,0.16-0.338,0.313-0.507,0.463v0.01c-0.318,0.293-0.647,0.584-0.975,0.865c-24.933,21.58-62.73,8.564-62.73,8.564
		c-24.777-17.854-32.951-47.135-32.951-47.135C151.147,968.265,193.252,984.013,193.252,984.013z"/>
	<path fill="#FAF3CE" d="M311.714,805.685c0.275,1.068,0.449,1.688,0.449,1.688c-0.422-0.416-0.845-0.824-1.257-1.211
		c-5.649,3.453-10.008,7.209-10.008,7.209l-16.544,19.439c-1.696,0.73-13.9,20.143-19.17,28.654
		c-1.338,2.158-2.229,3.613-2.388,3.885c-4.831,8.107-9.504,16.137-12.889,22.006c8.867,2.877,18.147,4.633,27.064,5.648
		c0.319,0.039,0.63,0.066,0.94,0.096c0.53,0.066,1.061,0.113,1.591,0.17c25.396,2.529,47.206-0.711,47.206-0.711
		c49.242-14.963,24.307-59.484,24.307-59.484l-0.727-1.197l-15.432-25.367C330.931,796.841,320.094,800.726,311.714,805.685z
		 M348.185,832.759c0,0-27.681,38.566-55.979,37.254c1.578-2.09,2.927-3.938,2.927-3.938s11.908-15.57,23.371-21.889
		C318.503,844.187,352.335,815.983,348.185,832.759z"/>
	<path fill="#FAF3CE" d="M232.729,847.196l1.564,0.691l30.892,13.576c-1.338,2.158-2.229,3.613-2.388,3.885
		c-4.831,8.107-9.504,16.137-12.889,22.006c-7.294-2.367-14.313-5.484-20.627-9.557l-39.187-17.719l-3.55-1.607
		c0,0,35.947-0.635,45.39,16.65c0,0-1.444-10.842-1.174-19.154v-0.01C230.897,851.937,231.427,848.515,232.729,847.196z"/>
	<path fill="#FAF3CE" d="M249.908,887.354c8.867,2.877,18.147,4.633,27.064,5.648c0.319,0.039,0.63,0.066,0.94,0.096
		c-7.163,13.063-16.06,30.455-19.619,42.197c0,0-3.987,13.895-1.645,36.199l-15.637-27.766c0,0-14.078-13.248,3.719-47.354
		C244.731,896.376,246.76,892.804,249.908,887.354z"/>
	<path fill="#FAF3CE" d="M256.659,971.517l1.192,2.113c13.494,25.92,16.052,33.904,16.052,33.904
		c-0.686,29.264-8.871,46.893-19.899,57.27l-0.95-1.805l-20.206-31.15c30.694-16.104,24.19-57.045,24.19-57.045
		C256.892,973.685,256.766,972.585,256.659,971.517z"/>
	<path fill="#FAF3CE" d="M198.895,707.145c0,0-0.327,0.472-0.952,1.276c-2.877,3.757-12.002,14.862-22.882,19.866
		c0,0,2.966,0.973,5.958,4.635h0.01c0.02,0.02,0.04,0.05,0.061,0.08c0,0-47.406,16.033-33.154,58.199l11.6,26.951
		c-0.029,0.02-0.069,0.029-0.1,0.041c-1.535-2.561-7.131-11.969-12.781-22.074c-6.641-11.871-13.337-24.711-13.61-28.58
		c0,0-16.005-42.906,29.981-67.18c0,0,4.633,2.223,4.462,15.474c0,0,18.66-15.111,27.392-18.163
		C194.878,697.668,210.02,691.078,198.895,707.145z"/>
	<path fill="#FAF3CE" d="M251.224,195.765l7.423,15.565c2.422,5.536,5.303,10.699,8.452,15.471
		c-7.51,6.915-11.196,12.546-11.196,12.546c-23.848,25.643-4.223,46.526-4.223,46.526c38.432,30.522,2.759,85.485,2.759,85.485
		c73.807,9.311,116.386,106.56,116.386,106.56c12.367,19.677,1.541,48.992,1.541,48.992c-3.833,14.543-32.113,26.472-36.512,28.248
		c-0.369,0.142-0.569,0.223-0.569,0.223c-1.404-2.412-1.921-5.338-1.89-8.388c0.073-9.571,5.469-20.384,5.469-20.384
		c-0.15,0.071-0.309,0.132-0.469,0.184c-7.105,2.512-20.061-5.062-20.061-5.062s0.319-0.102,0.898-0.295
		c7.354-2.544,56.925-21.249,40.253-58.451l-13.622-20.419c0,0-35.008-43.292-92.788-48.199l-0.021-3.5
		c0,0-13.688,10.332-29.263-2.076l-21.755-19.281l-0.11-0.089c0,0,0.554,3.987,0.624,9.097c0.055,4.069-0.207,8.841-1.313,12.857
		c0,0.01-0.01,0.03-0.01,0.04s0,0.01,0,0.01c-0.196,0.702-0.412,1.363-0.658,2.004c0,0-44.954,7.768-37.098,25.721
		c0,0,23.037,14.544,23.505,27.542c0,0,0,0,0,0.01c0.022,0.51,0.006,1.01-0.052,1.51c-0.019,0.22-0.048,0.43-0.086,0.651
		c-0.097,0.56-0.233,1.111-0.431,1.652c0,0-5.419,13.533-20.271-3.629l-15.672-28.907c0,0-19.941-32.132,6.963-48.292
		c0,0,28.139-18.667,66.688-10.397c0,0,31.023-38.185,25.866-64.655c0,0-1.068-11.494-2.591-15.235c0,0-35.808-51.538-5.2-75.721
		C242.19,203.678,245.46,200.229,251.224,195.765z"/>
	<path fill="#FAF3CE" d="M271.479,0c0,0,48.505,42.712,12.845,99.925c0,0-16.592,26.599-27.268,39.163
		c0,0-16.105,24.346-6.452,50.039l2.307,4.437l0.344,0.658c-0.706,0.524-1.384,1.039-2.03,1.542l-17.297-36.288
		c0,0-18.688-31.64,7.178-54.294c0,0,25.593-26.403,30.453-49.932C271.558,55.25,281.402,29.191,271.479,0z"/>
	<path fill="#FAF3CE" d="M325.321,185.183c5.14,4.929,9.694,12.412,12.401,23.676c0,0,19.981,80.883-25.643,60.154
		c0,0-26.898-14.72-44.981-42.212c0.695-0.645,1.432-1.299,2.198-1.963c0.417-0.363,0.846-0.736,1.283-1.098
		c0.251,0.249,0.513,0.507,0.784,0.765c6.276,6.052,17.262,15.317,26.297,16.094c0,0,35.105,5.911,37.317-18.942
		c0.047-0.5,0.074-1,0.081-1.53c0.138-3.671-0.428-7.968-1.848-12.989l-7.077-19.699L325.321,185.183z"/>
	<path fill="#FAF3CE" d="M253.254,194.222l13.029,25.063c0,0,0.889,3.044,3.014,5.552c-0.767,0.665-1.503,1.318-2.198,1.963
		c-3.149-4.771-6.03-9.935-8.452-15.471l-7.423-15.565C251.87,195.261,252.548,194.746,253.254,194.222z"/>
	<path fill="#FAF3CE" d="M296.028,176.357c0,0,17.352,0.187,30.106,11.081l7.077,19.699c1.42,5.021,1.985,9.318,1.848,12.989
		c-8.5-13.32-41.833-10.502-41.833-10.502c-8.628,3.812-16.19,10.117-21.862,14.881c-0.271-0.258-0.533-0.517-0.784-0.765
		c-0.438,0.362-0.866,0.735-1.283,1.098c-2.125-2.508-3.014-5.552-3.014-5.552l-13.029-25.063l-0.344-0.658
		C262.609,186.617,278.56,178.281,296.028,176.357z"/>
</g>
<path fill="none" d="M326.135,187.438c0.563,0.467,1.126,0.974,1.669,1.5"/>
<path fill="#B70808" d="M316.479,625.134c5.72,11.856,17.569,20.176,31.415,20.873c1.402,3.882,2.188,8.067,2.213,12.427
	c0.063,10.43-4.191,19.875-11.101,26.656c-0.01,0.01-0.021,0.01-0.021,0.02c-1.232,1.208-2.556,2.326-3.95,3.344
	c-6.073,4.486-13.578,7.15-21.708,7.199c-19.159,0.114-35.006-14.362-37.007-33.02c-0.137-1.229-0.205-2.489-0.212-3.759
	c-0.026-4.459,0.737-8.744,2.154-12.712c1.602,0.21,3.242,0.31,4.912,0.3C297.925,646.374,310.613,637.668,316.479,625.134z"/>
<path opacity="0.9" fill="#C10808" d="M349.594,572.066c1.53-0.009,3.021,0.072,4.502,0.252h0.01
	c18.323,2.112,32.596,17.627,32.708,36.527c0.121,20.439-16.339,37.097-36.779,37.219c-0.72,0.004-1.43-0.011-2.14-0.057
	c-13.846-0.697-25.695-9.017-31.415-20.873c2.262-4.824,3.509-10.211,3.475-15.891c-0.033-5.681-1.345-11.053-3.664-15.849
	C322.155,580.869,334.844,572.154,349.594,572.066z"/>
<path fill="#126812" d="M313.328,695.653c8.13-0.048,15.635-2.713,21.708-7.199c5.625,9.216,24.39,23.475,25.073,24.001
	c-23.367-9.511-29.26,8.514-29.26,8.514c-4.237,7.255,7.201,28.709,7.495,29.277l-11.034-7.256
	c-24.749-14.853-21.485,29.459-21.485,29.459c-0.808,7.074,4.313,27.254,5.889,33.234c-0.27,0.162-0.539,0.324-0.808,0.477
	c-30.916-29.477-37.424-0.459-37.424-0.459c-4.53,1.658,2.22,36.928,2.22,36.928c-18.67-30.1-33.604-10.73-41.409,5.258
	l-1.564-0.691c-1.302,1.318-1.831,4.74-1.968,8.762v0.01c-0.271,8.313,1.174,19.154,1.174,19.154
	c-9.442-17.285-45.39-16.65-45.39-16.65l3.55,1.607c-7.437,2.346-17.809,7.117-26.015,17.775c0,0,15.24-48.76-14.805-56.242
	c0,0,4.374-1.047,10.159-3.42c0.242,0.389,0.374,0.627,0.404,0.678l-0.305-0.719c10.116-4.16,24.477-12.355,27.566-26.105
	c0,0-7.033-17.277-32.182-11.818c0.968-0.426,31.768-14.029,36.295-26.205c0,0,0.596-15.904-10.186-21.101h-0.01
	c-2.992-3.662-5.958-4.635-5.958-4.635c10.88-5.004,20.005-16.109,22.882-19.866c8.551-5.001,20.76-11.923,27.244-14.603
	c10.644-4.393,25.987-2.154,28.788,19.829c0,0,8.714-34.642,22.347-51.014C278.322,681.292,294.169,695.768,313.328,695.653z"/>
<path fill="none" d="M154.919,780.228c-0.01,0.01-0.02,0.01-0.02,0.01"/>
<path fill="none" d="M360.109,712.456c0.011,0.01,0.021,0.01,0.021,0.01"/>
<path fill="none" d="M338.345,750.247c0.01,0.01,0.01,0.01,0.01,0.01"/>
<path fill="#126812" d="M191.284,544.007c0.01,0,0.01,0,0.02,0.01c0.041,0.019,0.08,0.04,0.121,0.069
	c0.08,0.04,0.15,0.08,0.221,0.129c4.235,2.564,44.387,27.906-0.436,41.143c0,0,55.742,16.989,19.254,39.206
	c1.019-0.266,36.464-9.547,28.389,13.171l11.466-10.828c5.532,10.337,15.826,17.726,27.945,19.254
	c-1.417,3.968-2.181,8.253-2.154,12.712c0.007,1.271,0.075,2.53,0.212,3.759c-13.633,16.372-22.347,51.014-22.347,51.014
	c-2.801-21.983-18.145-24.222-28.788-19.829c-6.484,2.679-18.693,9.601-27.244,14.603c0.625-0.804,0.952-1.276,0.952-1.276
	c11.125-16.066-4.017-9.476-4.017-9.476c-8.731,3.052-27.392,18.163-27.392,18.163c0.171-13.251-4.462-15.474-4.462-15.474
	s-18.323-32.342-54.482-3.486c0,0,6.859-23.731,2.508-27.375c0,0-13.141-23.583-51.883,19.979c0,0-5.747-12.966-2.787-19.653
	c0,0-32.232-5.389-47.303,6.361c4.359-3.496,49.896-40.998,18.982-60.194c0,0,76.766,15.854,42.419-42.263
	c0,0,85.952,48.839,55.903-16.323c0,0,38.73,33.421,56.611,21.753C189.567,574.858,193.325,564.445,191.284,544.007z"/>
<path fill="none" d="M9.077,676.184c-0.05,0.041-0.09,0.07-0.139,0.111"/>
<path fill="none" d="M210.464,624.564c-0.011,0-0.01,0.01-0.02,0.01"/>
<path fill="none" d="M9.077,676.184c-0.05,0.041-0.09,0.07-0.139,0.111c-0.08,0.07-0.141,0.111-0.17,0.131
	c-0.01,0.01-0.01,0.01-0.02,0.02"/>
<path fill="#C10808" d="M282.735,572.464c14.75-0.088,27.541,8.476,33.555,20.931c2.319,4.796,3.631,10.168,3.664,15.849
	c0.034,5.679-1.213,11.067-3.475,15.891c-5.866,12.535-18.555,21.24-33.304,21.328c-1.67,0.01-3.311-0.09-4.912-0.3
	c-12.119-1.528-22.413-8.917-27.945-19.254c-2.75-5.134-4.325-10.995-4.362-17.225C245.834,589.253,262.296,572.585,282.735,572.464
	z"/>
<path fill="none" d="M194.114,545.67c0,0-0.764-0.525-2.469-1.455"/>
<path fill="#126812" d="M223.786,387.991c15.574,12.408,29.264,2.076,29.264,2.076l0.021,3.5
	c-18.878,76.033,32.494,27.557,32.494,27.557c-19.894,73.45,26.425,49.514,26.425,49.514c-6.325,36.038,6.34,50.293,6.34,50.293
	s13.547,7.919,20.529,4.878c0,0-9.389,18.806-3.579,28.772c12.66,13.345,35.751,0.037,29.438,4.405
	c-3.646,2.532-7.779,8.636-10.611,13.333h-0.01c-1.481-0.181-2.972-0.262-4.502-0.252c-14.75,0.088-27.438,8.803-33.304,21.329
	c-6.014-12.455-18.805-21.019-33.555-20.931c-20.439,0.122-36.901,16.789-36.779,37.219c0.037,6.229,1.612,12.09,4.362,17.225
	l-11.466,10.828c8.075-22.718-27.37-13.437-28.389-13.171c36.488-22.217-19.254-39.206-19.254-39.206
	c44.822-13.237,4.671-38.579,0.436-41.143c-0.07-0.049-0.141-0.089-0.221-0.129c-0.041-0.03-0.08-0.05-0.121-0.069
	c-0.01-0.01-0.01-0.01-0.02-0.01c-4.003-2.186-12.559-6.316-27.387-11.158c0,0,67.191-10.07,1.338-47.339
	c0,0,12.758-2.146,20.655-9.363c6.245-5.707,9.453-14.585,0.942-28.086c2.33-13.484-23.367-29.711-23.367-29.711
	s38.671-1.76,37.756-27.725c0,0,0,0,0-0.01c2.506-9.064,0.699-21.995,0.699-21.995L223.786,387.991z"/>
<path fill="none" d="M200.871,387.127c0.196,1.209,0.304,2.378,0.351,3.488"/>
<path fill="#0F510F" d="M185.891,476.147c-7.897,7.217-20.655,9.363-20.655,9.363c65.854,37.269-1.338,47.339-1.338,47.339
	c14.828,4.842,23.384,8.972,27.387,11.158c2.041,20.438-1.717,30.851-8.291,35.149c-4.297-6.274-13.311-13.501-31.894-12.23
	c0,0,33.445-37.87-40.903-39.088c0,0,66.811-32.068-19.235-39.556c0,0,40.53-23.572-10.284-47.61
	C80.677,440.673,160.952,439.596,185.891,476.147z"/>
<path opacity="0.7" fill="#0D470D" d="M250.318,626.908l-11.466,10.828c0,0,12.436-21.384-27.147-13.95
	c0,0,34.302-21.5-20.495-38.427c0,0,64.269-15.803-27.313-52.509c0,0,52.425,15.111,19.096,46.307l-10.82,4.729
	c0,0,44.868,19.732,19.968,43.548c0,0,39.661,6.098,35.426,22.457c0,0,16.137-12.376,30.025-13.486"/>
<path opacity="0.8" fill="#0F510F" d="M276.702,665.225L276.702,665.225c0,0-21.411,17.669-22.317,50.089
	c0,0-3.218-50.225-57.212-5.908c-53.994,44.319,0.008,1.329,0.008,1.329l-12.571,11.482c0,0,46.146-17.016,64.387,11.876
	c18.24,28.893,10.652-37.73,30.152-25.847c0,0,21.105,20.389,73.028-2.178l-17.141-17.616
	C335.036,688.455,294.379,714.75,276.702,665.225z"/>
<path fill="#0F510F" d="M163.897,532.85"/>
<path fill="#F6E994" d="M309.004,893.733l-31.091-0.635c0,0,8.327-18.871,14.292-23.086c0,0,17.659-0.824,19.633-4.732
	C311.838,865.28,295.31,889.147,309.004,893.733z"/>
<path fill="#F6E994" d="M232.887,879.968l14.722,7.4l2.3-0.014l15.276-25.891l-15.471-6.799
	C249.714,854.665,254.172,877.624,232.887,879.968z"/>
<path fill="#F6E994" d="M191.989,395.348l9.084-1.973c0,0,2.08-16.224,1.757-23.949c0,0,7.065,6.26,8.661,7.673
	c0,0,11.938-13.756,12.624-17.811c0,0-26.495-4.204-40.828,0.243S191.989,395.348,191.989,395.348z"/>
<path fill="#F6E994" d="M254.438,371.358c0,0-6.431,19.411-17.075,23.14c0,0,14.412-2.095,15.687-4.431l0.601,4.334
	c0,0,6.646,0.678,10.302,1.371l4.022-21.664C267.975,374.108,260.316,371.285,254.438,371.358z"/>
<path fill="#F6E994" d="M318.329,520.931c0,0,0.374,0.216,1.03,0.563c3.656,1.939,16.061,7.99,21.124,3.721
	c0,0-10.51,12.679-4.398,30.161c0,0,23.461-10.014,25.13-14.321c0,0,6.084-35.416-13.549-35.258"/>
<path fill="#F6E994" d="M335.783,221.447c0,0,2.537-17.146-5.25-29.958c0,0-5.714-8.446-11.574-8.934c0,0,6.729,30.505,8.163,31.215
	"/>
<path fill="#F6E994" d="M271.364,224.505l-18.454-30.94c0,0-0.607,0.444-0.906,0.665"/>
<path fill="#F6E994" d="M271.359,223.735c0,0-18.853-22.538-16.387-31.604l5.676-3.549c0,0,10.517,28.653,18.262,29.815
	L271.359,223.735z"/>
<path fill="#F6E994" d="M256.167,1103.94l17.255,17.676c0,0,11.154-14.191-19.912-57.48
	C253.51,1064.136,260.349,1101.237,256.167,1103.94z"/>
<path fill="#F6E994" d="M165.083,1046.353l-8.242-18.781c0,0-1.533-26.328,4.041-33.342c0,0,2.156,22.35,14.049,29.791
	L165.083,1046.353z"/>
<path fill="#910909" d="M278.264,646.162c0,0,27.886,4.896,40.565-27.665c0,0-6.959,19.226,29.065,27.51
	c0,0-11.741,24.639-31.193,16.386C297.248,654.141,316.512,650.179,278.264,646.162z"/>
<path fill="#910909" d="M316.29,593.395c0,0,4.899,8.24,2.539,25.103c0,0-2.431,13.168,7.923,18.716s22.769-30.648,17.412-43.984
	s-17.313-8.003-10.043-17.678C334.121,575.551,319.61,579.41,316.29,593.395z"/>
</svg>
