<?xml version="1.0" encoding="utf-8"?>
<!-- Generator: Adobe Illustrator 16.0.0, SVG Export Plug-In . SVG Version: 6.00 Build 0)  -->
<!DOCTYPE svg PUBLIC "-//W3C//DTD SVG 1.1//EN" "http://www.w3.org/Graphics/SVG/1.1/DTD/svg11.dtd">
<svg version="1.1" id="Calque_2" xmlns="http://www.w3.org/2000/svg" xmlns:xlink="http://www.w3.org/1999/xlink" x="0px" y="0px"
	 width="386.5px" height="1252.644px" viewBox="0 0 386.5 1252.644" enable-background="new 0 0 386.5 1252.644"
	 xml:space="preserve">
<line fill="none" x1="162.715" y1="1031.849" x2="163.694" y2="1030.354"/>
<line fill="none" x1="138.903" y1="971.517" x2="138.913" y2="971.495"/>
<path fill="none" d="M163.367,1254.956l0.021-0.029c0.011-0.01,0.021-0.029,0.04-0.059c0.263-0.359,1.302-1.854,2.507-4.467
	c0.01-0.01,0.01-0.029,0.021-0.039"/>
<path fill="none" d="M117.649,893.099"/>
<path fill="none" d="M105.998,869.778"/>
<path fill="none" d="M236.028,818.151l-0.305,0.719c0.03-0.051,0.162-0.289,0.404-0.678
	C236.098,818.181,236.058,818.171,236.028,818.151z"/>
<path fill="none" d="M59.054,223.348c0.337-1.168,0.823-2.235,1.449-3.222"/>
<path fill="none" d="M126.266,224.837c-0.231,0.268-0.473,0.537-0.725,0.786c-0.438-0.363-0.886-0.736-1.343-1.118"/>
<g>
	<path fill="#FAF3CE" d="M165.955,1250.362c-0.011,0.01-0.011,0.029-0.021,0.039l-2.507,4.467c-0.02,0.029-0.029,0.049-0.04,0.059"
		/>
	<path fill="#FAF3CE" d="M141.559,1064.804l-1.942,3.699l-6.544,12.439c-26.896,37.842-0.393,66-0.393,66
		c48.212,55.238,38.918,91.242,33.275,103.42l18.304-32.451c0,0,18.149-73.854-43.875-111.965c0,0-9.367-20.686,1.682-40.67v-0.01
		C141.896,1065.116,141.728,1064.964,141.559,1064.804z"/>
	<path fill="#FAF3CE" d="M202.311,984.013l-21.449,19.873l-17.167,26.469c56.5-45.266,66.785,15.998,66.785,15.998l-7.369-0.045
		c-51.214-6.305-58.67-13.598-58.67-13.598c-0.589-0.273-1.167-0.568-1.726-0.861l-20.206,31.15l-0.95,1.805
		c0.169,0.16,0.338,0.313,0.507,0.463v0.01c0.318,0.293,0.647,0.584,0.975,0.865c24.933,21.58,62.73,8.564,62.73,8.564
		c24.777-17.854,32.951-47.135,32.951-47.135C244.415,968.265,202.311,984.013,202.311,984.013z"/>
	<path fill="#FAF3CE" d="M60.704,806.509l-15.432,25.367l-0.727,1.197c0,0-24.936,44.521,24.307,59.484
		c0,0,21.811,3.24,47.206,0.711c0.53-0.057,1.061-0.104,1.591-0.17c0.311-0.029,0.621-0.057,0.94-0.096
		c8.917-1.016,18.197-2.771,27.064-5.648c-3.385-5.869-8.058-13.898-12.889-22.006c-0.159-0.271-1.05-1.727-2.388-3.885
		c-5.27-8.512-17.474-27.924-19.17-28.654L94.664,813.37c0,0-4.358-3.756-10.008-7.209c-0.412,0.387-0.835,0.795-1.257,1.211
		c0,0,0.174-0.619,0.449-1.688C75.469,800.726,64.632,796.841,60.704,806.509z M77.06,844.187
		c11.463,6.318,23.371,21.889,23.371,21.889s1.349,1.848,2.927,3.938c-28.299,1.313-55.979-37.254-55.979-37.254
		C43.228,815.983,77.06,844.187,77.06,844.187z"/>
	<path fill="#FAF3CE" d="M162.834,847.196l-1.564,0.691l-30.892,13.576c1.338,2.158,2.229,3.613,2.388,3.885
		c4.831,8.107,9.504,16.137,12.889,22.006c7.294-2.367,14.313-5.484,20.627-9.557l39.187-17.719l3.55-1.607
		c0,0-35.947-0.635-45.39,16.65c0,0,1.444-10.842,1.174-19.154v-0.01C164.665,851.937,164.136,848.515,162.834,847.196z"/>
	<path fill="#FAF3CE" d="M145.654,887.354c-8.867,2.877-18.147,4.633-27.064,5.648c-0.319,0.039-0.63,0.066-0.94,0.096
		c7.163,13.063,16.06,30.455,19.619,42.197c0,0,3.987,13.895,1.645,36.199l15.637-27.766c0,0,14.078-13.248-3.719-47.354
		C150.831,896.376,148.803,892.804,145.654,887.354z"/>
	<path fill="#FAF3CE" d="M138.903,971.517l-1.192,2.113c-13.494,25.92-16.052,33.904-16.052,33.904
		c0.686,29.264,8.871,46.893,19.899,57.27l0.95-1.805l20.206-31.15c-30.694-16.104-24.19-57.045-24.19-57.045
		C138.671,973.685,138.797,972.585,138.903,971.517z"/>
	<path fill="#FAF3CE" d="M196.668,707.145c0,0,0.327,0.472,0.952,1.276c2.877,3.757,12.002,14.862,22.882,19.866
		c0,0-2.966,0.973-5.958,4.635h-0.01c-0.02,0.02-0.04,0.05-0.061,0.08c0,0,47.406,16.033,33.154,58.199l-11.6,26.951
		c0.029,0.02,0.069,0.029,0.1,0.041c1.535-2.561,7.131-11.969,12.781-22.074c6.641-11.871,13.337-24.711,13.61-28.58
		c0,0,16.005-42.906-29.981-67.18c0,0-4.633,2.223-4.462,15.474c0,0-18.66-15.111-27.392-18.163
		C200.685,697.668,185.543,691.078,196.668,707.145z"/>
	<path fill="#FAF3CE" d="M144.339,195.765l-7.423,15.565c-2.422,5.536-5.303,10.699-8.452,15.471
		c7.51,6.915,11.196,12.546,11.196,12.546c23.848,25.643,4.223,46.526,4.223,46.526c-38.432,30.522-2.759,85.485-2.759,85.485
		c-73.807,9.311-116.386,106.56-116.386,106.56c-12.367,19.677-1.541,48.992-1.541,48.992c3.833,14.543,32.113,26.472,36.512,28.248
		c0.369,0.142,0.569,0.223,0.569,0.223c1.404-2.412,1.921-5.338,1.89-8.388c-0.073-9.571-5.469-20.384-5.469-20.384
		c0.15,0.071,0.309,0.132,0.469,0.184c7.105,2.512,20.061-5.062,20.061-5.062s-0.319-0.102-0.898-0.295
		c-7.354-2.544-56.925-21.249-40.253-58.451l13.622-20.419c0,0,35.008-43.292,92.788-48.199l0.021-3.5
		c0,0,13.688,10.332,29.263-2.076l21.755-19.281l0.11-0.089c0,0-0.554,3.987-0.624,9.097c-0.055,4.069,0.207,8.841,1.313,12.857
		c0,0.01,0.01,0.03,0.01,0.04s0,0.01,0,0.01c0.196,0.702,0.412,1.363,0.658,2.004c0,0,44.954,7.768,37.098,25.721
		c0,0-23.037,14.544-23.505,27.542c0,0,0,0,0,0.01c-0.022,0.51-0.006,1.01,0.052,1.51c0.019,0.22,0.048,0.43,0.086,0.651
		c0.097,0.56,0.233,1.111,0.431,1.652c0,0,5.419,13.533,20.271-3.629l15.672-28.907c0,0,19.941-32.132-6.963-48.292
		c0,0-28.139-18.667-66.688-10.397c0,0-31.023-38.185-25.866-64.655c0,0,1.068-11.494,2.591-15.235c0,0,35.808-51.538,5.2-75.721
		C153.372,203.678,150.103,200.229,144.339,195.765z"/>
	<path fill="#FAF3CE" d="M124.084,0c0,0-48.505,42.712-12.845,99.925c0,0,16.592,26.599,27.268,39.163
		c0,0,16.105,24.346,6.452,50.039l-2.307,4.437l-0.344,0.658c0.706,0.524,1.384,1.039,2.03,1.542l17.297-36.288
		c0,0,18.688-31.64-7.178-54.294c0,0-25.593-26.403-30.453-49.932C124.005,55.25,114.16,29.191,124.084,0z"/>
	<path fill="#FAF3CE" d="M70.241,185.183c-5.14,4.929-9.694,12.412-12.401,23.676c0,0-19.981,80.883,25.643,60.154
		c0,0,26.898-14.72,44.981-42.212c-0.695-0.645-1.432-1.299-2.198-1.963c-0.417-0.363-0.846-0.736-1.283-1.098
		c-0.251,0.249-0.513,0.507-0.784,0.765c-6.276,6.052-17.262,15.317-26.297,16.094c0,0-35.105,5.911-37.317-18.942
		c-0.047-0.5-0.074-1-0.081-1.53c-0.138-3.671,0.428-7.968,1.848-12.989l7.077-19.699L70.241,185.183z"/>
	<path fill="#FAF3CE" d="M142.309,194.222l-13.029,25.063c0,0-0.889,3.044-3.014,5.552c0.767,0.665,1.503,1.318,2.198,1.963
		c3.149-4.771,6.03-9.935,8.452-15.471l7.423-15.565C143.692,195.261,143.015,194.746,142.309,194.222z"/>
	<path fill="#FAF3CE" d="M99.534,176.357c0,0-17.352,0.187-30.106,11.081l-7.077,19.699c-1.42,5.021-1.985,9.318-1.848,12.989
		c8.5-13.32,41.833-10.502,41.833-10.502c8.628,3.812,16.19,10.117,21.862,14.881c0.271-0.258,0.533-0.517,0.784-0.765
		c0.438,0.362,0.866,0.735,1.283,1.098c2.125-2.508,3.014-5.552,3.014-5.552l13.029-25.063l0.344-0.658
		C132.953,186.617,117.003,178.281,99.534,176.357z"/>
</g>
<path fill="none" d="M67.759,188.938c0.543-0.527,1.106-1.033,1.669-1.5"/>
<path fill="#B70808" d="M79.083,625.134c-5.72,11.856-17.569,20.176-31.415,20.873c-1.402,3.882-2.188,8.067-2.213,12.427
	c-0.063,10.43,4.191,19.875,11.101,26.656c0.01,0.01,0.021,0.01,0.021,0.02c1.232,1.208,2.556,2.326,3.95,3.344
	c6.073,4.486,13.578,7.15,21.708,7.199c19.159,0.114,35.006-14.362,37.007-33.02c0.137-1.229,0.205-2.489,0.212-3.759
	c0.026-4.459-0.737-8.744-2.154-12.712c-1.602,0.21-3.242,0.31-4.912,0.3C97.638,646.374,84.949,637.668,79.083,625.134z"/>
<path opacity="0.9" fill="#C10808" d="M45.969,572.066c-1.53-0.009-3.021,0.072-4.502,0.252h-0.01
	c-18.323,2.112-32.596,17.627-32.708,36.527c-0.121,20.439,16.339,37.097,36.779,37.219c0.72,0.004,1.43-0.011,2.14-0.057
	c13.846-0.697,25.695-9.017,31.415-20.873c-2.262-4.824-3.509-10.211-3.475-15.891c0.033-5.681,1.345-11.053,3.664-15.849
	C73.407,580.869,60.719,572.154,45.969,572.066z"/>
<path fill="#126812" d="M82.234,695.653c-8.13-0.048-15.635-2.713-21.708-7.199c-5.625,9.216-24.39,23.475-25.073,24.001
	c23.367-9.511,29.26,8.514,29.26,8.514c4.237,7.255-7.201,28.709-7.495,29.277l11.034-7.256
	c24.749-14.853,21.485,29.459,21.485,29.459c0.808,7.074-4.313,27.254-5.889,33.234c0.27,0.162,0.539,0.324,0.808,0.477
	c30.916-29.477,37.424-0.459,37.424-0.459c4.53,1.658-2.22,36.928-2.22,36.928c18.67-30.1,33.604-10.73,41.409,5.258l1.564-0.691
	c1.302,1.318,1.831,4.74,1.968,8.762v0.01c0.271,8.313-1.174,19.154-1.174,19.154c9.442-17.285,45.39-16.65,45.39-16.65l-3.55,1.607
	c7.437,2.346,17.809,7.117,26.015,17.775c0,0-15.24-48.76,14.805-56.242c0,0-4.374-1.047-10.159-3.42
	c-0.242,0.389-0.374,0.627-0.404,0.678l0.305-0.719c-10.116-4.16-24.477-12.355-27.566-26.105c0,0,7.033-17.277,32.182-11.818
	c-0.968-0.426-31.768-14.029-36.295-26.205c0,0-0.596-15.904,10.186-21.101h0.01c2.992-3.662,5.958-4.635,5.958-4.635
	c-10.88-5.004-20.005-16.109-22.882-19.866c-8.551-5.001-20.76-11.923-27.244-14.603c-10.644-4.393-25.987-2.154-28.788,19.829
	c0,0-8.714-34.642-22.347-51.014C117.24,681.292,101.394,695.768,82.234,695.653z"/>
<path fill="none" d="M240.663,780.237c0,0-0.01,0-0.02-0.01"/>
<path fill="none" d="M35.433,712.465c0,0,0.01,0,0.021-0.01"/>
<path fill="none" d="M57.208,750.257c0,0,0,0,0.01-0.01"/>
<path fill="#126812" d="M204.278,544.007c-0.01,0-0.01,0-0.02,0.01c-0.041,0.019-0.08,0.04-0.121,0.069
	c-0.08,0.04-0.15,0.08-0.221,0.129c-4.235,2.564-44.387,27.906,0.436,41.143c0,0-55.742,16.989-19.254,39.206
	c-1.019-0.266-36.464-9.547-28.389,13.171l-11.466-10.828c-5.532,10.337-15.826,17.726-27.945,19.254
	c1.417,3.968,2.181,8.253,2.154,12.712c-0.007,1.271-0.075,2.53-0.212,3.759c13.633,16.372,22.347,51.014,22.347,51.014
	c2.801-21.983,18.145-24.222,28.788-19.829c6.484,2.679,18.693,9.601,27.244,14.603c-0.625-0.804-0.952-1.276-0.952-1.276
	c-11.125-16.066,4.017-9.476,4.017-9.476c8.731,3.052,27.392,18.163,27.392,18.163c-0.171-13.251,4.462-15.474,4.462-15.474
	s18.323-32.342,54.482-3.486c0,0-6.859-23.731-2.508-27.375c0,0,13.141-23.583,51.883,19.979c0,0,5.747-12.966,2.787-19.653
	c0,0,32.232-5.389,47.303,6.361c-4.359-3.496-49.896-40.998-18.982-60.194c0,0-76.766,15.854-42.419-42.263
	c0,0-85.952,48.839-55.903-16.323c0,0-38.73,33.421-56.611,21.753C205.995,574.858,202.237,564.445,204.278,544.007z"/>
<path fill="none" d="M386.624,676.294c-0.049-0.041-0.089-0.07-0.139-0.111"/>
<path fill="none" d="M185.118,624.574c-0.01,0-0.009-0.01-0.02-0.01"/>
<path fill="none" d="M386.813,676.445c-0.01-0.01-0.01-0.01-0.02-0.02c-0.029-0.02-0.09-0.061-0.17-0.131
	c-0.049-0.041-0.089-0.07-0.139-0.111"/>
<path fill="#C10808" d="M112.827,572.464c-14.75-0.088-27.541,8.476-33.555,20.931c-2.319,4.796-3.631,10.168-3.664,15.849
	c-0.034,5.679,1.213,11.067,3.475,15.891c5.866,12.535,18.555,21.24,33.304,21.328c1.67,0.01,3.311-0.09,4.912-0.3
	c12.119-1.528,22.413-8.917,27.945-19.254c2.75-5.134,4.325-10.995,4.362-17.225C149.729,589.253,133.267,572.585,112.827,572.464z"
	/>
<path fill="none" d="M203.917,544.215c-1.705,0.929-2.469,1.455-2.469,1.455"/>
<path fill="#126812" d="M171.776,387.991c-15.574,12.408-29.264,2.076-29.264,2.076l-0.021,3.5
	c18.878,76.033-32.494,27.557-32.494,27.557c19.894,73.45-26.425,49.514-26.425,49.514c6.325,36.038-6.34,50.293-6.34,50.293
	s-13.547,7.919-20.529,4.878c0,0,9.389,18.806,3.579,28.772c-12.66,13.345-35.751,0.037-29.438,4.405
	c3.646,2.532,7.779,8.636,10.611,13.333h0.01c1.481-0.181,2.972-0.262,4.502-0.252c14.75,0.088,27.438,8.803,33.304,21.329
	c6.014-12.455,18.805-21.019,33.555-20.931c20.439,0.122,36.901,16.789,36.779,37.219c-0.037,6.229-1.612,12.09-4.362,17.225
	l11.466,10.828c-8.075-22.718,27.37-13.437,28.389-13.171c-36.488-22.217,19.254-39.206,19.254-39.206
	c-44.822-13.237-4.671-38.579-0.436-41.143c0.07-0.049,0.141-0.089,0.221-0.129c0.041-0.03,0.08-0.05,0.121-0.069
	c0.01-0.01,0.01-0.01,0.02-0.01c4.003-2.186,12.559-6.316,27.387-11.158c0,0-67.191-10.07-1.338-47.339
	c0,0-12.758-2.146-20.655-9.363c-6.245-5.707-9.453-14.585-0.942-28.086c-2.33-13.484,23.367-29.711,23.367-29.711
	s-38.671-1.76-37.756-27.725c0,0,0,0,0-0.01c-2.506-9.064-0.699-21.995-0.699-21.995L171.776,387.991z"/>
<path fill="none" d="M194.341,390.615c0.047-1.11,0.154-2.279,0.351-3.488"/>
<path fill="#0F510F" d="M209.672,476.147c7.897,7.217,20.655,9.363,20.655,9.363c-65.854,37.269,1.338,47.339,1.338,47.339
	c-14.828,4.842-23.384,8.972-27.387,11.158c-2.041,20.438,1.717,30.851,8.291,35.149c4.297-6.274,13.311-13.501,31.894-12.23
	c0,0-33.445-37.87,40.903-39.088c0,0-66.811-32.068,19.235-39.556c0,0-40.53-23.572,10.284-47.61
	C314.886,440.673,234.61,439.596,209.672,476.147z"/>
<path opacity="0.7" fill="#0D470D" d="M145.244,626.908l11.466,10.828c0,0-12.436-21.384,27.147-13.95
	c0,0-34.302-21.5,20.495-38.427c0,0-64.269-15.803,27.313-52.509c0,0-52.425,15.111-19.096,46.307l10.82,4.729
	c0,0-44.868,19.732-19.968,43.548c0,0-39.661,6.098-35.426,22.457c0,0-16.137-12.376-30.025-13.486"/>
<path opacity="0.8" fill="#0F510F" d="M118.86,665.225L118.86,665.225c0,0,21.411,17.669,22.317,50.089
	c0,0,3.218-50.225,57.212-5.908c53.994,44.319-0.008,1.329-0.008,1.329l12.571,11.482c0,0-46.146-17.016-64.387,11.876
	c-18.24,28.893-10.652-37.73-30.152-25.847c0,0-21.105,20.389-73.028-2.178l17.141-17.616
	C60.526,688.455,101.184,714.75,118.86,665.225z"/>
<path fill="#0F510F" d="M231.665,532.85"/>
<path fill="#F6E994" d="M86.559,893.733l31.091-0.635c0,0-8.327-18.871-14.292-23.086c0,0-17.659-0.824-19.633-4.732
	C83.725,865.28,100.253,889.147,86.559,893.733z"/>
<path fill="#F6E994" d="M162.676,879.968l-14.722,7.4l-2.3-0.014l-15.276-25.891l15.471-6.799
	C145.849,854.665,141.391,877.624,162.676,879.968z"/>
<path fill="#F6E994" d="M203.573,395.348l-9.084-1.973c0,0-2.08-16.224-1.757-23.949c0,0-7.065,6.26-8.661,7.673
	c0,0-11.938-13.756-12.624-17.811c0,0,26.495-4.204,40.828,0.243S203.573,395.348,203.573,395.348z"/>
<path fill="#F6E994" d="M141.124,371.358c0,0,6.431,19.411,17.075,23.14c0,0-14.412-2.095-15.687-4.431l-0.601,4.334
	c0,0-6.646,0.678-10.302,1.371l-4.022-21.664C127.588,374.108,135.246,371.285,141.124,371.358z"/>
<path fill="#F6E994" d="M77.233,520.931c0,0-0.374,0.216-1.03,0.563c-3.656,1.939-16.061,7.99-21.124,3.721
	c0,0,10.51,12.679,4.398,30.161c0,0-23.461-10.014-25.13-14.321c0,0-6.084-35.416,13.549-35.258"/>
<path fill="#F6E994" d="M59.779,221.447c0,0-2.537-17.146,5.25-29.958c0,0,5.714-8.446,11.574-8.934c0,0-6.729,30.505-8.163,31.215"
	/>
<path fill="#F6E994" d="M124.198,224.505l18.454-30.94c0,0,0.607,0.444,0.906,0.665"/>
<path fill="#F6E994" d="M124.203,223.735c0,0,18.853-22.538,16.387-31.604l-5.676-3.549c0,0-10.517,28.653-18.262,29.815
	L124.203,223.735z"/>
<path fill="#F6E994" d="M139.396,1103.94l-17.255,17.676c0,0-11.154-14.191,19.912-57.48
	C142.053,1064.136,135.214,1101.237,139.396,1103.94z"/>
<path fill="#F6E994" d="M230.479,1046.353l8.242-18.781c0,0,1.533-26.328-4.041-33.342c0,0-2.156,22.35-14.049,29.791
	L230.479,1046.353z"/>
<path fill="#910909" d="M117.299,646.162c0,0-27.886,4.896-40.565-27.665c0,0,6.959,19.226-29.065,27.51
	c0,0,11.741,24.639,31.193,16.386C98.314,654.141,79.051,650.179,117.299,646.162z"/>
<path fill="#910909" d="M79.272,593.395c0,0-4.899,8.24-2.539,25.103c0,0,2.431,13.168-7.923,18.716s-22.769-30.648-17.412-43.984
	s17.313-8.003,10.043-17.678C61.441,575.551,75.952,579.41,79.272,593.395z"/>
</svg>
