<?xml version="1.0" encoding="utf-8"?>
<!-- Generator: Adobe Illustrator 16.0.0, SVG Export Plug-In . SVG Version: 6.00 Build 0)  -->
<!DOCTYPE svg PUBLIC "-//W3C//DTD SVG 1.1//EN" "http://www.w3.org/Graphics/SVG/1.1/DTD/svg11.dtd">
<svg version="1.1" id="Calque_2" xmlns="http://www.w3.org/2000/svg" xmlns:xlink="http://www.w3.org/1999/xlink" x="0px" y="0px"
	 width="1252.644px" height="386.5px" viewBox="0 0 1252.644 386.5" enable-background="new 0 0 1252.644 386.5"
	 xml:space="preserve">
<line fill="none" x1="222.465" y1="162.293" x2="220.967" y2="161.32"/>
<line fill="none" x1="281.22" y1="137.266" x2="281.199" y2="137.256"/>
<path fill="none" d="M2.469,165.476c-0.01-0.011-0.029-0.011-0.039-0.021c-2.618-1.194-4.117-2.227-4.478-2.488
	c-0.029-0.02-0.049-0.029-0.059-0.04l-0.029-0.02"/>
<path fill="none" d="M359.527,115.673"/>
<path fill="none" d="M382.798,103.924"/>
<path fill="none" d="M434.97,233.737l-0.72-0.302c0.051,0.03,0.29,0.161,0.68,0.401C434.94,233.807,434.95,233.767,434.97,233.737z"
	/>
<path fill="none" d="M1032.254,55.707c-0.989-0.621-2.059-1.104-3.228-1.436"/>
<path fill="none" d="M1028.142,119.42c-0.381,0.458-0.752,0.909-1.112,1.348c0.249,0.251,0.52,0.491,0.788,0.721"/>
<g>
	<path fill="#FAF3CE" d="M-2.106,162.928c0.01,0.011,0.029,0.021,0.059,0.04l4.478,2.488c0.01,0.01,0.029,0.01,0.039,0.021"/>
	<path fill="#FAF3CE" d="M187.923,140.302l-3.707-1.927l-12.467-6.492c-37.954-26.736-66.001-0.116-66.001-0.116
		c-55.036,48.443-91.079,39.3-103.28,33.708l32.528,18.167c0,0,73.929,17.84,111.78-44.344c0,0,20.646-9.454,40.677,1.511h0.01
		C187.612,140.641,187.764,140.472,187.923,140.302z"/>
	<path fill="#FAF3CE" d="M268.968,200.715l-19.963-21.366l-26.54-17.056c45.502,56.31-15.718,66.852-15.718,66.852l0.014-7.369
		c6.09-51.24,13.352-58.727,13.352-58.727c0.271-0.59,0.563-1.169,0.854-1.729l-31.235-20.076l-1.809-0.942
		c-0.159,0.169-0.311,0.339-0.46,0.509h-0.01c-0.292,0.319-0.582,0.65-0.861,0.978c-21.476,25.023-8.301,62.766-8.301,62.766
		c17.957,24.702,47.272,32.753,47.272,32.753C284.893,242.753,268.968,200.715,268.968,200.715z"/>
	<path fill="#FAF3CE" d="M445.877,58.366l-25.432-15.325l-1.201-0.722c0,0-44.625-24.748-59.382,24.556
		c0,0-3.149,21.824-0.513,47.209c0.059,0.53,0.108,1.06,0.177,1.59c0.031,0.311,0.059,0.621,0.1,0.94
		c1.053,8.913,2.848,18.185,5.762,27.04c5.855-3.409,13.865-8.116,21.952-12.98c0.271-0.16,1.722-1.057,3.875-2.404
		c8.489-5.305,27.85-17.59,28.574-19.29l19.37-16.625c0,0,3.738-4.374,7.167-10.038c-0.388-0.411-0.798-0.832-1.216-1.251
		c0,0,0.62,0.171,1.689,0.441C451.722,73.106,455.562,62.253,445.877,58.366z M408.269,74.879
		c-6.271,11.489-21.791,23.462-21.791,23.462s-1.842,1.356-3.925,2.943c-1.431-28.293,37.019-56.135,37.019-56.135
		C436.33,40.929,408.269,74.879,408.269,74.879z"/>
	<path fill="#FAF3CE" d="M405.618,160.666l-0.698-1.562l-13.706-30.835c-2.153,1.347-3.604,2.244-3.875,2.404
		c-8.087,4.865-16.097,9.571-21.952,12.98c2.398,7.284,5.544,14.29,9.643,20.587l17.883,39.112l1.623,3.543
		c0,0,0.484-35.95-16.841-45.32c0,0,10.848,1.399,19.159,1.094h0.01C400.886,162.516,404.305,161.973,405.618,160.666z"/>
	<path fill="#FAF3CE" d="M365.388,143.654c-2.914-8.855-4.709-18.127-5.762-27.04c-0.041-0.319-0.069-0.63-0.1-0.94
		c-13.032,7.218-30.388,16.188-42.115,19.796c0,0-13.877,4.046-36.192,1.796l27.831,15.52c0,0,13.307,14.022,47.337-3.917
		C356.389,148.869,359.952,146.825,365.388,143.654z"/>
	<path fill="#FAF3CE" d="M281.199,137.256l-2.118-1.184c-25.977-13.385-33.972-15.91-33.972-15.91
		c-29.26,0.809-46.855,9.068-57.186,20.14l1.809,0.942l31.235,20.076c15.975-30.762,56.943-24.43,56.943-24.43
		C279.03,137.033,280.13,137.154,281.199,137.256z"/>
	<path fill="#FAF3CE" d="M545.811,193.912c0,0-0.471,0.329-1.272,0.958c-3.745,2.893-14.812,12.064-19.77,22.965
		c0,0-0.985-2.962-4.66-5.938v-0.01c-0.021-0.02-0.05-0.04-0.08-0.061c0,0-15.834,47.473-58.06,33.398l-27-11.486
		c-0.02,0.029-0.029,0.069-0.041,0.1c2.567,1.524,11.999,7.081,22.127,12.689c11.899,6.591,24.767,13.233,28.637,13.49
		c0,0,42.973,15.825,67.054-30.263c0,0-2.242-4.624-15.492-4.397c0,0,15.033-18.724,18.048-27.468
		C555.303,197.889,561.83,182.72,545.811,193.912z"/>
	<path fill="#FAF3CE" d="M1056.966,139.44l-15.596-7.357c-5.546-2.398-10.722-5.258-15.506-8.387
		c-6.884,7.539-12.499,11.249-12.499,11.249c-25.543,23.955-46.509,4.418-46.509,4.418c-30.683-38.304-85.495-2.4-85.495-2.4
		C871.741,63.194,774.315,21.023,774.315,21.023c-19.729-12.284-48.998-1.336-48.998-1.336
		c-14.527,3.895-26.337,32.225-28.095,36.63c-0.14,0.37-0.221,0.57-0.221,0.57c2.418,1.395,5.347,1.898,8.396,1.854
		c9.57-0.113,20.36-5.554,20.36-5.554c-0.07,0.15-0.131,0.309-0.182,0.47c-2.481,7.115,5.146,20.039,5.146,20.039
		s0.101-0.32,0.292-0.9c2.513-7.364,21.01-57.013,58.281-40.497l20.476,13.536c0,0,43.439,34.826,48.588,92.585l3.5,0.007
		c0,0-10.274,13.731,2.198,29.253l19.372,21.674l0.09,0.11c0,0-3.989-0.537-9.1-0.586c-4.069-0.038-8.841,0.244-12.852,1.367
		c-0.01,0-0.03,0.01-0.04,0.01c-0.01,0-0.01,0-0.01,0c-0.701,0.199-1.362,0.417-2.002,0.667c0,0-7.579,44.986-25.565,37.205
		c0,0-14.64-22.976-27.64-23.389c0,0,0,0-0.01,0c-0.51-0.021-1.01-0.001-1.51,0.058c-0.22,0.02-0.43,0.05-0.65,0.089
		c-0.56,0.099-1.11,0.238-1.65,0.438c0,0-13.51,5.476,3.715,20.256l28.973,15.551c0,0,32.215,19.807,48.263-7.166
		c0,0,18.549-28.216,10.117-66.731c0,0,38.055-31.183,64.546-26.137c0,0,11.499,1.02,15.245,2.527c0,0,51.688,35.591,75.742,4.883
		C1049.091,148.506,1052.527,145.222,1056.966,139.44z"/>
	<path fill="#FAF3CE" d="M1252.644,118.365c0,0-42.914-48.325-99.978-12.426c0,0-26.529,16.703-39.049,27.432
		c0,0-24.278,16.207-50.012,6.662l-4.446-2.288l-0.659-0.341c-0.521,0.708-1.032,1.388-1.534,2.037l36.36,17.145
		c0,0,31.718,18.556,54.264-7.405c0,0,26.295-25.703,49.804-30.662C1197.394,118.517,1223.412,108.563,1252.644,118.365z"/>
	<path fill="#FAF3CE" d="M1067.238,65.298c-4.951-5.118-12.453-9.642-23.729-12.302c0,0-80.966-19.643-60.046,25.895
		c0,0,14.833,26.836,42.401,44.804c0.642-0.698,1.292-1.437,1.953-2.207c0.361-0.418,0.732-0.849,1.093-1.288
		c-0.25-0.25-0.509-0.511-0.769-0.781c-6.078-6.251-15.39-17.197-16.204-26.229c0,0-6.058-35.08,18.786-37.396
		c0.5-0.049,1-0.078,1.53-0.088c3.67-0.152,7.97,0.395,12.997,1.794l19.728,6.994L1067.238,65.298z"/>
	<path fill="#FAF3CE" d="M1058.5,137.403l-25.117-12.924c0,0-3.048-0.876-5.565-2.99c-0.661,0.77-1.312,1.508-1.953,2.207
		c4.784,3.129,9.96,5.989,15.506,8.387l15.596,7.357C1057.468,138.792,1057.98,138.111,1058.5,137.403z"/>
	<path fill="#FAF3CE" d="M1076.186,94.554c0,0-0.26-17.351-11.207-30.06l-19.728-6.994c-5.027-1.399-9.327-1.946-12.997-1.794
		c13.355,8.444,10.677,41.789,10.677,41.789c-3.775,8.644-10.049,16.232-14.789,21.924c0.26,0.271,0.519,0.531,0.769,0.781
		c-0.36,0.439-0.731,0.869-1.093,1.288c2.518,2.114,5.565,2.99,5.565,2.99l25.117,12.924l0.659,0.341
		C1066.067,128.016,1074.335,112.031,1076.186,94.554z"/>
</g>
<path fill="none" d="M1064.979,64.495c-0.47-0.561-0.979-1.122-1.507-1.663"/>
<path fill="#B70808" d="M627.328,75.984c-11.88-5.67-20.249-17.484-21.004-31.327c-3.888-1.386-8.077-2.153-12.437-2.16
	c-10.43-0.02-19.858,4.274-26.609,11.212c-0.01,0.01-0.01,0.021-0.02,0.021c-1.202,1.237-2.315,2.565-3.328,3.964
	c-4.46,6.093-7.093,13.608-7.108,21.738c-0.034,19.16,14.509,34.945,33.175,36.868c1.23,0.132,2.49,0.195,3.76,0.196
	c4.459,0.008,8.741-0.774,12.704-2.208c-0.217-1.601-0.324-3.241-0.321-4.911C606.166,94.628,614.818,81.903,627.328,75.984z"/>
<path opacity="0.9" fill="#C10808" d="M680.256,42.648c0.003-1.53-0.085-3.021-0.271-4.501v-0.01
	c-2.188-18.314-17.764-32.521-36.663-32.555c-20.439-0.035-37.029,16.494-37.064,36.936c-0.001,0.72,0.017,1.43,0.066,2.139
	c0.755,13.843,9.125,25.657,21.004,31.327c4.814-2.281,10.196-3.551,15.876-3.541c5.681,0.01,11.059,1.299,15.864,3.598
	C671.568,70.124,680.23,57.398,680.256,42.648z"/>
<path fill="#126812" d="M556.822,79.431c0.015-8.13,2.647-15.646,7.108-21.738c-9.24-5.586-23.577-24.291-24.106-24.972
	c9.609,23.327-8.392,29.295-8.392,29.295c-7.237,4.268-28.739-7.081-29.308-7.372l7.302,11.003
	c14.957,24.687-29.369,21.609-29.369,21.609c-7.071,0.837-27.271-4.198-33.259-5.75c-0.161,0.271-0.322,0.541-0.473,0.81
	c29.606,30.792,0.616,37.421,0.616,37.421c-1.639,4.537-36.937-2.065-36.937-2.065c30.178,18.543,10.871,33.559-5.084,41.431
	l0.698,1.562c-1.313,1.307-4.732,1.851-8.753,2.004h-0.01c-8.312,0.305-19.159-1.094-19.159-1.094
	c17.325,9.37,16.841,45.32,16.841,45.32l-1.623-3.543c-2.314,7.446-7.042,17.838-17.666,26.089c0,0,48.695-15.445,56.304,14.568
	c0,0,1.028-4.378,3.377-10.173c-0.39-0.24-0.629-0.371-0.68-0.401l0.72,0.302c4.118-10.134,12.252-24.528,25.99-27.676
	c0,0,17.307,6.961,11.953,32.132c0.421-0.969,13.896-31.826,26.053-36.404c0,0,15.901-0.663,21.144,10.097v0.01
	c3.675,2.977,4.66,5.938,4.66,5.938c4.958-10.901,16.025-20.072,19.77-22.965c4.966-8.572,11.836-20.81,14.488-27.305
	c4.349-10.662,2.045-25.996-19.95-28.705c0,0,34.605-8.859,50.919-22.561C571.331,114.376,556.788,98.591,556.822,79.431z"/>
<path fill="none" d="M472.913,238.193c-0.01,0.01-0.01,0.02-0.01,0.02"/>
<path fill="none" d="M539.824,32.721c-0.01-0.011-0.01-0.021-0.01-0.021"/>
<path fill="none" d="M502.124,54.644c-0.01-0.01-0.01-0.01-0.01-0.01"/>
<path fill="#126812" d="M708.978,200.838c0-0.01,0-0.01-0.01-0.02c-0.02-0.041-0.04-0.08-0.07-0.121
	c-0.039-0.08-0.08-0.15-0.129-0.22c-2.583-4.225-28.093-44.27-41.142,0.608c0,0-17.222-55.67-39.286-19.089
	c0.262-1.02,9.395-36.503-13.29-28.333l10.78-11.511c-10.36-5.489-17.793-15.752-19.371-27.864
	c-3.962,1.434-8.244,2.215-12.704,2.208c-1.271-0.001-2.53-0.064-3.76-0.196C573.683,130,539.077,138.86,539.077,138.86
	c21.995,2.708,24.298,18.042,19.95,28.705c-2.652,6.496-9.522,18.733-14.488,27.305c0.801-0.628,1.272-0.958,1.272-0.958
	c16.02-11.192,9.493,3.977,9.493,3.977c-3.015,8.744-18.048,27.468-18.048,27.468c13.25-0.227,15.492,4.397,15.492,4.397
	s32.418,18.188,3.714,54.467c0,0,23.703-6.959,27.365-2.623c0,0,23.638,13.042-19.761,51.966c0,0,12.99,5.693,19.665,2.705
	c0,0,5.523,32.209-6.163,47.329c3.478-4.374,40.788-50.068,60.114-19.235c0,0-16.176-76.698,42.084-42.596
	c0,0-49.198-85.746,16.089-55.971c0,0-33.583-38.59-21.99-56.52C678.135,202.685,688.533,198.883,708.978,200.838z"/>
<path fill="none" d="M577.567,383.598c-0.041,0.05-0.07,0.09-0.11,0.139"/>
<path fill="none" d="M628.341,181.997c0,0.011-0.01,0.01-0.01,0.02"/>
<path fill="none" d="M577.567,383.598c-0.041,0.05-0.07,0.09-0.11,0.139c-0.07,0.081-0.11,0.142-0.13,0.171
	c-0.01,0.01-0.01,0.01-0.02,0.02"/>
<path fill="#C10808" d="M680.138,109.507c0.026-14.75-8.591-27.505-21.07-33.467c-4.806-2.299-10.184-3.588-15.864-3.598
	c-5.68-0.01-11.062,1.26-15.876,3.541c-12.51,5.919-21.162,18.644-21.188,33.393c-0.002,1.67,0.104,3.31,0.321,4.911
	c1.578,12.112,9.011,22.375,19.371,27.864c5.146,2.729,11.013,4.279,17.242,4.29C663.504,146.479,680.103,129.947,680.138,109.507z"
	/>
<path fill="none" d="M707.304,198.016c0,0,0.528,0.761,1.465,2.462"/>
<path fill="#126812" d="M864.857,167.683c-12.473-15.522-2.198-29.255-2.198-29.255l-3.5-0.006
	c-75.954,19.196-27.693-32.378-27.693-32.378c-73.366,20.201-49.624-26.217-49.624-26.217c-36.012,6.477-50.319-6.129-50.319-6.129
	s-7.976-13.514-4.964-20.509c0,0-18.767,9.468-28.757,3.7c-13.397-12.604-0.187-35.751-4.528-29.419
	c-2.516,3.656-8.604,7.815-13.288,10.667v0.01c0.187,1.48,0.274,2.971,0.271,4.501c-0.026,14.75-8.688,27.476-21.188,33.393
	c12.479,5.962,21.097,18.717,21.07,33.467c-0.035,20.44-16.634,36.972-37.064,36.935c-6.229-0.011-12.097-1.562-17.242-4.29
	l-10.78,11.511c22.685-8.17,13.552,27.313,13.29,28.333c22.064-36.581,39.286,19.089,39.286,19.089
	c13.049-44.877,38.559-4.833,41.142-0.608c0.049,0.07,0.09,0.14,0.129,0.22c0.03,0.041,0.051,0.08,0.07,0.121
	c0.01,0.01,0.01,0.01,0.01,0.02c2.203,3.994,6.368,12.532,11.272,27.34c0,0,9.788-67.233,47.333-1.536
	c0,0,2.093-12.767,9.276-20.694c5.681-6.269,14.546-9.514,28.082-1.06c13.474-2.387,29.809,23.242,29.809,23.242
	s1.599-38.678,27.567-37.872c0,0,0,0,0.01,0c9.054-2.544,21.991-0.792,21.991-0.792L864.857,167.683z"/>
<path fill="none" d="M865.817,190.594c-1.21-0.191-2.38-0.294-3.489-0.336"/>
<path fill="#0F510F" d="M776.86,205.948c-7.184,7.928-9.276,20.694-9.276,20.694c-37.545-65.697-47.333,1.536-47.333,1.536
	c-4.904-14.808-9.069-23.346-11.272-27.34c-20.445-1.955-30.843,1.846-35.114,8.438c6.292,4.271,13.557,13.254,12.363,31.842
	c0,0,37.729-33.604,39.259,40.739c0,0,31.788-66.944,39.637,19.069c0,0,23.401-40.629,47.652,10.084
	C812.775,311.011,813.515,230.733,776.86,205.948z"/>
<path opacity="0.7" fill="#0D470D" d="M625.832,142.152l-10.78,11.511c0,0,21.332-12.525,14.063,27.089
	c0,0,21.356-34.392,38.513,20.333c0,0,15.533-64.334,52.623,27.092c0,0-15.331-52.361-46.387-18.901l-4.683,10.84
	c0,0-19.921-44.785-43.632-19.785c0,0-6.265-39.635-22.605-35.331c0,0,12.308-16.188,13.36-30.082"/>
<path opacity="0.8" fill="#0F510F" d="M587.403,115.929L587.403,115.929c0,0-17.58,21.485-49.995,22.527
	c0,0,50.238,3.007,6.147,57.187c-44.092,54.18-1.329-0.002-1.329-0.002l-11.43,12.619c0,0,16.822-46.217-12.146-64.336
	c-28.969-18.119,37.686-10.811,25.72-30.26c0,0-20.477-21.02,1.872-73.037l17.688,17.066
	C563.93,57.693,537.804,98.46,587.403,115.929z"/>
<path fill="#0F510F" d="M720.25,228.178"/>
<path fill="#F6E994" d="M358.762,84.585l0.765,31.088c0,0,18.836-8.406,23.026-14.389c0,0,0.75-17.662,4.65-19.652
	C387.203,81.632,363.405,98.261,358.762,84.585z"/>
<path fill="#F6E994" d="M372.846,160.645l-7.462-14.69l0.004-2.3l25.827-15.385l6.863,15.442
	C398.078,143.711,375.101,139.35,372.846,160.645z"/>
<path fill="#F6E994" d="M857.633,199.51l1.935-9.092c0,0,16.215-2.148,23.941-1.857c0,0-6.289-7.039-7.709-8.629
	c0,0,13.705-11.996,17.758-12.699c0,0,4.314,26.478-0.072,40.829C889.099,222.414,857.633,199.51,857.633,199.51z"/>
<path fill="#F6E994" d="M881.362,136.961c0,0-19.384,6.512-23.068,17.172c0,0,2.034-14.421,4.365-15.705l-4.337-0.583
	c0,0-0.706-6.644-1.415-10.296l21.647-4.113C878.554,123.437,881.41,131.083,881.362,136.961z"/>
<path fill="#F6E994" d="M731.522,73.698c0,0-0.217-0.373-0.567-1.027c-1.954-3.648-8.058-16.027-3.81-21.108
	c0,0-12.635,10.563-30.142,4.524c0,0,9.915-23.502,14.215-25.189c0,0,35.39-6.232,35.314,13.401"/>
<path fill="#F6E994" d="M1030.93,54.989c0,0,17.136-2.609,29.979,5.124c0,0,8.47,5.679,8.981,11.537c0,0-30.533-6.601-31.248-8.032"
	/>
<path fill="#F6E994" d="M1028.142,119.42l31.018,18.324c0,0-0.441,0.609-0.661,0.909"/>
<path fill="#F6E994" d="M1028.912,119.421c0,0,22.616,18.758,31.672,16.254l3.525-5.69c0,0-28.696-10.396-29.891-18.137
	L1028.912,119.421z"/>
<path fill="#F6E994" d="M148.778,138.303l-17.748-17.181c0,0,14.145-11.214,57.563,19.671
	C188.593,140.793,151.463,134.11,148.778,138.303z"/>
<path fill="#F6E994" d="M206.747,229.145l18.816,8.163c0,0,26.334,1.423,33.324-4.181c0,0-22.358-2.063-29.85-13.924
	L206.747,229.145z"/>
<path fill="#910909" d="M606.46,114.288c0,0-5.014-27.865,27.494-40.681c0,0-19.196,7.039-27.631-28.95
	c0,0-24.589,11.845-16.255,31.262C598.402,95.337,602.282,76.057,606.46,114.288z"/>
<path fill="#910909" d="M659.068,76.041c0,0-8.261-4.864-25.113-2.434c0,0-13.158,2.485-18.749-7.845
	c-5.591-10.33,30.553-22.896,43.911-17.596s8.076,17.278,17.72,9.969C676.836,58.135,673.039,72.662,659.068,76.041z"/>
</svg>
