<!--?xml version="1.0" encoding="utf-8"?-->
<!-- Generator: Adobe Illustrator 16.0.0, SVG Export Plug-In . SVG Version: 6.00 Build 0)  -->

<svg version="1.1" id="Calque_1" xmlns="http://www.w3.org/2000/svg" xmlns:xlink="http://www.w3.org/1999/xlink" x="0px" y="0px" width="784px" height="126px" viewBox="0 0 784 126" enable-background="new 0 0 784 126" xml:space="preserve" style="">
<g>
	<path fill="none" stroke="#FFFFFF" stroke-width="5.6693" d="M64.897,80.815c1.23-3.178,2.528-6.723,3.896-10.636
		c1.367-3.913,2.623-7.876,3.768-11.892c1.145-4.015,2.093-7.919,2.845-11.712c0.751-3.793,1.128-7.176,1.128-10.149
		c0-2.255-0.154-4.134-0.461-5.638c-0.308-1.503-0.658-2.759-1.051-3.768c-0.393-1.008-0.743-1.836-1.051-2.486
		c-0.308-0.648-0.461-1.247-0.461-1.794c0-0.718,0.196-1.324,0.59-1.82c0.392-0.495,0.879-0.914,1.46-1.255
		c0.581-0.341,1.213-0.59,1.897-0.744c0.683-0.154,1.333-0.23,1.948-0.23c1.366,0,2.52,0.205,3.46,0.615
		c0.939,0.41,1.597,1.111,1.973,2.102c0.171,0.513,0.308,1.051,0.41,1.615c0.103,0.563,0.18,1.111,0.231,1.64
		c0.051,0.53,0.077,1.025,0.077,1.486s0,0.829,0,1.102c0,1.436-0.239,3.401-0.718,5.895c-0.479,2.495-1.12,5.314-1.922,8.458
		c-0.804,3.145-1.735,6.51-2.794,10.098c-1.06,3.588-2.153,7.202-3.28,10.841c-1.128,3.64-2.273,7.202-3.435,10.688
		c-1.162,3.486-2.255,6.707-3.28,9.662c-1.025,2.957-1.94,5.545-2.743,7.766c-0.803,2.222-1.427,3.879-1.871,4.972
		c-0.308,0.787-0.692,1.418-1.153,1.896c-0.461,0.479-0.983,0.846-1.563,1.102c-0.582,0.256-1.222,0.427-1.922,0.513
		c-0.701,0.085-1.427,0.128-2.178,0.128c-1.367,0-2.478-0.137-3.332-0.41c-0.854-0.274-1.546-0.615-2.076-1.025
		c-0.53-0.41-0.915-0.854-1.153-1.333c-0.24-0.478-0.428-0.905-0.564-1.282L32.143,34.221c-0.376-1.161-0.761-2.144-1.153-2.947
		c-0.393-0.803-0.871-1.461-1.435-1.974c-0.564-0.512-1.239-0.888-2.025-1.127c-0.786-0.239-1.76-0.359-2.921-0.359
		c-0.957,0-2.068,0.23-3.332,0.692c-1.265,0.461-2.469,1.146-3.614,2.05c-1.145,0.906-2.11,2.034-2.896,3.383
		c-0.787,1.35-1.179,2.914-1.179,4.69c0,1.094,0.145,1.965,0.436,2.614c0.29,0.649,0.623,1.137,1,1.461
		c0.375,0.325,0.76,0.53,1.153,0.615c0.393,0.085,0.674,0.128,0.846,0.128c0.854,0,1.555-0.145,2.102-0.436
		c0.546-0.29,1.042-0.598,1.486-0.923c0.444-0.324,0.863-0.632,1.256-0.922c0.393-0.29,0.846-0.436,1.358-0.436
		c0.41,0,0.846,0.095,1.307,0.282c0.461,0.188,0.888,0.487,1.282,0.897c0.392,0.41,0.726,0.948,1,1.615
		c0.273,0.666,0.41,1.479,0.41,2.435c0,1.367-0.265,2.546-0.795,3.537c-0.53,0.992-1.213,1.82-2.05,2.486
		c-0.837,0.667-1.794,1.162-2.87,1.486c-1.077,0.325-2.145,0.487-3.204,0.487c-1.64,0-3.101-0.29-4.382-0.872
		c-1.282-0.581-2.358-1.366-3.229-2.358c-0.871-0.991-1.538-2.144-1.999-3.46C8.23,45.952,8,44.542,8,43.038
		c0-3.554,0.683-6.655,2.05-9.303c1.366-2.648,3.178-4.861,5.434-6.638c2.255-1.776,4.818-3.101,7.688-3.972
		c2.871-0.872,5.826-1.307,8.868-1.307c3.417,0,6.219,0.521,8.407,1.563c2.187,1.043,3.955,2.384,5.305,4.024
		c1.35,1.64,2.417,3.478,3.204,5.51c0.786,2.034,1.486,4.042,2.102,6.023L64.897,80.815z" class="vKMCzuDZ_0"></path>
	<path fill="none" stroke="#FFFFFF" stroke-width="5.6693" d="M87.092,72.204c0-4.477,0.648-8.398,1.948-11.764
		c1.298-3.365,3.032-6.177,5.203-8.432c2.169-2.255,4.69-3.947,7.561-5.074c2.871-1.128,5.877-1.692,9.021-1.692
		c3.144,0,6.151,0.521,9.021,1.563c2.871,1.043,5.39,2.64,7.561,4.793c2.17,2.153,3.904,4.878,5.203,8.175
		c1.298,3.298,1.948,7.202,1.948,11.713c0,4.477-0.649,8.441-1.948,11.892c-1.299,3.452-3.033,6.356-5.203,8.714
		c-2.17,2.358-4.69,4.144-7.561,5.356c-2.87,1.212-5.878,1.82-9.021,1.82c-3.144,0-6.151-0.573-9.021-1.717s-5.391-2.845-7.561-5.1
		c-2.17-2.255-3.904-5.075-5.203-8.458C87.741,80.61,87.092,76.681,87.092,72.204z M118.616,71.691c0-2.734-0.095-5.374-0.282-7.919
		c-0.188-2.545-0.556-4.81-1.102-6.792c-0.547-1.981-1.333-3.563-2.358-4.741c-1.025-1.179-2.375-1.769-4.049-1.769
		c-1.675,0-3.024,0.624-4.049,1.871c-1.025,1.248-1.812,2.888-2.358,4.921c-0.547,2.033-0.906,4.349-1.076,6.945
		c-0.172,2.597-0.256,5.263-0.256,7.997s0.084,5.408,0.256,8.021c0.17,2.614,0.529,4.947,1.076,6.997
		c0.546,2.05,1.333,3.699,2.358,4.946c1.025,1.248,2.375,1.871,4.049,1.871c1.674,0,3.024-0.649,4.049-1.948
		c1.025-1.298,1.811-3.007,2.358-5.126c0.546-2.118,0.914-4.511,1.102-7.176C118.521,77.125,118.616,74.426,118.616,71.691z" class="vKMCzuDZ_1"></path>
	<path fill="none" stroke="#FFFFFF" stroke-width="5.6693" d="M188.943,89.529c0,0.308,0.017,0.641,0.051,1
		c0.033,0.359,0.119,0.701,0.256,1.025c0.136,0.325,0.341,0.589,0.615,0.794c0.273,0.205,0.667,0.308,1.179,0.308
		c0.648,0,1.23-0.231,1.743-0.692c0.513-0.461,0.991-0.931,1.435-1.41l1.23,1.077c-0.513,0.718-1.153,1.512-1.922,2.383
		c-0.769,0.872-1.7,1.701-2.793,2.486c-1.094,0.787-2.341,1.444-3.742,1.973c-1.401,0.53-2.99,0.795-4.767,0.795
		c-1.504,0-2.811-0.197-3.921-0.59c-1.111-0.392-2.05-0.922-2.819-1.589s-1.342-1.452-1.717-2.358
		c-0.376-0.905-0.564-1.871-0.564-2.896v-2.307c-1.709,1.845-3.503,3.469-5.382,4.87c-0.82,0.615-1.691,1.213-2.614,1.794
		c-0.923,0.582-1.88,1.102-2.871,1.563c-0.991,0.461-2.017,0.828-3.075,1.102c-1.06,0.273-2.12,0.41-3.178,0.41
		c-2.05,0-3.802-0.368-5.254-1.102c-1.453-0.735-2.623-1.7-3.511-2.896c-0.889-1.196-1.538-2.545-1.948-4.049
		c-0.41-1.503-0.615-3.006-0.615-4.511V54.981c0-0.308-0.018-0.641-0.051-1c-0.035-0.359-0.12-0.7-0.256-1.025
		c-0.137-0.324-0.342-0.589-0.615-0.794c-0.274-0.205-0.666-0.308-1.179-0.308c-0.615,0-1.188,0.231-1.717,0.692
		c-0.53,0.461-1,0.931-1.41,1.41l-1.281-1.077c0.513-0.718,1.153-1.512,1.922-2.383c0.769-0.872,1.7-1.7,2.794-2.486
		c1.093-0.786,2.349-1.443,3.768-1.974c1.417-0.529,2.999-0.794,4.741-0.794c1.503,0,2.819,0.197,3.947,0.59
		c1.128,0.393,2.067,0.922,2.819,1.589c0.751,0.667,1.315,1.453,1.691,2.358c0.376,0.906,0.564,1.871,0.564,2.896v34.241
		c0,0.479,0.077,0.966,0.23,1.461c0.154,0.496,0.376,0.948,0.667,1.358c0.29,0.41,0.658,0.743,1.102,1
		c0.444,0.256,0.974,0.384,1.589,0.384c0.991,0,1.981-0.256,2.973-0.769c0.991-0.513,1.896-1.119,2.717-1.82
		c0.82-0.7,1.529-1.392,2.127-2.076c0.597-0.683,1.033-1.196,1.307-1.538V54.981c0-0.308-0.018-0.641-0.051-1
		c-0.034-0.359-0.12-0.7-0.256-1.025c-0.137-0.324-0.342-0.589-0.615-0.794c-0.274-0.205-0.667-0.308-1.179-0.308
		c-0.615,0-1.188,0.231-1.717,0.692c-0.53,0.461-1,0.931-1.41,1.41l-1.282-1.077c0.513-0.718,1.153-1.512,1.922-2.383
		c0.769-0.872,1.7-1.7,2.793-2.486c1.093-0.786,2.349-1.443,3.768-1.974c1.417-0.529,2.999-0.794,4.742-0.794
		c1.503,0,2.819,0.197,3.947,0.59c1.127,0.393,2.067,0.922,2.819,1.589c0.751,0.667,1.315,1.453,1.691,2.358
		c0.375,0.906,0.564,1.871,0.564,2.896V89.529z" class="vKMCzuDZ_2"></path>
	<path fill="none" stroke="#FFFFFF" stroke-width="5.6693" d="M218.878,49.343c-0.787,0-1.53,0.102-2.23,0.307
		c-0.701,0.205-1.325,0.539-1.871,1c-0.547,0.461-0.974,1.043-1.282,1.743c-0.308,0.701-0.461,1.53-0.461,2.486
		c0,1.333,0.487,2.658,1.46,3.973c0.974,1.316,2.187,2.683,3.64,4.101c1.452,1.418,3.024,2.888,4.716,4.408
		c1.691,1.521,3.263,3.127,4.716,4.818c1.452,1.691,2.666,3.495,3.639,5.408c0.974,1.914,1.461,3.965,1.461,6.151
		c0,2.46-0.419,4.648-1.256,6.562c-0.838,1.914-2.034,3.537-3.588,4.869c-1.556,1.333-3.435,2.35-5.639,3.05
		c-2.204,0.7-4.657,1.051-7.355,1.051c-2.358,0-4.494-0.333-6.407-1c-1.915-0.667-3.614-1.487-5.101-2.46
		c-1.486-0.974-2.76-2.007-3.819-3.101c-1.06-1.093-1.879-2.084-2.46-2.973l1.794-1.282c0.443,0.513,1.007,1.069,1.691,1.666
		c0.683,0.598,1.443,1.153,2.281,1.666c0.837,0.513,1.734,0.932,2.691,1.256c0.956,0.325,1.93,0.487,2.922,0.487
		c2.46,0,4.476-0.589,6.048-1.769c1.571-1.179,2.358-2.93,2.358-5.254c0-1.298-0.428-2.64-1.282-4.024
		c-0.854-1.384-1.931-2.81-3.229-4.28c-1.299-1.469-2.7-2.99-4.203-4.562c-1.504-1.571-2.905-3.195-4.203-4.87
		c-1.299-1.674-2.376-3.4-3.229-5.177c-0.854-1.776-1.281-3.622-1.281-5.536c0-2.153,0.436-4.032,1.307-5.639
		c0.872-1.606,2.033-2.938,3.486-3.998c1.452-1.059,3.109-1.854,4.972-2.384c1.862-0.529,3.784-0.794,5.767-0.794
		c2.289,0,4.374,0.205,6.253,0.615c1.879,0.41,3.494,1.034,4.844,1.871c1.35,0.837,2.392,1.888,3.127,3.152
		c0.734,1.265,1.102,2.734,1.102,4.408c0,1.299-0.428,2.427-1.281,3.383c-0.855,0.958-2.051,1.436-3.588,1.436
		c-1.47,0-2.588-0.315-3.357-0.948c-0.769-0.632-1.153-1.495-1.153-2.589c0-0.717,0.18-1.281,0.538-1.691
		c0.359-0.41,0.76-0.743,1.205-1c0.444-0.256,0.846-0.478,1.205-0.667c0.359-0.187,0.539-0.436,0.539-0.743
		c0-0.956-0.513-1.717-1.538-2.281C221.8,49.625,220.484,49.343,218.878,49.343z" class="vKMCzuDZ_3"></path>
	<path fill="none" stroke="#FFFFFF" stroke-width="5.6693" d="M282.285,49.343c-0.787,0-1.53,0.102-2.23,0.307
		c-0.701,0.205-1.325,0.539-1.871,1c-0.547,0.461-0.974,1.043-1.282,1.743c-0.308,0.701-0.461,1.53-0.461,2.486
		c0,1.333,0.487,2.658,1.46,3.973c0.974,1.316,2.187,2.683,3.64,4.101c1.452,1.418,3.024,2.888,4.716,4.408
		c1.691,1.521,3.263,3.127,4.716,4.818c1.452,1.691,2.666,3.495,3.639,5.408c0.974,1.914,1.461,3.965,1.461,6.151
		c0,2.46-0.419,4.648-1.256,6.562c-0.838,1.914-2.034,3.537-3.588,4.869c-1.556,1.333-3.435,2.35-5.639,3.05
		c-2.204,0.7-4.657,1.051-7.355,1.051c-2.358,0-4.494-0.333-6.407-1c-1.915-0.667-3.614-1.487-5.101-2.46
		c-1.486-0.974-2.76-2.007-3.819-3.101c-1.06-1.093-1.879-2.084-2.46-2.973l1.794-1.282c0.443,0.513,1.007,1.069,1.691,1.666
		c0.683,0.598,1.443,1.153,2.281,1.666c0.837,0.513,1.734,0.932,2.691,1.256c0.956,0.325,1.93,0.487,2.922,0.487
		c2.46,0,4.476-0.589,6.048-1.769c1.571-1.179,2.358-2.93,2.358-5.254c0-1.298-0.428-2.64-1.282-4.024
		c-0.854-1.384-1.931-2.81-3.229-4.28c-1.299-1.469-2.7-2.99-4.203-4.562c-1.504-1.571-2.905-3.195-4.203-4.87
		c-1.299-1.674-2.376-3.4-3.229-5.177c-0.854-1.776-1.281-3.622-1.281-5.536c0-2.153,0.436-4.032,1.307-5.639
		c0.872-1.606,2.033-2.938,3.486-3.998c1.452-1.059,3.109-1.854,4.972-2.384c1.862-0.529,3.784-0.794,5.767-0.794
		c2.289,0,4.374,0.205,6.253,0.615c1.879,0.41,3.494,1.034,4.844,1.871c1.35,0.837,2.392,1.888,3.127,3.152
		c0.734,1.265,1.102,2.734,1.102,4.408c0,1.299-0.428,2.427-1.281,3.383c-0.855,0.958-2.051,1.436-3.588,1.436
		c-1.47,0-2.588-0.315-3.357-0.948c-0.769-0.632-1.153-1.495-1.153-2.589c0-0.717,0.18-1.281,0.538-1.691
		c0.359-0.41,0.76-0.743,1.205-1c0.444-0.256,0.846-0.478,1.205-0.667c0.359-0.187,0.539-0.436,0.539-0.743
		c0-0.956-0.513-1.717-1.538-2.281C285.207,49.625,283.891,49.343,282.285,49.343z" class="vKMCzuDZ_4"></path>
	<path fill="none" stroke="#FFFFFF" stroke-width="5.6693" d="M302.327,72.204c0-4.477,0.648-8.398,1.948-11.764
		c1.298-3.365,3.032-6.177,5.203-8.432c2.169-2.255,4.69-3.947,7.561-5.074c2.871-1.128,5.877-1.692,9.021-1.692
		c3.144,0,6.151,0.521,9.021,1.563c2.871,1.043,5.39,2.64,7.561,4.793c2.17,2.153,3.904,4.878,5.203,8.175
		c1.298,3.298,1.948,7.202,1.948,11.713c0,4.477-0.649,8.441-1.948,11.892c-1.299,3.452-3.033,6.356-5.203,8.714
		c-2.17,2.358-4.69,4.144-7.561,5.356c-2.87,1.212-5.878,1.82-9.021,1.82c-3.144,0-6.151-0.573-9.021-1.717s-5.391-2.845-7.561-5.1
		c-2.17-2.255-3.904-5.075-5.203-8.458C302.975,80.61,302.327,76.681,302.327,72.204z M333.851,71.691
		c0-2.734-0.095-5.374-0.282-7.919c-0.188-2.545-0.556-4.81-1.102-6.792c-0.547-1.981-1.333-3.563-2.358-4.741
		c-1.025-1.179-2.375-1.769-4.049-1.769c-1.675,0-3.024,0.624-4.049,1.871c-1.025,1.248-1.812,2.888-2.358,4.921
		c-0.547,2.033-0.906,4.349-1.076,6.945c-0.172,2.597-0.256,5.263-0.256,7.997s0.084,5.408,0.256,8.021
		c0.17,2.614,0.529,4.947,1.076,6.997c0.546,2.05,1.333,3.699,2.358,4.946c1.025,1.248,2.375,1.871,4.049,1.871
		c1.674,0,3.024-0.649,4.049-1.948c1.025-1.298,1.811-3.007,2.358-5.126c0.546-2.118,0.914-4.511,1.102-7.176
		C333.756,77.125,333.851,74.426,333.851,71.691z" class="vKMCzuDZ_5"></path>
	<path fill="none" stroke="#FFFFFF" stroke-width="5.6693" d="M404.178,89.529c0,0.308,0.017,0.641,0.051,1
		c0.033,0.359,0.119,0.701,0.256,1.025c0.136,0.325,0.341,0.589,0.615,0.794c0.273,0.205,0.667,0.308,1.179,0.308
		c0.648,0,1.23-0.231,1.743-0.692c0.513-0.461,0.991-0.931,1.435-1.41l1.23,1.077c-0.513,0.718-1.153,1.512-1.922,2.383
		c-0.769,0.872-1.7,1.701-2.793,2.486c-1.094,0.787-2.341,1.444-3.742,1.973c-1.401,0.53-2.99,0.795-4.767,0.795
		c-1.504,0-2.811-0.197-3.921-0.59c-1.111-0.392-2.05-0.922-2.819-1.589s-1.342-1.452-1.717-2.358
		c-0.376-0.905-0.564-1.871-0.564-2.896v-2.307c-1.709,1.845-3.503,3.469-5.382,4.87c-0.82,0.615-1.691,1.213-2.614,1.794
		c-0.923,0.582-1.88,1.102-2.871,1.563c-0.991,0.461-2.017,0.828-3.075,1.102c-1.06,0.273-2.12,0.41-3.178,0.41
		c-2.05,0-3.802-0.368-5.254-1.102c-1.453-0.735-2.623-1.7-3.511-2.896c-0.889-1.196-1.538-2.545-1.948-4.049
		c-0.41-1.503-0.615-3.006-0.615-4.511V54.981c0-0.308-0.018-0.641-0.051-1c-0.035-0.359-0.12-0.7-0.256-1.025
		c-0.137-0.324-0.342-0.589-0.615-0.794c-0.274-0.205-0.666-0.308-1.179-0.308c-0.615,0-1.188,0.231-1.717,0.692
		c-0.53,0.461-1,0.931-1.41,1.41l-1.281-1.077c0.513-0.718,1.153-1.512,1.922-2.383c0.769-0.872,1.7-1.7,2.794-2.486
		c1.093-0.786,2.349-1.443,3.768-1.974c1.417-0.529,2.999-0.794,4.741-0.794c1.503,0,2.819,0.197,3.947,0.59
		c1.128,0.393,2.067,0.922,2.819,1.589c0.751,0.667,1.315,1.453,1.691,2.358c0.376,0.906,0.564,1.871,0.564,2.896v34.241
		c0,0.479,0.077,0.966,0.23,1.461c0.154,0.496,0.376,0.948,0.667,1.358c0.29,0.41,0.658,0.743,1.102,1
		c0.444,0.256,0.974,0.384,1.589,0.384c0.991,0,1.981-0.256,2.973-0.769c0.991-0.513,1.896-1.119,2.717-1.82
		c0.82-0.7,1.529-1.392,2.127-2.076c0.597-0.683,1.033-1.196,1.307-1.538V54.981c0-0.308-0.018-0.641-0.051-1
		c-0.034-0.359-0.12-0.7-0.256-1.025c-0.137-0.324-0.342-0.589-0.615-0.794c-0.274-0.205-0.667-0.308-1.179-0.308
		c-0.615,0-1.188,0.231-1.717,0.692c-0.53,0.461-1,0.931-1.41,1.41l-1.282-1.077c0.513-0.718,1.153-1.512,1.922-2.383
		c0.769-0.872,1.7-1.7,2.793-2.486c1.093-0.786,2.349-1.443,3.768-1.974c1.417-0.529,2.999-0.794,4.742-0.794
		c1.503,0,2.819,0.197,3.947,0.59c1.127,0.393,2.067,0.922,2.819,1.589c0.751,0.667,1.315,1.453,1.691,2.358
		c0.375,0.906,0.564,1.871,0.564,2.896V89.529z" class="vKMCzuDZ_6"></path>
	<path fill="none" stroke="#FFFFFF" stroke-width="5.6693" d="M433.497,54.981c1.264-1.811,2.699-3.434,4.306-4.87
		c0.649-0.615,1.375-1.212,2.179-1.794c0.802-0.581,1.657-1.102,2.563-1.563c0.905-0.461,1.862-0.828,2.871-1.102
		c1.007-0.273,2.042-0.41,3.101-0.41c2.289,0,4.339,0.445,6.151,1.333c1.811,0.889,3.332,2.375,4.562,4.459
		c1.23,2.084,2.169,4.844,2.819,8.278c0.648,3.434,0.974,7.697,0.974,12.789c0,4.955-0.444,9.261-1.333,12.917
		c-0.889,3.657-2.05,6.766-3.486,9.329c-1.435,2.563-3.059,4.656-4.869,6.279c-1.812,1.623-3.64,2.896-5.485,3.818
		c-1.845,0.923-3.623,1.563-5.331,1.922c-1.709,0.359-3.178,0.555-4.408,0.589l-0.513-2.102c1.538-0.376,2.904-1.076,4.101-2.102
		c1.196-1.025,2.204-2.708,3.024-5.049c0.82-2.34,1.443-5.493,1.871-9.458c0.427-3.963,0.641-9.073,0.641-15.326
		c0-4.306-0.197-7.748-0.589-10.329c-0.393-2.58-0.906-4.544-1.538-5.895c-0.633-1.35-1.351-2.238-2.153-2.666
		c-0.804-0.427-1.615-0.641-2.435-0.641c-0.991,0-1.863,0.265-2.614,0.794c-0.752,0.53-1.41,1.136-1.973,1.82
		c-0.564,0.684-1.043,1.367-1.436,2.05c-0.393,0.684-0.726,1.196-1,1.538v34.241c0,0.444-0.069,0.983-0.205,1.615
		c-0.137,0.633-0.47,1.23-1,1.794c-0.53,0.564-1.316,1.043-2.358,1.435c-1.042,0.393-2.469,0.59-4.28,0.59
		c-1.812,0-3.247-0.214-4.306-0.641c-1.06-0.427-1.854-0.931-2.384-1.512c-0.53-0.581-0.863-1.179-1-1.794
		c-0.137-0.615-0.205-1.11-0.205-1.486V27.711c0-0.991-0.23-1.854-0.692-2.588c-0.461-0.734-1.239-1.102-2.333-1.102
		c-0.581,0-1.085,0.094-1.512,0.282c-0.428,0.188-0.88,0.47-1.358,0.846l-1.025-1.23c0.786-0.649,1.657-1.29,2.614-1.922
		c0.957-0.632,2.007-1.187,3.152-1.666c1.145-0.478,2.366-0.871,3.665-1.179c1.298-0.308,2.666-0.461,4.101-0.461
		c2.221,0,3.947,0.299,5.177,0.897c1.23,0.598,2.135,1.333,2.717,2.204c0.581,0.872,0.931,1.794,1.051,2.768
		c0.119,0.974,0.179,1.837,0.179,2.588V54.981z" class="vKMCzuDZ_7"></path>
	<path fill="none" stroke="#FFFFFF" stroke-width="5.6693" d="M488.549,49.445c-1.162,0-2.239,0.137-3.229,0.41
		c-0.992,0.274-1.845,0.615-2.563,1.025c-0.717,0.41-1.281,0.863-1.691,1.358c-0.41,0.496-0.615,0.966-0.615,1.41
		c0,0.512,0.264,0.88,0.794,1.102c0.53,0.223,1.119,0.479,1.769,0.769c0.649,0.291,1.238,0.701,1.769,1.23
		c0.529,0.53,0.794,1.341,0.794,2.435c0,0.718-0.146,1.376-0.436,1.974c-0.291,0.598-0.684,1.127-1.179,1.589
		c-0.496,0.461-1.076,0.82-1.743,1.077s-1.358,0.384-2.076,0.384c-1.914,0-3.46-0.649-4.639-1.948
		c-1.179-1.298-1.769-3.024-1.769-5.177c0-2.084,0.546-3.87,1.64-5.356c1.093-1.486,2.52-2.708,4.28-3.665
		c1.76-0.956,3.75-1.666,5.972-2.127c2.221-0.461,4.442-0.692,6.664-0.692c2.666,0,5.211,0.291,7.638,0.872
		c2.426,0.582,4.57,1.504,6.433,2.768c1.862,1.265,3.349,2.87,4.459,4.818c1.11,1.948,1.666,4.306,1.666,7.074v28.961
		c0,0.308,0.017,0.649,0.051,1.025c0.034,0.376,0.12,0.718,0.256,1.025c0.136,0.308,0.341,0.564,0.615,0.769
		c0.273,0.205,0.666,0.307,1.179,0.307c0.615,0,1.187-0.23,1.717-0.692c0.529-0.461,1-0.931,1.41-1.41l1.281,1.077
		c-0.512,0.718-1.127,1.504-1.845,2.358c-0.718,0.854-1.589,1.658-2.614,2.409c-1.025,0.752-2.222,1.384-3.588,1.896
		c-1.367,0.513-2.922,0.769-4.665,0.769c-2.153,0-4.067-0.641-5.741-1.922s-2.768-3.255-3.28-5.92c-1.094,1.47-2.23,2.7-3.409,3.69
		c-1.179,0.992-2.384,1.794-3.614,2.409c-1.23,0.615-2.469,1.059-3.716,1.333c-1.248,0.273-2.503,0.41-3.768,0.41
		c-1.64,0-3.229-0.256-4.767-0.769c-1.538-0.513-2.914-1.324-4.126-2.435c-1.213-1.11-2.188-2.554-2.922-4.332
		c-0.735-1.776-1.102-3.947-1.102-6.51c0-3.109,0.615-5.655,1.845-7.638c1.23-1.981,2.845-3.647,4.844-4.998
		c2-1.35,4.271-2.503,6.817-3.46c2.545-0.957,5.152-1.965,7.817-3.024c1.981-0.786,3.425-1.956,4.331-3.511
		c0.905-1.555,1.358-3.152,1.358-4.792c0-2.529-0.743-4.553-2.23-6.074C493.137,50.206,491.112,49.445,488.549,49.445z
		 M496.699,71.896c0-0.854-0.274-1.503-0.82-1.948c-0.547-0.443-1.248-0.666-2.102-0.666c-1.196,0-2.332,0.274-3.409,0.82
		c-1.076,0.547-2.024,1.351-2.845,2.409c-0.82,1.06-1.47,2.367-1.948,3.921c-0.479,1.556-0.718,3.357-0.718,5.408
		c0,1.982,0.145,3.623,0.436,4.921c0.29,1.299,0.683,2.333,1.179,3.101c0.495,0.769,1.068,1.307,1.717,1.615
		c0.648,0.308,1.333,0.461,2.05,0.461c0.888,0,1.725-0.231,2.512-0.692c0.786-0.461,1.469-1.051,2.05-1.769
		c0.581-0.718,1.042-1.52,1.384-2.409c0.341-0.888,0.513-1.776,0.513-2.666V71.896z" class="vKMCzuDZ_8"></path>
	<path fill="none" stroke="#FFFFFF" stroke-width="5.6693" d="M542.268,93.835c0,0.444-0.077,0.983-0.23,1.615
		c-0.154,0.633-0.513,1.23-1.077,1.794s-1.376,1.043-2.435,1.435c-1.06,0.393-2.495,0.59-4.306,0.59
		c-1.812,0-3.229-0.214-4.255-0.641c-1.025-0.427-1.794-0.931-2.307-1.512c-0.512-0.581-0.829-1.179-0.948-1.794
		c-0.12-0.615-0.179-1.11-0.179-1.486V54.263c0-0.991-0.23-1.853-0.692-2.588c-0.461-0.734-1.239-1.102-2.333-1.102
		c-0.582,0-1.076,0.103-1.486,0.308s-0.854,0.496-1.333,0.871l-1.076-1.281c0.786-0.649,1.666-1.29,2.64-1.922
		c0.974-0.632,2.025-1.187,3.152-1.666c1.128-0.479,2.34-0.872,3.64-1.179c1.298-0.308,2.666-0.461,4.101-0.461
		c2.221,0,3.947,0.3,5.177,0.897c1.23,0.599,2.135,1.333,2.717,2.204c0.581,0.872,0.931,1.803,1.051,2.794
		c0.119,0.991,0.179,1.863,0.179,2.614V93.835z M524.943,33.555c0-0.956,0.213-1.871,0.641-2.742
		c0.427-0.871,1.025-1.631,1.794-2.281c0.769-0.649,1.657-1.162,2.666-1.538c1.007-0.375,2.109-0.563,3.306-0.563
		c1.161,0,2.247,0.188,3.255,0.563c1.007,0.376,1.888,0.889,2.64,1.538c0.751,0.649,1.341,1.41,1.769,2.281
		c0.427,0.872,0.641,1.786,0.641,2.742c0,0.992-0.214,1.915-0.641,2.768c-0.428,0.854-1.017,1.598-1.769,2.23
		c-0.752,0.633-1.632,1.136-2.64,1.512c-1.008,0.376-2.094,0.563-3.255,0.563c-1.197,0-2.299-0.187-3.306-0.563
		c-1.008-0.376-1.896-0.879-2.666-1.512c-0.769-0.632-1.367-1.375-1.794-2.23C525.156,35.469,524.943,34.546,524.943,33.555z" class="vKMCzuDZ_9"></path>
	<path fill="none" stroke="#FFFFFF" stroke-width="5.6693" d="M571.793,49.65v37.88c0,1.812,0.341,3.067,1.025,3.768
		c0.684,0.701,1.623,1.051,2.819,1.051c0.923,0,1.743-0.256,2.46-0.769s1.333-1.093,1.845-1.743
		c0.615-0.718,1.145-1.555,1.589-2.512l1.589,0.718c-0.513,1.094-1.12,2.29-1.82,3.588c-0.701,1.299-1.632,2.503-2.793,3.614
		c-1.162,1.111-2.623,2.042-4.383,2.793c-1.76,0.751-3.972,1.128-6.638,1.128c-1.504,0-2.947-0.223-4.332-0.667
		c-1.384-0.444-2.614-1.145-3.69-2.102c-1.077-0.957-1.94-2.153-2.589-3.588c-0.649-1.435-0.974-3.16-0.974-5.177V49.65h-5.741
		v-3.69c0.957,0,2.289-0.248,3.999-0.743c1.708-0.495,3.46-1.324,5.254-2.486c1.794-1.161,3.46-2.716,4.998-4.665
		c1.538-1.948,2.631-4.357,3.281-7.227h4.101v15.121h8.355c2.734,0,4.101-0.461,4.101-1.384c0-0.341-0.171-0.572-0.512-0.692
		c-0.342-0.119-0.727-0.273-1.153-0.461c-0.428-0.188-0.813-0.453-1.153-0.795c-0.342-0.341-0.513-0.905-0.513-1.691
		c0-0.956,0.299-1.708,0.897-2.255c0.598-0.546,1.375-0.82,2.332-0.82c0.615,0,1.153,0.128,1.615,0.384s0.846,0.598,1.153,1.025
		c0.308,0.428,0.539,0.915,0.692,1.461c0.154,0.547,0.231,1.094,0.231,1.641c0,2.222-0.641,3.99-1.922,5.305
		c-1.281,1.316-3.34,1.973-6.177,1.973H571.793z" class="vKMCzuDZ_10"></path>
	<path fill="none" stroke="#FFFFFF" stroke-width="5.6693" d="M602.753,74.92c0,1.094,0.162,2.281,0.487,3.563
		c0.324,1.282,0.794,2.572,1.41,3.87c0.615,1.299,1.375,2.537,2.281,3.716c0.905,1.179,1.948,2.229,3.127,3.152
		c1.179,0.923,2.486,1.658,3.921,2.204c1.436,0.547,3.007,0.82,4.716,0.82c1.196,0,2.307-0.136,3.332-0.41
		c1.025-0.273,1.981-0.649,2.871-1.128c0.888-0.478,1.743-1.033,2.563-1.666c0.82-0.632,1.64-1.307,2.46-2.025l1.282,1.23
		c-0.787,1.06-1.794,2.222-3.024,3.486c-1.23,1.265-2.717,2.452-4.459,3.563c-1.743,1.111-3.776,2.034-6.1,2.768
		c-2.324,0.734-4.972,1.102-7.945,1.102c-2.973,0-5.869-0.539-8.688-1.615c-2.819-1.077-5.323-2.691-7.51-4.844
		c-2.187-2.153-3.938-4.835-5.254-8.048c-1.316-3.211-1.973-6.971-1.973-11.277c0-3.109,0.392-5.963,1.179-8.56
		c0.786-2.597,1.854-4.938,3.204-7.022c1.35-2.084,2.922-3.913,4.716-5.485c1.794-1.571,3.682-2.878,5.664-3.921
		c1.981-1.042,4.006-1.828,6.074-2.358c2.067-0.529,4.058-0.794,5.972-0.794c2.528,0,4.732,0.274,6.612,0.82
		c1.879,0.547,3.442,1.281,4.69,2.204c1.247,0.923,2.179,1.991,2.794,3.204c0.615,1.213,0.922,2.486,0.922,3.819
		c0,1.606-0.461,3.05-1.384,4.332c-0.923,1.281-2.153,2.401-3.69,3.357L602.753,74.92z M613.056,64.515
		c0.444-0.273,0.811-0.538,1.102-0.794c0.29-0.256,0.521-0.564,0.692-0.923c0.17-0.359,0.299-0.802,0.384-1.333
		c0.085-0.53,0.128-1.187,0.128-1.974c0-0.854-0.095-1.802-0.282-2.845c-0.188-1.042-0.504-2.025-0.948-2.947
		c-0.444-0.923-1.008-1.692-1.691-2.307c-0.684-0.615-1.504-0.923-2.46-0.923c-1.23,0-2.281,0.368-3.152,1.102
		c-0.872,0.735-1.589,1.684-2.153,2.845c-0.564,1.162-1.008,2.486-1.333,3.973c-0.325,1.486-0.573,2.982-0.744,4.485
		c-0.171,1.504-0.274,2.947-0.307,4.331c-0.035,1.384-0.051,2.555-0.051,3.511L613.056,64.515z" class="vKMCzuDZ_11"></path>
	<path fill="none" stroke="#FFFFFF" stroke-width="5.6693" d="M689.584,48.061c-0.648-3.417-1.555-6.604-2.715-9.56
		c-1.162-2.956-2.557-5.51-4.178-7.663c-1.625-2.153-3.469-3.845-5.537-5.075c-2.068-1.23-4.297-1.845-6.689-1.845
		c-1.367,0-2.605,0.171-3.715,0.512c-1.111,0.342-2.076,0.744-2.896,1.205c-0.82,0.461-1.496,0.906-2.025,1.333
		c-0.529,0.428-0.914,0.743-1.152,0.948l-1.334-1.794c0.82-1.059,1.82-2.05,3-2.973c1.178-0.923,2.467-1.708,3.869-2.358
		c1.4-0.649,2.879-1.161,4.434-1.538c1.555-0.376,3.102-0.564,4.639-0.564c5.057,0,9.5,1.102,13.328,3.306
		c3.826,2.204,7.021,5.323,9.586,9.354c2.563,4.033,4.492,8.902,5.791,14.609c1.299,5.708,1.947,12.046,1.947,19.017
		c0,5.638-0.572,10.594-1.717,14.865c-1.145,4.272-2.775,7.852-4.895,10.739c-2.119,2.888-4.689,5.058-7.715,6.51
		c-3.023,1.452-6.434,2.179-10.227,2.179c-2.631,0-5.305-0.47-8.021-1.41s-5.178-2.469-7.381-4.588
		c-2.205-2.118-4.008-4.895-5.408-8.33c-1.4-3.434-2.102-7.646-2.102-12.635c0-4.306,0.607-8.132,1.82-11.482
		c1.213-3.349,2.844-6.176,4.895-8.483s4.426-4.066,7.125-5.28c2.699-1.212,5.553-1.82,8.561-1.82c1.162,0,2.203,0.095,3.127,0.282
		c0.922,0.188,1.725,0.419,2.408,0.692c0.684,0.274,1.281,0.573,1.795,0.897C688.713,47.438,689.176,47.753,689.584,48.061z
		 M690.199,70.615c0-0.375,0-1.136,0-2.281c0-1.145-0.033-2.46-0.102-3.947c-0.068-1.486-0.188-3.066-0.359-4.741
		c-0.172-1.674-0.443-3.229-0.82-4.665c-0.82-1.059-1.734-2.007-2.742-2.845c-1.008-0.837-2.299-1.256-3.869-1.256
		c-2.666,0-4.623,1.743-5.869,5.229c-1.248,3.485-1.871,8.885-1.871,16.197c0,3.213,0.145,6.151,0.436,8.817
		c0.289,2.665,0.734,4.955,1.332,6.869c0.598,1.914,1.367,3.4,2.307,4.459c0.939,1.06,2.059,1.589,3.357,1.589
		C687.465,94.04,690.199,86.232,690.199,70.615z" class="vKMCzuDZ_12"></path>
	<path fill="none" stroke="#FFFFFF" stroke-width="5.6693" d="M728.951,74.92c0,1.094,0.162,2.281,0.488,3.563
		c0.324,1.282,0.793,2.572,1.408,3.87c0.615,1.299,1.375,2.537,2.281,3.716c0.906,1.179,1.949,2.229,3.127,3.152
		c1.18,0.923,2.486,1.658,3.922,2.204c1.436,0.547,3.006,0.82,4.715,0.82c1.197,0,2.307-0.136,3.332-0.41
		c1.025-0.273,1.982-0.649,2.871-1.128c0.889-0.478,1.742-1.033,2.563-1.666s1.641-1.307,2.461-2.025l1.281,1.23
		c-0.787,1.06-1.795,2.222-3.023,3.486c-1.23,1.265-2.717,2.452-4.461,3.563c-1.742,1.111-3.775,2.034-6.1,2.768
		s-4.971,1.102-7.945,1.102c-2.973,0-5.869-0.539-8.688-1.615c-2.82-1.077-5.322-2.691-7.51-4.844
		c-2.188-2.153-3.939-4.835-5.254-8.048c-1.316-3.211-1.973-6.971-1.973-11.277c0-3.109,0.393-5.963,1.178-8.56
		c0.787-2.597,1.854-4.938,3.205-7.022c1.35-2.084,2.92-3.913,4.715-5.485c1.795-1.571,3.682-2.878,5.664-3.921
		c1.982-1.042,4.006-1.828,6.074-2.358c2.066-0.529,4.057-0.794,5.971-0.794c2.529,0,4.734,0.274,6.613,0.82
		c1.879,0.547,3.441,1.281,4.689,2.204s2.18,1.991,2.795,3.204c0.615,1.213,0.922,2.486,0.922,3.819c0,1.606-0.461,3.05-1.385,4.332
		c-0.922,1.281-2.152,2.401-3.689,3.357L728.951,74.92z M739.254,64.515c0.445-0.273,0.813-0.538,1.104-0.794
		c0.289-0.256,0.52-0.564,0.691-0.923c0.17-0.359,0.299-0.802,0.385-1.333c0.084-0.53,0.127-1.187,0.127-1.974
		c0-0.854-0.094-1.802-0.281-2.845c-0.188-1.042-0.504-2.025-0.947-2.947c-0.445-0.923-1.01-1.692-1.691-2.307
		c-0.686-0.615-1.506-0.923-2.461-0.923c-1.23,0-2.281,0.368-3.152,1.102c-0.871,0.735-1.59,1.684-2.152,2.845
		c-0.564,1.162-1.01,2.486-1.334,3.973s-0.572,2.982-0.742,4.485c-0.172,1.504-0.275,2.947-0.309,4.331
		c-0.033,1.384-0.051,2.555-0.051,3.511L739.254,64.515z" class="vKMCzuDZ_13"></path>
</g>
<style>.vKMCzuDZ_0{stroke-dasharray:421 423;stroke-dashoffset:422;animation:vKMCzuDZ_draw 2000ms linear 0ms forwards;}.vKMCzuDZ_1{stroke-dasharray:263 265;stroke-dashoffset:264;animation:vKMCzuDZ_draw 2000ms linear 76ms forwards;}.vKMCzuDZ_2{stroke-dasharray:309 311;stroke-dashoffset:310;animation:vKMCzuDZ_draw 2000ms linear 153ms forwards;}.vKMCzuDZ_3{stroke-dasharray:223 225;stroke-dashoffset:224;animation:vKMCzuDZ_draw 2000ms linear 230ms forwards;}.vKMCzuDZ_4{stroke-dasharray:223 225;stroke-dashoffset:224;animation:vKMCzuDZ_draw 2000ms linear 307ms forwards;}.vKMCzuDZ_5{stroke-dasharray:263 265;stroke-dashoffset:264;animation:vKMCzuDZ_draw 2000ms linear 384ms forwards;}.vKMCzuDZ_6{stroke-dasharray:309 311;stroke-dashoffset:310;animation:vKMCzuDZ_draw 2000ms linear 461ms forwards;}.vKMCzuDZ_7{stroke-dasharray:361 363;stroke-dashoffset:362;animation:vKMCzuDZ_draw 2000ms linear 538ms forwards;}.vKMCzuDZ_8{stroke-dasharray:310 312;stroke-dashoffset:311;animation:vKMCzuDZ_draw 2000ms linear 615ms forwards;}.vKMCzuDZ_9{stroke-dasharray:190 192;stroke-dashoffset:191;animation:vKMCzuDZ_draw 2000ms linear 692ms forwards;}.vKMCzuDZ_10{stroke-dasharray:236 238;stroke-dashoffset:237;animation:vKMCzuDZ_draw 2000ms linear 769ms forwards;}.vKMCzuDZ_11{stroke-dasharray:255 257;stroke-dashoffset:256;animation:vKMCzuDZ_draw 2000ms linear 846ms forwards;}.vKMCzuDZ_12{stroke-dasharray:364 366;stroke-dashoffset:365;animation:vKMCzuDZ_draw 2000ms linear 923ms forwards;}.vKMCzuDZ_13{stroke-dasharray:255 257;stroke-dashoffset:256;animation:vKMCzuDZ_draw 2000ms linear 1000ms forwards;}@keyframes vKMCzuDZ_draw{100%{stroke-dashoffset:0;}}@keyframes vKMCzuDZ_fade{0%{stroke-opacity:1;}94.44444444444444%{stroke-opacity:1;}100%{stroke-opacity:0;}}</style></svg>
