<?xml version="1.0" encoding="utf-8"?>
<!-- Generator: Adobe Illustrator 16.0.0, SVG Export Plug-In . SVG Version: 6.00 Build 0)  -->
<!DOCTYPE svg PUBLIC "-//W3C//DTD SVG 1.1//EN" "http://www.w3.org/Graphics/SVG/1.1/DTD/svg11.dtd">
<svg version="1.1" id="Calque_1" xmlns="http://www.w3.org/2000/svg" xmlns:xlink="http://www.w3.org/1999/xlink" x="0px" y="0px"
	 width="784px" height="126px" viewBox="0 0 784 126" enable-background="new 0 0 784 126" xml:space="preserve">
<g>
	<path fill="none" stroke="#FFFFFF" stroke-width="5.6693" d="M62.223,88.884c0,1.917,0.234,3.467,0.702,4.648
		c0.468,1.182,1.147,2.107,2.04,2.775c0.891,0.669,2.017,1.126,3.377,1.371c1.359,0.246,2.953,0.368,4.782,0.368
		c2.943,0,5.595-0.301,7.959-0.903c2.363-0.602,4.436-1.271,6.22-2.006c1.783-0.735,3.288-1.415,4.515-2.04
		c1.226-0.624,2.173-0.937,2.842-0.937c0.847,0,1.515,0.268,2.006,0.803c0.49,0.535,0.736,1.315,0.736,2.341
		c0,1.784-0.179,3.066-0.535,3.846c-0.357,0.78-1.093,1.371-2.207,1.772c-4.058,1.428-8.627,2.486-13.71,3.177
		c-5.083,0.691-10.834,1.037-17.255,1.037c-4.771,0-8.672-0.212-11.704-0.636c-3.032-0.424-5.417-1.17-7.156-2.24
		c-1.739-1.07-2.932-2.53-3.578-4.381c-0.646-1.85-0.97-4.224-0.97-7.123V14.78c0-0.98-0.112-1.761-0.334-2.341
		c-0.224-0.579-0.535-1.037-0.937-1.371c-0.401-0.334-0.881-0.557-1.438-0.668c-0.558-0.111-1.17-0.167-1.839-0.167
		c-0.981,0-2.196,0.157-3.645,0.468c-1.449,0.313-2.976,0.781-4.581,1.404c-1.605,0.625-3.222,1.395-4.849,2.308
		c-1.628,0.915-3.076,1.951-4.347,3.11c-1.271,1.16-2.307,2.453-3.11,3.879c-0.802,1.427-1.204,2.965-1.204,4.615
		c0,1.427,0.189,2.564,0.568,3.411c0.378,0.848,0.813,1.483,1.304,1.906c0.49,0.424,0.992,0.692,1.505,0.802
		c0.512,0.112,0.88,0.167,1.104,0.167c1.114,0,2.028-0.189,2.742-0.568c0.712-0.378,1.359-0.78,1.939-1.204
		c0.579-0.423,1.125-0.824,1.639-1.204c0.512-0.378,1.104-0.569,1.772-0.569c0.535,0,1.104,0.124,1.706,0.368
		c0.602,0.246,1.159,0.635,1.672,1.17c0.512,0.535,0.947,1.237,1.304,2.106c0.356,0.87,0.535,1.929,0.535,3.177
		c0,1.784-0.346,3.322-1.037,4.615c-0.692,1.294-1.583,2.375-2.675,3.244c-1.093,0.869-2.341,1.516-3.745,1.939
		c-1.405,0.424-2.799,0.635-4.18,0.635c-2.14,0-4.069-0.368-5.785-1.104c-1.717-0.736-3.177-1.75-4.381-3.043
		c-1.204-1.293-2.118-2.809-2.742-4.548c-0.625-1.739-0.937-3.589-0.937-5.551c0-3.077,0.557-5.896,1.672-8.46
		c1.114-2.563,2.642-4.871,4.582-6.922c1.939-2.05,4.213-3.846,6.822-5.384c2.608-1.538,5.428-2.819,8.46-3.845
		c3.031-1.025,6.197-1.794,9.497-2.308c3.299-0.512,6.598-0.769,9.898-0.769c3.656,0,6.498,0.346,8.527,1.037
		c2.028,0.692,3.522,1.528,4.481,2.508c0.958,0.981,1.527,2.007,1.706,3.077c0.178,1.07,0.268,1.962,0.268,2.675V88.884z"/>
	<path fill="none" stroke="#FFFFFF" stroke-width="5.6693" d="M86.434,36.383c2.764-1.873,4.67-3.868,5.718-5.986
		c1.047-2.117,1.572-4.135,1.572-6.053c0-2.05-0.569-3.868-1.706-5.451c-1.137-1.582-2.397-2.953-3.779-4.113
		c-0.669-0.668-1.003-1.404-1.003-2.207c0-0.936,0.312-1.895,0.937-2.875c0.624-0.98,1.448-1.895,2.475-2.742
		c1.025-0.847,2.217-1.539,3.578-2.073c1.359-0.535,2.775-0.803,4.247-0.803c1.381,0,2.563,0.357,3.544,1.07
		c0.98,0.713,1.761,1.583,2.341,2.608c0.579,1.026,1.003,2.107,1.271,3.244c0.267,1.137,0.401,2.152,0.401,3.043
		c0,2.631-0.468,5.128-1.404,7.49c-0.937,2.364-2.207,4.593-3.812,6.688c-1.605,2.096-3.467,4.024-5.584,5.785
		c-2.119,1.762-4.359,3.333-6.722,4.715L86.434,36.383z"/>
	<path fill="none" stroke="#FFFFFF" stroke-width="5.6693" d="M173.245,75.842h-25.214c-1.873,5.886-3.891,10.991-6.053,15.316
		c-2.163,4.325-4.56,7.915-7.19,10.768c-2.631,2.853-5.518,4.971-8.661,6.354c-3.144,1.382-6.655,2.073-10.534,2.073
		c-2.14,0-4.203-0.19-6.187-0.568c-1.983-0.379-3.734-0.903-5.25-1.572c-1.516-0.668-2.731-1.461-3.645-2.374
		c-0.914-0.915-1.371-1.906-1.371-2.976c0-0.803,0.123-1.616,0.368-2.441c0.246-0.825,0.591-1.582,1.037-2.274
		c0.446-0.691,0.993-1.248,1.639-1.672c0.647-0.423,1.371-0.635,2.173-0.635c0.714,0,1.338,0.491,1.873,1.471
		c0.535,0.981,1.215,2.063,2.04,3.244c0.826,1.182,1.883,2.264,3.177,3.244c1.293,0.98,3.077,1.471,5.351,1.471
		c2.318,0,4.525-0.558,6.621-1.672c2.095-1.114,4.113-2.864,6.053-5.25c1.939-2.385,3.801-5.428,5.584-9.129
		c1.783-3.7,3.522-8.159,5.217-13.376h-15.784v-5.885h17.522c1.472-4.993,2.91-10.032,4.314-15.115s2.73-9.965,3.979-14.647
		c1.248-4.682,2.363-9.062,3.344-13.142c0.98-4.08,1.806-7.635,2.475-10.667c-0.892-2.497-2.106-4.168-3.645-5.016
		c-1.538-0.847-3.601-1.271-6.187-1.271c-2.408,0-4.894,0.368-7.457,1.104c-2.564,0.736-4.894,1.784-6.989,3.144
		c-2.097,1.361-3.824,3.033-5.184,5.016c-1.36,1.984-2.04,4.203-2.04,6.655c0,1.427,0.189,2.564,0.568,3.411
		c0.378,0.848,0.825,1.483,1.337,1.906c0.512,0.424,1.014,0.692,1.505,0.802c0.49,0.112,0.87,0.167,1.137,0.167
		c1.07,0,1.973-0.189,2.708-0.568c0.736-0.378,1.381-0.78,1.939-1.204c0.557-0.423,1.104-0.824,1.639-1.204
		c0.535-0.378,1.137-0.569,1.806-0.569c0.49,0,1.037,0.124,1.639,0.368c0.602,0.246,1.159,0.635,1.672,1.17
		c0.512,0.535,0.947,1.237,1.304,2.106c0.356,0.87,0.535,1.929,0.535,3.177c0,1.784-0.346,3.322-1.037,4.615
		c-0.692,1.294-1.583,2.375-2.675,3.244c-1.093,0.869-2.341,1.516-3.745,1.939c-1.405,0.424-2.799,0.635-4.18,0.635
		c-2.14,0-4.069-0.39-5.785-1.17c-1.717-0.78-3.177-1.839-4.381-3.177c-1.204-1.338-2.118-2.898-2.742-4.682
		c-0.625-1.783-0.937-3.656-0.937-5.618c0-2.942,0.49-5.651,1.471-8.126c0.98-2.475,2.341-4.726,4.08-6.755
		c1.739-2.028,3.789-3.812,6.153-5.351c2.363-1.538,4.916-2.831,7.658-3.879c2.742-1.047,5.606-1.839,8.594-2.374
		c2.987-0.535,5.996-0.803,9.029-0.803c4.28,0,7.902,0.346,10.868,1.037c2.965,0.692,5.451,1.717,7.457,3.077
		c2.006,1.36,3.622,3.076,4.849,5.149c1.226,2.074,2.24,4.471,3.043,7.19l14.379,49.425h14.513v5.885h-12.908l5.217,17.523
		c0.178,0.668,0.356,1.293,0.535,1.873c0.177,0.58,0.39,1.082,0.635,1.505c0.245,0.424,0.557,0.769,0.936,1.037
		c0.378,0.268,0.858,0.401,1.438,0.401c1.248,0,2.408-0.211,3.478-0.636c1.07-0.423,2.006-0.858,2.809-1.304l1.137,2.475
		c-0.803,0.58-1.817,1.237-3.043,1.973c-1.227,0.736-2.631,1.438-4.213,2.107c-1.583,0.668-3.333,1.227-5.25,1.672
		c-1.917,0.445-3.969,0.669-6.153,0.669c-3.033,0-5.474-0.379-7.323-1.137c-1.851-0.758-3.3-1.694-4.347-2.809
		c-1.048-1.114-1.806-2.296-2.274-3.544c-0.468-1.248-0.836-2.341-1.104-3.277L173.245,75.842z M160.27,30.631
		c-1.829,7.446-3.601,14.446-5.317,21c-1.717,6.554-3.422,12.663-5.116,18.325h21.803L160.27,30.631z"/>
	<path fill="none" stroke="#FFFFFF" stroke-width="5.6693" d="M263.667,9.831c-1.204,0-2.608,0.246-4.213,0.736
		c-1.605,0.491-3.244,1.416-4.916,2.775c-1.672,1.361-3.311,3.267-4.916,5.719c-1.605,2.453-3.043,5.629-4.314,9.53
		c-1.271,3.902-2.297,8.639-3.076,14.212c-0.781,5.574-1.17,12.15-1.17,19.73c0,7.223,0.39,13.488,1.17,18.793
		c0.779,5.307,1.828,9.821,3.143,13.543c1.315,3.724,2.819,6.767,4.515,9.129c1.694,2.363,3.478,4.202,5.351,5.518
		c1.873,1.315,3.745,2.218,5.618,2.708c1.873,0.49,3.634,0.736,5.284,0.736c1.739,0,3.5-0.224,5.284-0.669
		c1.783-0.446,3.533-1.093,5.25-1.939c1.716-0.847,3.366-1.873,4.949-3.076c1.582-1.204,3.043-2.586,4.38-4.147l3.01,3.01
		c-1.337,1.649-2.943,3.333-4.815,5.049c-1.873,1.716-4.046,3.277-6.521,4.682c-2.475,1.405-5.25,2.552-8.327,3.444
		c-3.076,0.892-6.487,1.338-10.232,1.338c-5.842,0-11.27-1.115-16.286-3.344c-5.016-2.23-9.386-5.696-13.108-10.4
		c-3.723-4.704-6.644-10.734-8.761-18.091c-2.118-7.357-3.177-16.162-3.177-26.418c0-9.631,1.114-18.08,3.344-25.348
		c2.229-7.267,5.261-13.343,9.096-18.225c3.834-4.882,8.337-8.561,13.51-11.035c5.172-2.475,10.678-3.712,16.52-3.712
		c3.879,0,7.413,0.368,10.601,1.104c3.188,0.736,5.941,1.806,8.26,3.21c2.318,1.404,4.113,3.143,5.384,5.216
		c1.271,2.073,1.906,4.426,1.906,7.056c0,1.204-0.201,2.464-0.602,3.779c-0.401,1.315-1.015,2.52-1.839,3.611
		c-0.826,1.093-1.839,1.984-3.043,2.675c-1.204,0.692-2.608,1.037-4.214,1.037c-1.427,0-2.531-0.312-3.311-0.937
		c-0.78-0.624-1.36-1.448-1.739-2.474c-0.379-1.025-0.625-2.196-0.736-3.511c-0.112-1.315-0.19-2.664-0.234-4.046
		c-0.045-1.382-0.146-2.731-0.301-4.046c-0.157-1.314-0.468-2.485-0.937-3.511c-0.468-1.025-1.148-1.85-2.04-2.475
		C266.521,10.144,265.272,9.831,263.667,9.831z"/>
	<path fill="none" stroke="#FFFFFF" stroke-width="5.6693" d="M316.101,113.764c1.783,0,3.545-0.324,5.284-0.97
		c1.739-0.647,3.288-1.717,4.648-3.21c1.359-1.494,2.463-3.444,3.311-5.852c0.846-2.408,1.271-5.351,1.271-8.828
		c0-3.745-0.926-7.379-2.775-10.901c-1.851-3.522-4.169-6.989-6.956-10.4c-2.787-3.411-5.797-6.799-9.029-10.166
		c-3.233-3.366-6.243-6.799-9.029-10.3c-2.787-3.5-5.106-7.111-6.956-10.834c-1.851-3.722-2.776-7.613-2.776-11.67
		c0-4.057,0.746-7.725,2.241-11.002c1.493-3.277,3.521-6.063,6.086-8.36c2.563-2.296,5.551-4.068,8.962-5.317
		c3.411-1.248,7.056-1.873,10.935-1.873c4.146,0,7.835,0.435,11.069,1.304c3.232,0.87,5.974,2.051,8.226,3.544
		c2.251,1.495,3.957,3.255,5.117,5.284c1.159,2.029,1.739,4.18,1.739,6.454c0,1.07-0.157,2.173-0.468,3.311
		c-0.313,1.137-0.802,2.173-1.471,3.11s-1.517,1.717-2.542,2.341c-1.026,0.625-2.23,0.937-3.612,0.937
		c-1.65,0-2.865-0.502-3.645-1.505c-0.781-1.003-1.361-2.241-1.739-3.712c-0.379-1.471-0.702-3.087-0.97-4.849
		c-0.268-1.761-0.692-3.377-1.271-4.849c-0.58-1.471-1.45-2.708-2.608-3.712c-1.16-1.003-2.854-1.505-5.083-1.505
		c-1.204,0-2.397,0.268-3.578,0.803c-1.182,0.535-2.252,1.349-3.21,2.441c-0.959,1.093-1.728,2.486-2.307,4.18
		c-0.58,1.695-0.87,3.702-0.87,6.02c0,2.675,0.557,5.283,1.672,7.825c1.114,2.542,2.585,5.05,4.414,7.524
		c1.828,2.475,3.913,4.949,6.253,7.424s4.725,4.972,7.156,7.491c2.43,2.52,4.815,5.106,7.156,7.758
		c2.341,2.653,4.425,5.407,6.253,8.26c1.828,2.854,3.299,5.841,4.414,8.962c1.114,3.122,1.672,6.398,1.672,9.832
		c0,5.039-0.97,9.53-2.91,13.476c-1.939,3.946-4.571,7.267-7.892,9.965c-3.322,2.697-7.213,4.759-11.671,6.187
		c-4.459,1.426-9.208,2.14-14.246,2.14c-4.548,0-8.572-0.568-12.072-1.706c-3.501-1.137-6.454-2.642-8.862-4.514
		c-2.408-1.873-4.225-4.002-5.451-6.387c-1.227-2.386-1.839-4.849-1.839-7.39c0-1.07,0.167-2.218,0.502-3.444
		c0.334-1.226,0.824-2.352,1.471-3.378c0.646-1.025,1.46-1.883,2.441-2.575c0.98-0.691,2.117-1.037,3.411-1.037
		c1.338,0,2.418,0.334,3.244,1.003c0.825,0.668,1.482,1.561,1.973,2.675c0.49,1.115,0.891,2.386,1.204,3.813
		c0.312,1.427,0.646,2.876,1.003,4.347c0.356,1.471,0.803,2.92,1.337,4.347c0.535,1.426,1.271,2.697,2.207,3.812
		c0.937,1.114,2.14,2.007,3.612,2.675C312.021,113.429,313.871,113.764,316.101,113.764z"/>
	<path fill="none" stroke="#FFFFFF" stroke-width="5.6693" d="M462.436,81.059c1.605-4.146,3.299-8.772,5.083-13.878
		c1.783-5.104,3.421-10.276,4.916-15.516c1.494-5.239,2.731-10.333,3.712-15.282c0.98-4.949,1.472-9.363,1.472-13.242
		c0-2.943-0.201-5.395-0.602-7.357c-0.401-1.961-0.859-3.6-1.371-4.916c-0.513-1.315-0.97-2.396-1.371-3.244
		c-0.401-0.846-0.602-1.627-0.602-2.341c0-0.936,0.256-1.727,0.769-2.374c0.512-0.646,1.147-1.192,1.906-1.639
		c0.758-0.445,1.582-0.769,2.475-0.97C479.713,0.1,480.561,0,481.363,0c1.783,0,3.288,0.268,4.515,0.802
		c1.226,0.535,2.083,1.45,2.575,2.742c0.223,0.669,0.401,1.371,0.535,2.107c0.134,0.735,0.234,1.449,0.301,2.14
		c0.067,0.692,0.101,1.337,0.101,1.939s0,1.082,0,1.438c0,1.873-0.313,4.437-0.937,7.691c-0.625,3.255-1.461,6.934-2.508,11.035
		c-1.048,4.103-2.264,8.494-3.645,13.175c-1.383,4.682-2.809,9.397-4.281,14.146c-1.471,4.749-2.965,9.396-4.481,13.944
		c-1.516,4.548-2.942,8.751-4.28,12.607c-1.337,3.857-2.531,7.235-3.578,10.132c-1.048,2.899-1.862,5.061-2.441,6.488
		c-0.401,1.026-0.903,1.851-1.505,2.475c-0.602,0.625-1.282,1.104-2.04,1.438c-0.758,0.334-1.595,0.557-2.508,0.669
		c-0.915,0.111-1.862,0.167-2.842,0.167c-1.784,0-3.233-0.179-4.348-0.535c-1.115-0.357-2.018-0.803-2.708-1.338
		c-0.692-0.535-1.193-1.114-1.505-1.739c-0.313-0.624-0.558-1.181-0.735-1.672l-25.348-79.588c-0.491-1.515-0.993-2.797-1.504-3.846
		c-0.513-1.047-1.137-1.906-1.873-2.575c-0.735-0.669-1.616-1.159-2.642-1.472c-1.026-0.311-2.297-0.468-3.812-0.468
		c-1.249,0-2.698,0.301-4.347,0.903c-1.65,0.602-3.222,1.494-4.715,2.675c-1.494,1.182-2.753,2.653-3.779,4.414
		c-1.026,1.762-1.538,3.802-1.538,6.12c0,1.427,0.189,2.564,0.568,3.411c0.378,0.848,0.813,1.483,1.304,1.906
		c0.49,0.424,0.992,0.692,1.505,0.802c0.512,0.112,0.88,0.167,1.104,0.167c1.114,0,2.028-0.189,2.742-0.568
		c0.712-0.378,1.359-0.78,1.939-1.204c0.579-0.423,1.125-0.824,1.639-1.204c0.512-0.378,1.104-0.569,1.772-0.569
		c0.535,0,1.104,0.124,1.706,0.368c0.602,0.246,1.159,0.635,1.672,1.17c0.512,0.535,0.947,1.237,1.304,2.106
		c0.356,0.87,0.535,1.929,0.535,3.177c0,1.784-0.346,3.322-1.037,4.615c-0.692,1.294-1.583,2.375-2.675,3.244
		c-1.093,0.869-2.341,1.516-3.745,1.939c-1.404,0.424-2.798,0.635-4.18,0.635c-2.14,0-4.046-0.378-5.718-1.137
		c-1.672-0.757-3.076-1.783-4.213-3.076c-1.137-1.293-2.006-2.798-2.608-4.515c-0.602-1.716-0.903-3.555-0.903-5.518
		c0-4.637,0.892-8.683,2.675-12.139c1.783-3.455,4.146-6.342,7.089-8.661c2.943-2.318,6.287-4.046,10.032-5.183
		c3.746-1.137,7.602-1.706,11.571-1.706c4.458,0,8.114,0.68,10.968,2.04c2.853,1.36,5.16,3.11,6.922,5.25
		c1.761,2.14,3.154,4.537,4.18,7.189c1.025,2.653,1.939,5.273,2.742,7.858L462.436,81.059z"/>
	<path fill="none" stroke="#FFFFFF" stroke-width="5.6693" d="M512.931,73.368c0,1.428,0.211,2.976,0.635,4.648
		c0.423,1.672,1.037,3.355,1.839,5.049c0.803,1.695,1.794,3.311,2.976,4.849c1.181,1.539,2.542,2.91,4.08,4.113
		c1.539,1.204,3.244,2.163,5.117,2.876c1.873,0.714,3.922,1.07,6.152,1.07c1.561,0,3.01-0.177,4.348-0.535
		c1.338-0.356,2.586-0.847,3.746-1.472c1.158-0.624,2.273-1.348,3.344-2.173c1.07-0.825,2.141-1.706,3.209-2.642l1.674,1.605
		c-1.027,1.382-2.342,2.899-3.947,4.548c-1.605,1.65-3.545,3.2-5.818,4.648c-2.273,1.45-4.928,2.653-7.959,3.612
		c-3.033,0.958-6.486,1.438-10.366,1.438c-3.879,0-7.658-0.703-11.336-2.107c-3.678-1.404-6.945-3.511-9.798-6.32
		c-2.854-2.809-5.139-6.309-6.855-10.5c-1.717-4.19-2.575-9.096-2.575-14.714c0-4.057,0.512-7.78,1.539-11.169
		c1.025-3.388,2.418-6.442,4.18-9.163c1.761-2.719,3.813-5.105,6.153-7.156c2.341-2.05,4.804-3.756,7.39-5.116
		c2.585-1.36,5.227-2.385,7.925-3.077c2.697-0.691,5.294-1.037,7.792-1.037c3.299,0,6.174,0.357,8.627,1.07
		c2.451,0.714,4.49,1.672,6.119,2.876c1.627,1.204,2.842,2.598,3.645,4.18c0.803,1.583,1.205,3.244,1.205,4.982
		c0,2.096-0.602,3.979-1.807,5.651c-1.203,1.672-2.809,3.133-4.814,4.381L512.931,73.368z M526.375,59.791
		c0.578-0.356,1.059-0.702,1.438-1.037c0.377-0.334,0.68-0.736,0.902-1.204c0.223-0.468,0.391-1.047,0.502-1.739
		c0.111-0.69,0.166-1.549,0.166-2.575c0-1.114-0.123-2.352-0.367-3.712c-0.246-1.359-0.658-2.642-1.236-3.846
		c-0.58-1.204-1.316-2.207-2.207-3.01c-0.893-0.802-1.963-1.204-3.211-1.204c-1.605,0-2.976,0.479-4.113,1.438
		c-1.137,0.959-2.073,2.196-2.809,3.712c-0.735,1.516-1.315,3.244-1.739,5.183c-0.424,1.939-0.747,3.891-0.97,5.852
		c-0.224,1.962-0.357,3.846-0.401,5.651c-0.045,1.806-0.067,3.333-0.067,4.582L526.375,59.791z"/>
	<path fill="none" stroke="#FFFFFF" stroke-width="5.6693" d="M580.547,39.995c-1.026,0-1.996,0.133-2.91,0.401
		s-1.728,0.703-2.44,1.304c-0.714,0.602-1.271,1.361-1.672,2.274c-0.401,0.915-0.603,1.996-0.603,3.244
		c0,1.739,0.636,3.468,1.906,5.184c1.271,1.717,2.853,3.5,4.749,5.35c1.895,1.851,3.945,3.769,6.152,5.752
		c2.207,1.984,4.258,4.08,6.153,6.287c1.895,2.207,3.478,4.56,4.748,7.056c1.271,2.498,1.906,5.173,1.906,8.025
		c0,3.21-0.546,6.064-1.639,8.561c-1.093,2.498-2.653,4.615-4.682,6.354c-2.029,1.739-4.48,3.066-7.356,3.979
		c-2.876,0.913-6.076,1.371-9.598,1.371c-3.076,0-5.863-0.435-8.359-1.304c-2.498-0.87-4.716-1.94-6.655-3.21
		s-3.601-2.619-4.982-4.046c-1.383-1.426-2.452-2.719-3.21-3.879l2.341-1.672c0.579,0.668,1.314,1.394,2.207,2.173
		c0.892,0.781,1.883,1.505,2.976,2.174c1.093,0.668,2.263,1.215,3.512,1.639c1.248,0.424,2.519,0.635,3.813,0.635
		c3.21,0,5.84-0.769,7.892-2.308c2.05-1.538,3.076-3.823,3.076-6.855c0-1.694-0.558-3.444-1.672-5.25
		c-1.115-1.806-2.52-3.667-4.214-5.584c-1.694-1.917-3.522-3.901-5.483-5.952c-1.963-2.05-3.791-4.168-5.484-6.354
		c-1.695-2.184-3.1-4.436-4.214-6.755c-1.115-2.318-1.672-4.726-1.672-7.223c0-2.809,0.568-5.261,1.705-7.357
		c1.138-2.095,2.652-3.834,4.548-5.217c1.896-1.381,4.058-2.418,6.488-3.11c2.43-0.691,4.938-1.037,7.523-1.037
		c2.987,0,5.707,0.268,8.159,0.802c2.452,0.535,4.559,1.349,6.32,2.441c1.761,1.093,3.121,2.464,4.08,4.113
		c0.958,1.65,1.438,3.567,1.438,5.751c0,1.695-0.558,3.167-1.672,4.414c-1.115,1.249-2.675,1.873-4.682,1.873
		c-1.917,0-3.377-0.412-4.381-1.237c-1.003-0.825-1.504-1.95-1.504-3.378c0-0.936,0.233-1.672,0.702-2.207
		c0.468-0.535,0.991-0.97,1.571-1.304c0.579-0.334,1.104-0.624,1.571-0.869c0.469-0.245,0.703-0.568,0.703-0.97
		c0-1.248-0.669-2.241-2.007-2.976C584.359,40.362,582.642,39.995,580.547,39.995z"/>
	<path fill="none" stroke="#FFFFFF" stroke-width="5.6693" d="M606.698,69.823c0-5.841,0.846-10.957,2.541-15.349
		c1.694-4.391,3.956-8.059,6.788-11.002c2.831-2.943,6.12-5.15,9.865-6.621s7.668-2.207,11.771-2.207
		c4.103,0,8.027,0.68,11.771,2.04c3.746,1.361,7.033,3.444,9.865,6.253c2.83,2.809,5.094,6.365,6.789,10.667
		c1.693,4.303,2.541,9.397,2.541,15.282c0,5.842-0.848,11.013-2.541,15.516c-1.695,4.504-3.959,8.293-6.789,11.37
		c-2.832,3.076-6.119,5.407-9.865,6.989c-3.744,1.582-7.668,2.375-11.771,2.375c-4.103,0-8.025-0.748-11.771-2.241
		s-7.034-3.712-9.865-6.655c-2.832-2.942-5.094-6.621-6.788-11.035C607.543,80.792,606.698,75.665,606.698,69.823z M647.828,69.154
		c0-3.566-0.123-7.011-0.367-10.333c-0.246-3.321-0.725-6.275-1.438-8.862c-0.715-2.585-1.738-4.648-3.076-6.187
		c-1.338-1.538-3.1-2.307-5.285-2.307s-3.945,0.814-5.283,2.441c-1.338,1.628-2.363,3.769-3.076,6.421
		c-0.714,2.653-1.183,5.674-1.404,9.062c-0.224,3.389-0.335,6.867-0.335,10.434c0,3.567,0.111,7.056,0.335,10.467
		c0.222,3.411,0.69,6.454,1.404,9.129c0.713,2.675,1.738,4.827,3.076,6.454c1.338,1.628,3.099,2.441,5.283,2.441
		s3.947-0.846,5.285-2.541c1.338-1.694,2.361-3.923,3.076-6.688c0.713-2.764,1.191-5.885,1.438-9.363
		C647.705,76.244,647.828,72.722,647.828,69.154z"/>
	<path fill="none" stroke="#FFFFFF" stroke-width="5.6693" d="M739.588,92.429c0,0.401,0.023,0.836,0.068,1.304
		c0.043,0.468,0.154,0.915,0.334,1.337c0.178,0.424,0.445,0.77,0.803,1.037c0.355,0.268,0.869,0.401,1.537,0.401
		c0.848,0,1.605-0.301,2.275-0.903c0.668-0.602,1.291-1.214,1.871-1.839l1.605,1.405c-0.668,0.936-1.504,1.973-2.508,3.11
		c-1.004,1.137-2.219,2.219-3.645,3.244c-1.428,1.026-3.055,1.884-4.883,2.575c-1.828,0.691-3.902,1.037-6.219,1.037
		c-1.963,0-3.668-0.257-5.117-0.77c-1.449-0.512-2.676-1.204-3.678-2.073c-1.004-0.869-1.752-1.895-2.242-3.076
		c-0.49-1.181-0.734-2.441-0.734-3.779v-3.01c-2.23,2.408-4.572,4.526-7.023,6.354c-1.07,0.803-2.207,1.583-3.41,2.341
		c-1.203,0.759-2.453,1.438-3.746,2.04s-2.631,1.081-4.012,1.438c-1.383,0.356-2.766,0.535-4.146,0.535
		c-2.676,0-4.961-0.48-6.855-1.438c-1.896-0.958-3.422-2.218-4.582-3.779c-1.16-1.561-2.006-3.321-2.541-5.284
		c-0.535-1.961-0.803-3.923-0.803-5.885V47.351c0-0.401-0.023-0.836-0.066-1.304c-0.045-0.468-0.156-0.913-0.334-1.337
		c-0.18-0.423-0.447-0.769-0.803-1.037c-0.357-0.268-0.871-0.401-1.539-0.401c-0.803,0-1.549,0.301-2.24,0.903
		s-1.305,1.215-1.84,1.839l-1.672-1.404c0.67-0.937,1.506-1.973,2.508-3.11c1.004-1.137,2.219-2.217,3.646-3.244
		c1.426-1.025,3.064-1.883,4.914-2.575c1.85-0.691,3.914-1.037,6.188-1.037c1.961,0,3.678,0.257,5.15,0.769
		c1.471,0.513,2.695,1.204,3.678,2.073c0.98,0.87,1.715,1.896,2.207,3.077c0.49,1.182,0.736,2.441,0.736,3.779v44.676
		c0,0.625,0.1,1.261,0.301,1.906c0.199,0.647,0.49,1.237,0.869,1.772c0.377,0.535,0.857,0.97,1.438,1.304
		c0.578,0.334,1.271,0.501,2.074,0.501c1.291,0,2.584-0.334,3.879-1.003c1.291-0.669,2.475-1.46,3.545-2.375
		c1.068-0.913,1.994-1.816,2.775-2.708c0.779-0.892,1.348-1.561,1.705-2.006V47.351c0-0.401-0.023-0.836-0.066-1.304
		c-0.045-0.468-0.158-0.913-0.336-1.337c-0.178-0.423-0.445-0.769-0.803-1.037s-0.869-0.401-1.537-0.401
		c-0.803,0-1.551,0.301-2.24,0.903c-0.693,0.602-1.305,1.215-1.84,1.839l-1.672-1.404c0.668-0.937,1.504-1.973,2.508-3.11
		c1.004-1.137,2.217-2.217,3.645-3.244c1.428-1.025,3.066-1.883,4.916-2.575c1.85-0.691,3.912-1.037,6.188-1.037
		c1.961,0,3.678,0.257,5.148,0.769c1.473,0.513,2.697,1.204,3.68,2.073c0.98,0.87,1.715,1.896,2.207,3.077
		c0.49,1.182,0.734,2.441,0.734,3.779V92.429z"/>
	<path fill="none" stroke="#FFFFFF" stroke-width="5.6693" d="M777.844,98.181c0,0.58-0.1,1.271-0.301,2.073
		c-0.201,0.802-0.668,1.561-1.404,2.274c-0.736,0.713-1.807,1.327-3.211,1.839c-1.404,0.512-3.287,0.77-5.65,0.77
		c-2.365,0-4.215-0.279-5.551-0.836c-1.338-0.557-2.332-1.214-2.977-1.973c-0.646-0.758-1.049-1.539-1.205-2.341
		c-0.156-0.803-0.232-1.449-0.232-1.939V11.771c0-1.293-0.303-2.418-0.904-3.377c-0.602-0.958-1.615-1.438-3.043-1.438
		c-0.758,0-1.416,0.123-1.973,0.368c-0.559,0.246-1.148,0.613-1.771,1.104l-1.338-1.605c1.025-0.847,2.162-1.683,3.41-2.508
		c1.248-0.824,2.619-1.548,4.113-2.173c1.494-0.624,3.088-1.137,4.781-1.539C762.283,0.201,764.066,0,765.939,0
		c2.898,0,5.15,0.391,6.754,1.17c1.605,0.78,2.787,1.739,3.545,2.875c0.758,1.137,1.215,2.341,1.371,3.612
		c0.156,1.271,0.234,2.397,0.234,3.377V98.181z"/>
</g>
</svg>
